<svg width="40" height="40" viewBox="0 0 40 40" fill="none" xmlns="http://www.w3.org/2000/svg">
<circle cx="20" cy="20" r="20" fill="#0926cb"/>
<path d="M28.9474 23.4926C29.4395 23.74 29.8086 23.8637 29.9316 24.1111C30.0547 24.3585 30.0547 25.348 29.5625 26.4612C29.1934 27.5745 27.1018 28.6877 26.2406 28.8114C25.3794 28.9351 25.3794 29.5535 20.3349 27.5745C15.4135 25.5954 12.2146 20.524 11.9686 20.1529C11.7225 19.7819 10 17.5554 10 15.0816C10 12.7314 11.2303 11.4945 11.7225 11.1234C12.2146 10.6286 12.7068 10.5049 13.0759 10.5049H14.0602C14.3062 10.5049 14.7984 10.3813 15.1675 11.3708C15.5366 12.2366 16.5208 14.7105 16.6439 14.9579C16.7669 15.2052 16.7669 15.4526 16.6439 15.8237C16.5208 16.1948 16.3978 16.4422 16.1517 16.6896C15.9057 16.9369 15.6596 17.308 15.4135 17.5554C15.1675 17.8028 14.9214 18.0502 15.1675 18.5449C15.4135 19.0397 16.3978 20.524 17.8742 21.8846C19.7198 23.6163 21.3192 24.1111 21.8113 24.3585C22.3035 24.6059 22.6726 24.6059 22.9187 24.2348C23.2878 23.8637 24.149 22.7505 24.5181 22.2557C24.7642 21.7609 25.1333 21.7609 25.6254 21.8846C25.9945 22.0083 28.4552 23.2452 28.9474 23.4926Z" fill="white"/>
</svg>
