<svg xmlns="http://www.w3.org/2000/svg" version="1.1" width="1360px" height="635px"
    style="shape-rendering:geometricPrecision; text-rendering:geometricPrecision; image-rendering:optimizeQuality; fill-rule:evenodd; clip-rule:evenodd"
    xmlns:xlink="http://www.w3.org/1999/xlink">
    <g>
        <path style="opacity:0.995" fill="#c92f33"
            d="M 260.5,37.5 C 269.625,36.2362 278.625,37.4028 287.5,41C 326.313,62.9945 364.979,85.1612 403.5,107.5C 386.841,117.163 370.175,126.83 353.5,136.5C 353.611,135.883 353.944,135.383 354.5,135C 328.273,120.059 302.273,104.892 276.5,89.5C 273.038,72.1919 269.705,54.8586 266.5,37.5C 264.5,37.5 262.5,37.5 260.5,37.5 Z" />
    </g>
    <g>
        <path style="opacity:0.994" fill="#d13034"
            d="M 260.5,37.5 C 262.5,37.5 264.5,37.5 266.5,37.5C 269.705,54.8586 273.038,72.1919 276.5,89.5C 273.411,88.2611 270.411,86.7611 267.5,85C 266.167,84.3333 264.833,84.3333 263.5,85C 252.102,92.0314 240.435,98.5314 228.5,104.5C 225.605,89.8584 222.772,75.1917 220,60.5C 219.878,58.563 219.045,57.2297 217.5,56.5C 228.478,48.51 240.478,42.3433 253.5,38C 255.81,37.5034 258.143,37.3367 260.5,37.5 Z" />
    </g>
    <g>
        <path style="opacity:0.995" fill="#eb3337"
            d="M 499.5,57.5 C 497.596,57.7376 496.262,58.7376 495.5,60.5C 495.5,61.1667 495.167,61.5 494.5,61.5C 431.122,112.88 367.455,163.88 303.5,214.5C 295.141,202.482 286.808,190.482 278.5,178.5C 298.5,166.833 318.5,155.167 338.5,143.5C 343.696,141.651 348.696,139.318 353.5,136.5C 370.175,126.83 386.841,117.163 403.5,107.5C 437.806,88.0119 472.139,68.5119 506.5,49C 508.044,47.8129 509.711,47.4795 511.5,48C 507.625,51.3807 503.625,54.5474 499.5,57.5 Z" />
    </g>
    <g>
        <path style="opacity:0.994" fill="#d73035"
            d="M 217.5,56.5 C 219.045,57.2297 219.878,58.563 220,60.5C 222.772,75.1917 225.605,89.8584 228.5,104.5C 213.998,113.921 198.998,122.588 183.5,130.5C 180.912,113.893 177.579,97.5594 173.5,81.5C 187.834,72.664 202.5,64.3307 217.5,56.5 Z" />
    </g>
    <g>
        <path style="opacity:0.063" fill="#b9a2aa"
            d="M 499.5,57.5 C 498.738,59.2624 497.404,60.2624 495.5,60.5C 496.262,58.7376 497.596,57.7376 499.5,57.5 Z" />
    </g>
    <g>
        <path style="opacity:0.942" fill="#b5bbc4"
            d="M 579.5,22.5 C 544.523,64.4807 509.523,106.481 474.5,148.5C 472.716,148.107 471.05,147.441 469.5,146.5C 474.259,139.985 479.259,133.652 484.5,127.5C 516.4,92.689 548.067,57.689 579.5,22.5 Z" />
    </g>
    <g>
        <path style="opacity:0.983" fill="#12abea"
            d="M 597.5,-0.5 C 597.833,-0.5 598.167,-0.5 598.5,-0.5C 593.292,8.04616 586.959,15.7128 579.5,22.5C 548.067,57.689 516.4,92.689 484.5,127.5C 479.167,123.167 473.833,118.833 468.5,114.5C 511.202,75.7957 554.202,37.4623 597.5,-0.5 Z" />
    </g>
    <g>
        <path style="opacity:0.993" fill="#dd3135"
            d="M 173.5,81.5 C 177.579,97.5594 180.912,113.893 183.5,130.5C 168.998,139.921 153.998,148.588 138.5,156.5C 135.149,141.248 131.983,125.914 129,110.5C 128.722,109.584 128.222,108.918 127.5,108.5C 142.469,99.0105 157.802,90.0105 173.5,81.5 Z" />
    </g>
    <g>
        <path style="opacity:0.992" fill="#bbbdc4"
            d="M 276.5,89.5 C 302.273,104.892 328.273,120.059 354.5,135C 353.944,135.383 353.611,135.883 353.5,136.5C 348.696,139.318 343.696,141.651 338.5,143.5C 315.031,130.264 291.697,116.764 268.5,103C 264.486,102.495 260.819,103.495 257.5,106C 193.5,143 129.5,180 65.5,217C 64.2986,217.903 63.4652,219.069 63,220.5C 62.5,246.831 62.3334,273.165 62.5,299.5C 58.0054,303.251 53.0054,306.251 47.5,308.5C 47.3334,275.832 47.5,243.165 48,210.5C 59.9454,202.778 72.1121,195.445 84.5,188.5C 102.783,178.196 120.783,167.53 138.5,156.5C 153.998,148.588 168.998,139.921 183.5,130.5C 198.998,122.588 213.998,113.921 228.5,104.5C 240.435,98.5314 252.102,92.0314 263.5,85C 264.833,84.3333 266.167,84.3333 267.5,85C 270.411,86.7611 273.411,88.2611 276.5,89.5 Z" />
    </g>
    <g>
        <path style="opacity:0.987" fill="#bbbbc2"
            d="M 494.5,61.5 C 351.153,185.676 207.32,309.343 63,432.5C 62.3333,438.833 62.3333,445.167 63,451.5C 66.6299,455.061 70.7965,457.728 75.5,459.5C 71.9118,463.428 68.2452,467.428 64.5,471.5C 64.1667,471.5 63.8333,471.5 63.5,471.5C 58.2359,468.085 53.0692,464.418 48,460.5C 47.5001,447.838 47.3334,435.171 47.5,422.5C 70.1488,404.515 92.4822,386.181 114.5,367.5C 128.875,356.644 142.875,345.31 156.5,333.5C 168.723,324.885 180.39,315.552 191.5,305.5C 203.905,296.302 215.905,286.636 227.5,276.5C 239.149,267.514 250.482,258.181 261.5,248.5C 275.875,237.644 289.875,226.31 303.5,214.5C 367.455,163.88 431.122,112.88 494.5,61.5 Z" />
    </g>
    <g>
        <path style="opacity:0.994" fill="#e33136"
            d="M 127.5,108.5 C 128.222,108.918 128.722,109.584 129,110.5C 131.983,125.914 135.149,141.248 138.5,156.5C 120.783,167.53 102.783,178.196 84.5,188.5C 81.273,172.865 78.1064,157.199 75,141.5C 73.9887,140.663 72.8221,140.33 71.5,140.5C 89.8331,129.331 108.5,118.664 127.5,108.5 Z" />
    </g>
    <g>
        <path style="opacity:0.999" fill="#01a4e5"
            d="M 468.5,114.5 C 473.833,118.833 479.167,123.167 484.5,127.5C 479.259,133.652 474.259,139.985 469.5,146.5C 458.043,158.079 447.043,170.079 436.5,182.5C 435.527,184.139 434.194,185.473 432.5,186.5C 425.167,179.5 417.833,172.5 410.5,165.5C 429.235,147.762 448.568,130.762 468.5,114.5 Z" />
    </g>
    <g>
        <path style="opacity:0.994" fill="#ec3237"
            d="M 71.5,140.5 C 72.8221,140.33 73.9887,140.663 75,141.5C 78.1064,157.199 81.273,172.865 84.5,188.5C 72.1121,195.445 59.9454,202.778 48,210.5C 47.5,243.165 47.3334,275.832 47.5,308.5C 47.5,346.5 47.5,384.5 47.5,422.5C 47.3334,435.171 47.5001,447.838 48,460.5C 53.0692,464.418 58.2359,468.085 63.5,471.5C 50.8434,482.158 38.51,493.158 26.5,504.5C 16.8491,499.682 9.68246,492.348 5,482.5C 2.83032,477.154 0.996986,471.821 -0.5,466.5C -0.5,379.5 -0.5,292.5 -0.5,205.5C 2.21881,191.243 9.21881,179.409 20.5,170C 37.2004,159.65 54.2004,149.816 71.5,140.5 Z" />
    </g>
    <g>
        <path style="opacity:0.992" fill="#0083c7"
            d="M 469.5,146.5 C 471.05,147.441 472.716,148.107 474.5,148.5C 488.212,156.045 501.545,164.211 514.5,173C 522.079,179.983 527.245,188.483 530,198.5C 531.477,249.462 531.977,300.462 531.5,351.5C 530.784,349.444 530.117,347.277 529.5,345C 514.626,332.621 499.626,320.454 484.5,308.5C 484.832,275.996 484.498,243.662 483.5,211.5C 481.996,209.164 479.996,207.331 477.5,206C 463.806,198.155 450.139,190.322 436.5,182.5C 447.043,170.079 458.043,158.079 469.5,146.5 Z" />
    </g>
    <g>
        <path style="opacity:0.925" fill="#04aae8"
            d="M 1326.5,170.5 C 1330.78,169.483 1333.11,171.15 1333.5,175.5C 1339.27,179.466 1343.27,177.966 1345.5,171C 1347.85,170.666 1350.18,170.833 1352.5,171.5C 1351.63,180.204 1346.79,184.537 1338,184.5C 1329.18,184.507 1324.34,180.174 1323.5,171.5C 1324.79,171.737 1325.79,171.404 1326.5,170.5 Z" />
    </g>
    <g>
        <path style="opacity:0.995" fill="#e33136"
            d="M 278.5,178.5 C 286.808,190.482 295.141,202.482 303.5,214.5C 289.875,226.31 275.875,237.644 261.5,248.5C 252.166,234.51 242.333,220.843 232,207.5C 231.53,206.423 231.697,205.423 232.5,204.5C 247.501,195.33 262.834,186.664 278.5,178.5 Z" />
    </g>
    <g>
        <path style="opacity:0.972" fill="#babdc4"
            d="M 436.5,182.5 C 450.139,190.322 463.806,198.155 477.5,206C 479.996,207.331 481.996,209.164 483.5,211.5C 483.667,294.501 483.5,377.501 483,460.5C 482.626,461.416 482.126,462.25 481.5,463C 462.607,473.608 443.94,484.441 425.5,495.5C 383.031,519.569 340.698,543.902 298.5,568.5C 288.194,574.321 277.861,580.155 267.5,586C 266.167,586.667 264.833,586.667 263.5,586C 222.607,562.726 181.94,539.226 141.5,515.5C 160.264,493.646 179.264,471.979 198.5,450.5C 212.866,434.802 226.866,418.802 240.5,402.5C 255.546,387.122 269.879,371.122 283.5,354.5C 297.157,339.208 310.824,323.874 324.5,308.5C 360.843,268.156 396.843,227.489 432.5,186.5C 434.194,185.473 435.527,184.139 436.5,182.5 Z M 431.5,198.5 C 434.016,198.755 436.35,199.589 438.5,201C 445.668,205.083 452.668,209.416 459.5,214C 444.537,218.922 429.204,220.922 413.5,220C 420.088,213.253 426.088,206.086 431.5,198.5 Z M 467.5,219.5 C 468.165,222.817 468.499,226.317 468.5,230C 468.456,233.931 467.789,237.598 466.5,241C 441.72,249.905 416.386,252.239 390.5,248C 395.457,241.374 400.791,235.04 406.5,229C 424.126,229.463 441.459,227.463 458.5,223C 461.718,222.1 464.718,220.933 467.5,219.5 Z M 466.5,249.5 C 467.82,252.428 468.486,255.761 468.5,259.5C 468.333,262.833 468.167,266.167 468,269.5C 455.719,274.778 442.886,277.945 429.5,279C 412.355,280.267 395.355,279.267 378.5,276C 375.363,275.399 372.363,274.399 369.5,273C 374.214,267.074 379.047,261.241 384,255.5C 405.477,259.503 426.977,259.336 448.5,255C 454.804,253.764 460.804,251.93 466.5,249.5 Z M 467.5,278.5 C 468.819,285.344 468.819,292.344 467.5,299.5C 431.92,312.624 396.253,312.79 360.5,300C 357.136,298.318 353.802,296.651 350.5,295C 354.702,289.801 359.202,284.968 364,280.5C 390.113,287.796 416.613,289.463 443.5,285.5C 451.957,284.344 459.957,282.01 467.5,278.5 Z M 344.5,301.5 C 373.592,315.776 404.259,320.61 436.5,316C 447.164,314.834 457.498,312.334 467.5,308.5C 468.664,315.142 468.831,321.808 468,328.5C 456.107,333.932 443.607,337.098 430.5,338C 396.131,341.74 364.131,334.74 334.5,317C 333.549,316.282 333.383,315.449 334,314.5C 337.737,310.273 341.237,305.94 344.5,301.5 Z M 326.5,323.5 C 340.353,329.591 354.353,335.424 368.5,341C 396.012,347.518 423.678,348.185 451.5,343C 457.153,341.56 462.653,339.727 468,337.5C 468.831,344.524 468.664,351.524 467.5,358.5C 431.929,371.661 396.262,371.827 360.5,359C 345.405,351.452 330.072,344.452 314.5,338C 318.712,333.293 322.712,328.46 326.5,323.5 Z M 307.5,345.5 C 310.947,345.814 314.28,346.648 317.5,348C 332.595,355.548 347.928,362.548 363.5,369C 398.35,379.39 433.016,378.89 467.5,367.5C 468.664,374.142 468.831,380.808 468,387.5C 456.412,392.772 444.246,395.939 431.5,397C 404.841,399.96 379.174,396.293 354.5,386C 335.684,375.09 315.684,367.257 294.5,362.5C 299.085,356.983 303.418,351.317 307.5,345.5 Z M 286.5,370.5 C 297.523,371.422 308.19,373.922 318.5,378C 332.047,384.607 345.713,390.94 359.5,397C 383.545,405.056 408.212,407.722 433.5,405C 445.478,403.939 456.978,401.106 468,396.5C 468.831,403.524 468.664,410.524 467.5,417.5C 420.95,433.92 376.283,429.753 333.5,405C 313.613,395.445 292.613,390.445 270.5,390C 276.424,383.917 281.757,377.417 286.5,370.5 Z M 245.5,420.5 C 250.912,412.914 256.912,405.747 263.5,399C 280.954,397.979 297.954,400.312 314.5,406C 329.833,413 345.167,420 360.5,427C 396.238,438.473 431.904,438.307 467.5,426.5C 468.497,433.468 468.83,440.468 468.5,447.5C 438.707,457.302 408.374,459.135 377.5,453C 372.106,451.535 366.772,449.869 361.5,448C 349.5,442.333 337.5,436.667 325.5,431C 299.636,421.141 272.969,417.641 245.5,420.5 Z M 215.5,456.5 C 222.265,447.893 229.265,439.393 236.5,431C 267.098,425.229 296.765,428.229 325.5,440C 346.589,452.548 369.256,460.548 393.5,464C 414.032,465.314 434.365,464.314 454.5,461C 441.833,468.333 429.167,475.667 416.5,483C 413.317,485.178 409.817,486.344 406,486.5C 393.234,485.819 380.734,483.653 368.5,480C 352.048,472.941 335.715,465.608 319.5,458C 284.989,447.241 250.322,446.741 215.5,456.5 Z M 253.5,457.5 C 278.093,455.893 301.759,459.727 324.5,469C 341.299,478.487 358.965,485.82 377.5,491C 384.124,492.28 390.79,493.28 397.5,494C 388.271,499.406 378.937,504.572 369.5,509.5C 365.06,508.298 360.726,506.798 356.5,505C 338.488,494.825 319.488,487.159 299.5,482C 277.17,478.683 254.836,478.683 232.5,482C 225.365,483.534 218.365,485.534 211.5,488C 198.958,494.278 186.291,499.944 173.5,505C 183.209,494.294 192.542,483.294 201.5,472C 218.09,464.023 235.423,459.189 253.5,457.5 Z M 248.5,487.5 C 275.168,484.952 300.835,488.786 325.5,499C 336.592,504.88 347.925,510.213 359.5,515C 353.499,519.336 347.166,523.169 340.5,526.5C 302.771,507.76 263.438,503.593 222.5,514C 211.801,517.288 201.468,521.454 191.5,526.5C 184.931,523.27 178.598,519.604 172.5,515.5C 187.038,508.398 201.704,501.565 216.5,495C 227.08,491.52 237.746,489.02 248.5,487.5 Z M 254.5,516.5 C 281.678,514.582 307.344,519.749 331.5,532C 324.353,535.989 317.186,539.822 310,543.5C 289.093,538.757 267.926,537.257 246.5,539C 237.464,540.477 228.464,541.81 219.5,543C 213.5,539.667 207.5,536.333 201.5,533C 200.167,532.333 200.167,531.667 201.5,531C 218.395,522.862 236.062,518.029 254.5,516.5 Z M 248.5,546.5 C 260.171,546.333 271.838,546.5 283.5,547C 289.27,547.462 294.937,548.462 300.5,550C 291.575,554.601 282.908,559.601 274.5,565C 270.106,567.374 265.44,568.041 260.5,567C 250.833,561.333 241.167,555.667 231.5,550C 237.265,548.614 242.931,547.448 248.5,546.5 Z" />
    </g>
    <g>
        <path style="opacity:0.904" fill="#0096d8"
            d="M 854.5,187.5 C 865.167,187.5 875.833,187.5 886.5,187.5C 886.5,190.167 886.5,192.833 886.5,195.5C 878.5,195.5 870.5,195.5 862.5,195.5C 862.5,216.833 862.5,238.167 862.5,259.5C 859.833,259.5 857.167,259.5 854.5,259.5C 854.5,235.5 854.5,211.5 854.5,187.5 Z" />
    </g>
    <g>
        <path style="opacity:0.968" fill="#029bda"
            d="M 1000.5,187.5 C 1003.5,187.5 1006.5,187.5 1009.5,187.5C 1009.5,197.833 1009.5,208.167 1009.5,218.5C 1017.83,218.5 1026.17,218.5 1034.5,218.5C 1034.5,208.167 1034.5,197.833 1034.5,187.5C 1037.5,187.5 1040.5,187.5 1043.5,187.5C 1043.5,211.5 1043.5,235.5 1043.5,259.5C 1040.5,259.5 1037.5,259.5 1034.5,259.5C 1034.5,248.5 1034.5,237.5 1034.5,226.5C 1026.17,226.5 1017.83,226.5 1009.5,226.5C 1009.5,237.5 1009.5,248.5 1009.5,259.5C 1006.55,259.777 1003.72,259.444 1001,258.5C 1000.5,234.836 1000.33,211.169 1000.5,187.5 Z" />
    </g>
    <g>
        <path style="opacity:0.95" fill="#00a2e3"
            d="M 1153.5,187.5 C 1156.17,187.5 1158.83,187.5 1161.5,187.5C 1161.5,196.5 1161.5,205.5 1161.5,214.5C 1186.52,211.777 1195.69,222.777 1189,247.5C 1186.34,253.492 1181.84,257.325 1175.5,259C 1168.45,259.797 1161.45,259.63 1154.5,258.5C 1153.5,234.843 1153.17,211.176 1153.5,187.5 Z M 1166.5,221.5 C 1179.65,222.515 1184.49,229.515 1181,242.5C 1177.25,250.913 1170.75,253.913 1161.5,251.5C 1161.5,241.833 1161.5,232.167 1161.5,222.5C 1163.41,222.784 1165.08,222.451 1166.5,221.5 Z" />
    </g>
    <g>
        <path style="opacity:0.922" fill="#00a9ea"
            d="M 1359.5,187.5 C 1359.5,211.5 1359.5,235.5 1359.5,259.5C 1356.5,259.5 1353.5,259.5 1350.5,259.5C 1350.67,242.497 1350.5,225.497 1350,208.5C 1341.47,225.528 1332.3,242.194 1322.5,258.5C 1320.6,259.466 1318.6,259.799 1316.5,259.5C 1316.5,235.5 1316.5,211.5 1316.5,187.5C 1319.17,187.5 1321.83,187.5 1324.5,187.5C 1324.33,204.837 1324.5,222.17 1325,239.5C 1333.64,222.213 1342.81,205.213 1352.5,188.5C 1354.74,187.526 1357.08,187.192 1359.5,187.5 Z" />
    </g>
    <g>
        <path style="opacity:0.844" fill="#00a5e6"
            d="M 1198.5,187.5 C 1201.5,187.5 1204.5,187.5 1207.5,187.5C 1207.5,197.833 1207.5,208.167 1207.5,218.5C 1215.83,218.5 1224.17,218.5 1232.5,218.5C 1232.5,208.167 1232.5,197.833 1232.5,187.5C 1235.5,187.5 1238.5,187.5 1241.5,187.5C 1241.5,211.5 1241.5,235.5 1241.5,259.5C 1238.5,259.5 1235.5,259.5 1232.5,259.5C 1232.5,248.5 1232.5,237.5 1232.5,226.5C 1224.17,226.5 1215.83,226.5 1207.5,226.5C 1207.5,237.5 1207.5,248.5 1207.5,259.5C 1204.5,259.5 1201.5,259.5 1198.5,259.5C 1198.5,235.5 1198.5,211.5 1198.5,187.5 Z" />
    </g>
    <g>
        <path style="opacity:0.953" fill="#00a6e7"
            d="M 1253.5,187.5 C 1256.17,187.5 1258.83,187.5 1261.5,187.5C 1261.5,196.5 1261.5,205.5 1261.5,214.5C 1266.85,213.222 1272.19,213.389 1277.5,215C 1283.16,217.332 1286.66,221.499 1288,227.5C 1291.77,253.876 1280.6,264.209 1254.5,258.5C 1253.5,234.843 1253.17,211.176 1253.5,187.5 Z M 1265.5,221.5 C 1272.53,220.919 1277.03,223.919 1279,230.5C 1279.67,234.5 1279.67,238.5 1279,242.5C 1276.14,250.851 1270.3,253.851 1261.5,251.5C 1261.5,241.833 1261.5,232.167 1261.5,222.5C 1263.1,222.768 1264.43,222.434 1265.5,221.5 Z" />
    </g>
    <g>
        <path style="opacity:0.934" fill="#0099db"
            d="M 966.5,185.5 C 980.341,186.839 988.174,194.506 990,208.5C 992.025,219.894 991.692,231.227 989,242.5C 982.767,259.527 971.267,264.361 954.5,257C 945.566,247.696 941.899,236.53 943.5,223.5C 942.774,212.849 944.941,202.849 950,193.5C 954.63,188.767 960.13,186.1 966.5,185.5 Z M 962.5,194.5 C 973.654,193.808 979.821,199.142 981,210.5C 983.528,223.274 982.195,235.608 977,247.5C 970.63,254.046 964.296,254.046 958,247.5C 955.34,243.186 953.673,238.519 953,233.5C 952.154,224.447 952.487,215.447 954,206.5C 955.147,201.204 957.98,197.204 962.5,194.5 Z" />
    </g>
    <g>
        <path style="opacity:0.879" fill="#0093d6"
            d="M 810.5,187.5 C 821.5,187.5 832.5,187.5 843.5,187.5C 843.5,190.167 843.5,192.833 843.5,195.5C 835.5,195.5 827.5,195.5 819.5,195.5C 819.5,203.167 819.5,210.833 819.5,218.5C 826.833,218.5 834.167,218.5 841.5,218.5C 841.5,221.167 841.5,223.833 841.5,226.5C 834.167,226.5 826.833,226.5 819.5,226.5C 819.5,234.833 819.5,243.167 819.5,251.5C 827.5,251.5 835.5,251.5 843.5,251.5C 843.5,254.167 843.5,256.833 843.5,259.5C 832.5,259.5 821.5,259.5 810.5,259.5C 810.5,235.5 810.5,211.5 810.5,187.5 Z" />
    </g>
    <g>
        <path style="opacity:0.925" fill="#018dcf"
            d="M 693.5,187.5 C 696.898,187.18 700.232,187.513 703.5,188.5C 708.5,198.5 713.5,208.5 718.5,218.5C 719.325,219.386 720.325,219.719 721.5,219.5C 721.5,208.833 721.5,198.167 721.5,187.5C 724.167,187.5 726.833,187.5 729.5,187.5C 729.168,198.187 729.501,208.854 730.5,219.5C 736.493,209.519 741.993,199.185 747,188.5C 750.409,187.378 753.909,187.211 757.5,188C 751.42,199.495 745.087,210.828 738.5,222C 741.273,224.383 743.439,227.217 745,230.5C 750.393,239.952 755.226,249.619 759.5,259.5C 755.894,259.789 752.394,259.456 749,258.5C 743.411,248.323 738.078,237.99 733,227.5C 731.989,226.663 730.822,226.33 729.5,226.5C 729.5,237.5 729.5,248.5 729.5,259.5C 726.833,259.5 724.167,259.5 721.5,259.5C 721.832,248.147 721.499,236.814 720.5,225.5C 713.842,236.142 707.675,247.142 702,258.5C 698.943,259.451 695.777,259.784 692.5,259.5C 697.726,246.549 704.392,234.382 712.5,223C 704.996,211.828 698.663,199.995 693.5,187.5 Z" />
    </g>
    <g>
        <path style="opacity:0.92" fill="#0090d3"
            d="M 769.5,186.5 C 799.039,184.201 808.539,196.868 798,224.5C 791.317,231.386 783.15,234.052 773.5,232.5C 773.5,241.5 773.5,250.5 773.5,259.5C 770.5,259.5 767.5,259.5 764.5,259.5C 764.5,235.5 764.5,211.5 764.5,187.5C 766.415,187.784 768.081,187.451 769.5,186.5 Z M 773.5,194.5 C 789.941,193.112 796.108,200.445 792,216.5C 787.884,223.495 781.718,226.162 773.5,224.5C 773.5,214.5 773.5,204.5 773.5,194.5 Z" />
    </g>
    <g>
        <path style="opacity:0.995" fill="#dd3135"
            d="M 232.5,204.5 C 231.697,205.423 231.53,206.423 232,207.5C 242.333,220.843 252.166,234.51 261.5,248.5C 250.482,258.181 239.149,267.514 227.5,276.5C 215.256,260.344 203.256,244.011 191.5,227.5C 204.674,219.077 218.34,211.41 232.5,204.5 Z" />
    </g>
    <g>
        <path style="opacity:0.751" fill="#00a8e8"
            d="M 1295.5,187.5 C 1298.5,187.5 1301.5,187.5 1304.5,187.5C 1304.5,211.5 1304.5,235.5 1304.5,259.5C 1301.5,259.5 1298.5,259.5 1295.5,259.5C 1295.5,235.5 1295.5,211.5 1295.5,187.5 Z" />
    </g>
    <g>
        <path style="opacity:0.938" fill="#0097d8"
            d="M 890.5,187.5 C 893.167,187.5 895.833,187.5 898.5,187.5C 898.333,204.837 898.5,222.17 899,239.5C 907.598,221.802 917.098,204.635 927.5,188C 929.473,187.505 931.473,187.338 933.5,187.5C 933.5,211.5 933.5,235.5 933.5,259.5C 930.5,259.5 927.5,259.5 924.5,259.5C 924.667,242.497 924.5,225.497 924,208.5C 915.469,225.528 906.302,242.194 896.5,258.5C 894.604,259.466 892.604,259.799 890.5,259.5C 890.5,235.5 890.5,211.5 890.5,187.5 Z" />
    </g>
    <g>
        <path style="opacity:0.898" fill="#0088cb"
            d="M 590.5,187.5 C 593.247,187.187 595.914,187.52 598.5,188.5C 605.493,201.484 611.66,214.817 617,228.5C 622.451,214.93 628.451,201.596 635,188.5C 637.719,187.556 640.552,187.223 643.5,187.5C 643.5,211.5 643.5,235.5 643.5,259.5C 640.5,259.5 637.5,259.5 634.5,259.5C 634.667,242.497 634.5,225.497 634,208.5C 629.274,219.619 624.274,230.619 619,241.5C 617.506,242.747 616.006,242.747 614.5,241.5C 609.333,230.5 604.167,219.5 599,208.5C 598.5,225.497 598.333,242.497 598.5,259.5C 595.833,259.5 593.167,259.5 590.5,259.5C 590.5,235.5 590.5,211.5 590.5,187.5 Z" />
    </g>
    <g>
        <path style="opacity:0.994" fill="#029adc"
            d="M 410.5,165.5 C 417.833,172.5 425.167,179.5 432.5,186.5C 396.843,227.489 360.843,268.156 324.5,308.5C 322.78,305.269 320.447,302.436 317.5,300C 307.306,291.301 297.306,282.468 287.5,273.5C 327.897,236.803 368.897,200.803 410.5,165.5 Z" />
    </g>
    <g>
        <path style="opacity:0.906" fill="#019edf"
            d="M 1070.5,186.5 C 1072.5,186.5 1074.5,186.5 1076.5,186.5C 1082.69,209.23 1089.19,231.897 1096,254.5C 1096.49,253.207 1096.66,251.873 1096.5,250.5C 1098.47,250.739 1100.3,250.406 1102,249.5C 1103.95,245.716 1105.28,241.716 1106,237.5C 1108.25,220.912 1109.41,204.245 1109.5,187.5C 1120.17,187.5 1130.83,187.5 1141.5,187.5C 1141.5,211.5 1141.5,235.5 1141.5,259.5C 1138.5,259.5 1135.5,259.5 1132.5,259.5C 1132.5,238.167 1132.5,216.833 1132.5,195.5C 1127.5,195.5 1122.5,195.5 1117.5,195.5C 1117.6,213.711 1115.77,231.711 1112,249.5C 1110.79,252.759 1108.96,255.592 1106.5,258C 1100.61,259.576 1094.61,259.909 1088.5,259C 1086.44,252.93 1084.61,246.764 1083,240.5C 1076.58,239.357 1070.08,239.19 1063.5,240C 1061.44,246.07 1059.61,252.236 1058,258.5C 1055.28,259.444 1052.45,259.777 1049.5,259.5C 1056.29,235.115 1063.29,210.782 1070.5,186.5 Z M 1072.5,202.5 C 1074.91,211.968 1077.58,221.468 1080.5,231C 1075.5,231.667 1070.5,231.667 1065.5,231C 1068.96,221.79 1071.29,212.29 1072.5,202.5 Z" />
    </g>
    <g>
        <path style="opacity:0.96" fill="#008bce"
            d="M 655.5,187.5 C 666.167,187.5 676.833,187.5 687.5,187.5C 687.5,190.167 687.5,192.833 687.5,195.5C 679.5,195.5 671.5,195.5 663.5,195.5C 663.5,203.167 663.5,210.833 663.5,218.5C 670.833,218.5 678.167,218.5 685.5,218.5C 685.5,221.167 685.5,223.833 685.5,226.5C 678.167,226.5 670.833,226.5 663.5,226.5C 663.5,234.833 663.5,243.167 663.5,251.5C 671.833,251.5 680.167,251.5 688.5,251.5C 688.5,254.167 688.5,256.833 688.5,259.5C 677.5,259.5 666.5,259.5 655.5,259.5C 655.5,235.5 655.5,211.5 655.5,187.5 Z" />
    </g>
    <g>
        <path style="opacity:0.997" fill="#d73035"
            d="M 191.5,227.5 C 203.256,244.011 215.256,260.344 227.5,276.5C 215.905,286.636 203.905,296.302 191.5,305.5C 178.066,287.49 164.732,269.323 151.5,251C 152.056,250.617 152.389,250.117 152.5,249.5C 165.006,241.41 178.006,234.077 191.5,227.5 Z" />
    </g>
    <g>
        <path style="opacity:0.996" fill="#d13034"
            d="M 152.5,249.5 C 152.389,250.117 152.056,250.617 151.5,251C 164.732,269.323 178.066,287.49 191.5,305.5C 180.39,315.552 168.723,324.885 156.5,333.5C 141.268,313.383 126.268,293.049 111.5,272.5C 124.906,264.441 138.573,256.774 152.5,249.5 Z" />
    </g>
    <g>
        <path style="opacity:0.996" fill="#ca2f33"
            d="M 111.5,272.5 C 126.268,293.049 141.268,313.383 156.5,333.5C 142.875,345.31 128.875,356.644 114.5,367.5C 97.6966,345.183 81.03,322.683 64.5,300C 65.056,299.617 65.3893,299.117 65.5,298.5C 80.5011,289.33 95.8345,280.664 111.5,272.5 Z" />
    </g>
    <g>
        <path style="opacity:0.995" fill="#0192d5"
            d="M 287.5,273.5 C 297.306,282.468 307.306,291.301 317.5,300C 320.447,302.436 322.78,305.269 324.5,308.5C 310.824,323.874 297.157,339.208 283.5,354.5C 268.868,341.869 254.534,328.869 240.5,315.5C 255.561,300.806 271.227,286.806 287.5,273.5 Z" />
    </g>
    <g>
        <path style="opacity:0.944" fill="#e93035"
            d="M 1136.5,282.5 C 1138.17,282.5 1139.83,282.5 1141.5,282.5C 1142.18,289.037 1145.51,291.204 1151.5,289C 1152.97,287.448 1153.97,285.614 1154.5,283.5C 1156.77,282.637 1159.1,282.637 1161.5,283.5C 1161.36,292.643 1156.69,296.976 1147.5,296.5C 1138.49,296.823 1133.49,292.49 1132.5,283.5C 1134.1,283.768 1135.43,283.434 1136.5,282.5 Z" />
    </g>
    <g>
        <path style="opacity:0.953" fill="#eb3136"
            d="M 990.5,298.5 C 995.511,298.334 1000.51,298.501 1005.5,299C 1012.21,299.966 1013.21,303.133 1008.5,308.5C 997.727,303.711 989.56,306.378 984,316.5C 978.9,330.485 979.567,344.152 986,357.5C 992.686,365.19 1000.52,366.524 1009.5,361.5C 1013.08,368.015 1011.08,371.515 1003.5,372C 986.004,374.51 975.837,367.01 973,349.5C 970.737,337.663 971.403,325.996 975,314.5C 977.711,306.624 982.878,301.291 990.5,298.5 Z" />
    </g>
    <g>
        <path style="opacity:1" fill="#c52f33"
            d="M 65.5,298.5 C 65.3893,299.117 65.056,299.617 64.5,300C 81.03,322.683 97.6966,345.183 114.5,367.5C 92.4822,386.181 70.1488,404.515 47.5,422.5C 47.5,384.5 47.5,346.5 47.5,308.5C 53.0054,306.251 58.0054,303.251 62.5,299.5C 63.391,298.89 64.391,298.557 65.5,298.5 Z" />
    </g>
    <g>
        <path style="opacity:0.927" fill="#d72f34"
            d="M 706.5,299.5 C 717.167,299.5 727.833,299.5 738.5,299.5C 738.5,320.833 738.5,342.167 738.5,363.5C 740.833,363.5 743.167,363.5 745.5,363.5C 745.5,370.5 745.5,377.5 745.5,384.5C 743.5,384.5 741.5,384.5 739.5,384.5C 739.261,380.158 738.927,375.824 738.5,371.5C 725.5,371.5 712.5,371.5 699.5,371.5C 699.766,375.571 699.433,379.571 698.5,383.5C 696.604,384.466 694.604,384.799 692.5,384.5C 692.5,377.5 692.5,370.5 692.5,363.5C 694.792,363.756 696.959,363.423 699,362.5C 704.525,341.878 707.025,320.878 706.5,299.5 Z M 714.5,307.5 C 719.5,307.5 724.5,307.5 729.5,307.5C 729.5,326.167 729.5,344.833 729.5,363.5C 722.159,363.666 714.826,363.5 707.5,363C 712.494,344.881 714.827,326.381 714.5,307.5 Z" />
    </g>
    <g>
        <path style="opacity:0.91" fill="#dd3034"
            d="M 753.5,299.5 C 756.5,299.5 759.5,299.5 762.5,299.5C 762.625,317.224 762.458,334.89 762,352.5C 770.81,334.88 780.143,317.546 790,300.5C 792.041,299.577 794.208,299.244 796.5,299.5C 796.5,323.5 796.5,347.5 796.5,371.5C 793.833,371.5 791.167,371.5 788.5,371.5C 788.667,354.163 788.5,336.83 788,319.5C 778.934,336.901 769.434,354.068 759.5,371C 757.527,371.495 755.527,371.662 753.5,371.5C 753.5,347.5 753.5,323.5 753.5,299.5 Z" />
    </g>
    <g>
        <path style="opacity:0.862" fill="#e33035"
            d="M 808.5,299.5 C 811.5,299.5 814.5,299.5 817.5,299.5C 817.5,320.833 817.5,342.167 817.5,363.5C 825.167,363.5 832.833,363.5 840.5,363.5C 840.5,342.167 840.5,320.833 840.5,299.5C 843.5,299.5 846.5,299.5 849.5,299.5C 849.5,320.833 849.5,342.167 849.5,363.5C 851.833,363.5 854.167,363.5 856.5,363.5C 856.5,370.5 856.5,377.5 856.5,384.5C 854.5,384.5 852.5,384.5 850.5,384.5C 850.261,380.158 849.927,375.824 849.5,371.5C 835.833,371.5 822.167,371.5 808.5,371.5C 808.5,347.5 808.5,323.5 808.5,299.5 Z" />
    </g>
    <g>
        <path style="opacity:0.973" fill="#e93136"
            d="M 864.5,299.5 C 867.5,299.5 870.5,299.5 873.5,299.5C 873.611,317.21 873.444,334.877 873,352.5C 881.81,334.88 891.143,317.546 901,300.5C 903.041,299.577 905.208,299.244 907.5,299.5C 907.5,323.5 907.5,347.5 907.5,371.5C 904.833,371.5 902.167,371.5 899.5,371.5C 899.667,354.163 899.5,336.83 899,319.5C 889.934,336.901 880.434,354.068 870.5,371C 868.527,371.495 866.527,371.662 864.5,371.5C 864.5,347.5 864.5,323.5 864.5,299.5 Z" />
    </g>
    <g>
        <path style="opacity:0.993" fill="#ec3136"
            d="M 919.5,299.5 C 922.5,299.5 925.5,299.5 928.5,299.5C 928.5,309.833 928.5,320.167 928.5,330.5C 936.833,330.5 945.167,330.5 953.5,330.5C 953.5,320.167 953.5,309.833 953.5,299.5C 956.167,299.5 958.833,299.5 961.5,299.5C 961.5,323.5 961.5,347.5 961.5,371.5C 958.833,371.5 956.167,371.5 953.5,371.5C 953.5,360.5 953.5,349.5 953.5,338.5C 945.167,338.5 936.833,338.5 928.5,338.5C 928.5,349.5 928.5,360.5 928.5,371.5C 925.5,371.5 922.5,371.5 919.5,371.5C 919.5,347.5 919.5,323.5 919.5,299.5 Z" />
    </g>
    <g>
        <path style="opacity:0.947" fill="#ea3136"
            d="M 1020.5,299.5 C 1023.17,299.5 1025.83,299.5 1028.5,299.5C 1028.33,310.505 1028.5,321.505 1029,332.5C 1030,331.833 1031,331.167 1032,330.5C 1037.58,320.336 1043.41,310.336 1049.5,300.5C 1052.83,299.167 1056.17,299.167 1059.5,300.5C 1052.86,311.79 1045.86,322.79 1038.5,333.5C 1046.75,345.663 1054.75,357.996 1062.5,370.5C 1058.88,371.659 1055.21,371.825 1051.5,371C 1045.21,360.917 1039.04,350.75 1033,340.5C 1031.89,338.963 1030.39,338.297 1028.5,338.5C 1028.5,349.5 1028.5,360.5 1028.5,371.5C 1025.83,371.5 1023.17,371.5 1020.5,371.5C 1020.5,347.5 1020.5,323.5 1020.5,299.5 Z" />
    </g>
    <g>
        <path style="opacity:0.975" fill="#eb3136"
            d="M 1070.5,299.5 C 1073.17,299.5 1075.83,299.5 1078.5,299.5C 1078.33,316.837 1078.5,334.17 1079,351.5C 1088.07,334.099 1097.57,316.932 1107.5,300C 1109.47,299.505 1111.47,299.338 1113.5,299.5C 1113.5,323.5 1113.5,347.5 1113.5,371.5C 1110.5,371.5 1107.5,371.5 1104.5,371.5C 1104.67,354.83 1104.5,338.163 1104,321.5C 1095.27,337.962 1086.27,354.296 1077,370.5C 1074.96,371.423 1072.79,371.756 1070.5,371.5C 1070.5,347.5 1070.5,323.5 1070.5,299.5 Z" />
    </g>
    <g>
        <path style="opacity:0.94" fill="#e83034"
            d="M 1125.5,299.5 C 1128.5,299.5 1131.5,299.5 1134.5,299.5C 1134.6,317.202 1134.43,334.869 1134,352.5C 1142.8,334.911 1152.13,317.578 1162,300.5C 1164.04,299.577 1166.21,299.244 1168.5,299.5C 1168.5,323.5 1168.5,347.5 1168.5,371.5C 1165.5,371.5 1162.5,371.5 1159.5,371.5C 1159.4,353.798 1159.57,336.131 1160,318.5C 1151.2,336.089 1141.87,353.422 1132,370.5C 1129.96,371.423 1127.79,371.756 1125.5,371.5C 1125.5,347.5 1125.5,323.5 1125.5,299.5 Z" />
    </g>
    <g>
        <path style="opacity:0.901" fill="#cd2f33"
            d="M 590.5,299.5 C 593.247,299.187 595.914,299.52 598.5,300.5C 605.487,313.474 611.654,326.807 617,340.5C 622.612,326.999 628.612,313.666 635,300.5C 637.719,299.556 640.552,299.223 643.5,299.5C 643.5,323.5 643.5,347.5 643.5,371.5C 640.5,371.5 637.5,371.5 634.5,371.5C 634.667,354.497 634.5,337.497 634,320.5C 629.274,331.619 624.274,342.619 619,353.5C 617.506,354.747 616.006,354.747 614.5,353.5C 608.787,342.741 603.62,331.741 599,320.5C 598.5,337.497 598.333,354.497 598.5,371.5C 595.833,371.5 593.167,371.5 590.5,371.5C 590.5,347.5 590.5,323.5 590.5,299.5 Z" />
    </g>
    <g>
        <path style="opacity:0.908" fill="#d32f34"
            d="M 655.5,299.5 C 666.167,299.5 676.833,299.5 687.5,299.5C 687.5,302.167 687.5,304.833 687.5,307.5C 679.5,307.5 671.5,307.5 663.5,307.5C 663.5,315.167 663.5,322.833 663.5,330.5C 670.833,330.5 678.167,330.5 685.5,330.5C 685.5,333.167 685.5,335.833 685.5,338.5C 678.167,338.5 670.833,338.5 663.5,338.5C 663.5,346.833 663.5,355.167 663.5,363.5C 671.833,363.5 680.167,363.5 688.5,363.5C 688.5,366.167 688.5,368.833 688.5,371.5C 677.5,371.5 666.5,371.5 655.5,371.5C 655.5,347.5 655.5,323.5 655.5,299.5 Z" />
    </g>
    <g>
        <path style="opacity:0.996" fill="#018ccf"
            d="M 240.5,315.5 C 254.534,328.869 268.868,341.869 283.5,354.5C 269.879,371.122 255.546,387.122 240.5,402.5C 226.326,388.829 211.66,375.662 196.5,363C 194.536,361.549 193.203,359.716 192.5,357.5C 208.198,343.134 224.198,329.134 240.5,315.5 Z" />
    </g>
    <g>
        <path style="opacity:0.998" fill="#008ccf"
            d="M 484.5,308.5 C 499.626,320.454 514.626,332.621 529.5,345C 530.117,347.277 530.784,349.444 531.5,351.5C 531.5,373.5 531.5,395.5 531.5,417.5C 515.65,405.073 499.984,392.406 484.5,379.5C 484.5,355.833 484.5,332.167 484.5,308.5 Z" />
    </g>
    <g>
        <path style="opacity:0.996" fill="#0186c9"
            d="M 192.5,357.5 C 193.203,359.716 194.536,361.549 196.5,363C 211.66,375.662 226.326,388.829 240.5,402.5C 226.866,418.802 212.866,434.802 198.5,450.5C 180.141,433.805 161.808,417.138 143.5,400.5C 159.512,385.823 175.845,371.49 192.5,357.5 Z" />
    </g>
    <g>
        <path style="opacity:0.996" fill="#0182c5"
            d="M 143.5,400.5 C 161.808,417.138 180.141,433.805 198.5,450.5C 179.264,471.979 160.264,493.646 141.5,515.5C 115.698,501.098 90.0312,486.431 64.5,471.5C 68.2452,467.428 71.9118,463.428 75.5,459.5C 98.1667,439.833 120.833,420.167 143.5,400.5 Z" />
    </g>
    <g>
        <path style="opacity:0.995" fill="#0092d5"
            d="M 484.5,379.5 C 499.984,392.406 515.65,405.073 531.5,417.5C 531.667,434.17 531.5,450.837 531,467.5C 530.054,473.171 528.221,478.505 525.5,483.5C 511.894,473.071 498.394,462.405 485,451.5C 484.5,427.502 484.333,403.502 484.5,379.5 Z" />
    </g>
    <g>
        <path style="opacity:0.937" fill="#dd3034"
            d="M 798.5,410.5 C 822.39,409.911 831.223,421.244 825,444.5C 819.058,454.763 810.224,458.763 798.5,456.5C 798.5,465.5 798.5,474.5 798.5,483.5C 795.5,483.5 792.5,483.5 789.5,483.5C 789.167,459.824 789.5,436.157 790.5,412.5C 793.311,411.92 795.977,411.254 798.5,410.5 Z M 800.5,418.5 C 814.692,418.535 820.192,425.535 817,439.5C 813.479,447.677 807.312,450.677 798.5,448.5C 797.898,438.24 798.564,428.24 800.5,418.5 Z" />
    </g>
    <g>
        <path style="opacity:0.823" fill="#d93034"
            d="M 739.5,411.5 C 753.833,411.5 768.167,411.5 782.5,411.5C 782.5,414.167 782.5,416.833 782.5,419.5C 776.833,419.5 771.167,419.5 765.5,419.5C 765.5,440.833 765.5,462.167 765.5,483.5C 762.5,483.5 759.5,483.5 756.5,483.5C 756.5,462.167 756.5,440.833 756.5,419.5C 750.833,419.5 745.167,419.5 739.5,419.5C 739.5,416.833 739.5,414.167 739.5,411.5 Z" />
    </g>
    <g>
        <path style="opacity:0.926" fill="#d32e34"
            d="M 689.5,411.5 C 692.5,411.5 695.5,411.5 698.5,411.5C 698.5,421.833 698.5,432.167 698.5,442.5C 706.833,442.5 715.167,442.5 723.5,442.5C 723.5,432.167 723.5,421.833 723.5,411.5C 726.5,411.5 729.5,411.5 732.5,411.5C 732.5,435.5 732.5,459.5 732.5,483.5C 729.5,483.5 726.5,483.5 723.5,483.5C 723.5,472.5 723.5,461.5 723.5,450.5C 715.167,450.5 706.833,450.5 698.5,450.5C 698.5,461.5 698.5,472.5 698.5,483.5C 695.5,483.5 692.5,483.5 689.5,483.5C 689.5,459.5 689.5,435.5 689.5,411.5 Z" />
    </g>
    <g>
        <path style="opacity:0.875" fill="#cc2f33"
            d="M 646.5,411.5 C 657.172,411.333 667.839,411.5 678.5,412C 679.435,414.381 679.768,416.881 679.5,419.5C 671.5,419.5 663.5,419.5 655.5,419.5C 655.5,427.167 655.5,434.833 655.5,442.5C 662.833,442.5 670.167,442.5 677.5,442.5C 677.5,445.167 677.5,447.833 677.5,450.5C 670.167,450.5 662.833,450.5 655.5,450.5C 655.5,458.833 655.5,467.167 655.5,475.5C 663.5,475.5 671.5,475.5 679.5,475.5C 679.5,478.167 679.5,480.833 679.5,483.5C 668.5,483.5 657.5,483.5 646.5,483.5C 646.5,459.5 646.5,435.5 646.5,411.5 Z" />
    </g>
    <g>
        <path style="opacity:0.876" fill="#c82e32"
            d="M 590.5,411.5 C 593.5,411.5 596.5,411.5 599.5,411.5C 599.5,432.833 599.5,454.167 599.5,475.5C 607.167,475.5 614.833,475.5 622.5,475.5C 622.5,454.167 622.5,432.833 622.5,411.5C 625.5,411.5 628.5,411.5 631.5,411.5C 631.5,432.833 631.5,454.167 631.5,475.5C 633.833,475.5 636.167,475.5 638.5,475.5C 638.5,482.5 638.5,489.5 638.5,496.5C 636.5,496.5 634.5,496.5 632.5,496.5C 632.073,492.176 631.739,487.842 631.5,483.5C 617.833,483.5 604.167,483.5 590.5,483.5C 590.5,459.5 590.5,435.5 590.5,411.5 Z" />
    </g>
    <g>
        <path style="opacity:0.996" fill="#02aded"
            d="M 63.5,471.5 C 63.8333,471.5 64.1667,471.5 64.5,471.5C 90.0312,486.431 115.698,501.098 141.5,515.5C 181.94,539.226 222.607,562.726 263.5,586C 264.833,586.667 266.167,586.667 267.5,586C 277.861,580.155 288.194,574.321 298.5,568.5C 311.793,579.125 324.793,590.125 337.5,601.5C 321.896,610.64 306.23,619.807 290.5,629C 284.873,631.377 279.207,633.21 273.5,634.5C 268.167,634.5 262.833,634.5 257.5,634.5C 249.795,632.981 242.461,630.148 235.5,626C 165.665,585.637 95.9978,545.137 26.5,504.5C 38.51,493.158 50.8434,482.158 63.5,471.5 Z" />
    </g>
    <g>
        <path style="opacity:0.994" fill="#0899da"
            d="M 483.5,211.5 C 484.498,243.662 484.832,275.996 484.5,308.5C 484.5,332.167 484.5,355.833 484.5,379.5C 484.333,403.502 484.5,427.502 485,451.5C 498.394,462.405 511.894,473.071 525.5,483.5C 522.187,490.324 517.521,496.157 511.5,501C 494.941,510.777 478.275,520.277 461.5,529.5C 461.141,527.629 460.141,526.129 458.5,525C 447.167,515.667 435.833,506.333 424.5,497C 425.056,496.617 425.389,496.117 425.5,495.5C 443.94,484.441 462.607,473.608 481.5,463C 482.126,462.25 482.626,461.416 483,460.5C 483.5,377.501 483.667,294.501 483.5,211.5 Z" />
    </g>
    <g>
        <path style="opacity:0.994" fill="#02a3e4"
            d="M 425.5,495.5 C 425.389,496.117 425.056,496.617 424.5,497C 435.833,506.333 447.167,515.667 458.5,525C 460.141,526.129 461.141,527.629 461.5,529.5C 420.53,553.99 379.196,577.99 337.5,601.5C 324.793,590.125 311.793,579.125 298.5,568.5C 340.698,543.902 383.031,519.569 425.5,495.5 Z" />
    </g>
</svg>