<svg width="953" height="933" viewBox="0 0 953 933" fill="none" xmlns="http://www.w3.org/2000/svg">
<mask id="mask0_1_86" style="mask-type:alpha" maskUnits="userSpaceOnUse" x="0" y="0" width="953" height="933">
<path d="M953 466.5C953 724.141 739.664 933 476.5 933C213.336 933 0 724.141 0 466.5C0 208.859 213.336 0 476.5 0C739.664 0 953 208.859 953 466.5Z" fill="#D9D9D9"/>
</mask>
<g mask="url(#mask0_1_86)">
<g filter="url(#filter0_d_1_86)">
<path d="M-215.5 349C-206.491 170.225 -69.1063 286.089 186.5 363.5C304 385.5 463.349 248.792 567 271.5C735.468 308.408 944.336 415.522 1057 374" stroke="#FF2A2A" stroke-width="11"/>
</g>
<g filter="url(#filter1_d_1_86)">
<path d="M-215 413.482C-205.991 234.707 -68.6063 350.571 187 427.982C304.5 449.982 463.849 313.274 567.5 335.982C735.968 372.891 944.836 480.004 1057.5 438.482" stroke="#FF2A2A" stroke-width="11"/>
</g>
<g filter="url(#filter2_d_1_86)">
<path d="M-233 284.482C-223.991 105.707 -86.6063 221.571 169 298.982C286.5 320.982 445.849 184.274 549.5 206.982C717.968 243.891 926.836 351.004 1039.5 309.482" stroke="#FF2A2A" stroke-width="11"/>
</g>
<g filter="url(#filter3_d_1_86)">
<path d="M-233 219.482C-223.991 40.7072 -86.6063 156.571 169 233.982C286.5 255.982 445.849 119.274 549.5 141.982C717.968 178.891 926.836 286.004 1039.5 244.482" stroke="#FF2A2A" stroke-width="11"/>
</g>
<g filter="url(#filter4_d_1_86)">
<path d="M-260 159.482C-250.991 -19.2928 -113.606 96.5713 142 173.982C259.5 195.982 418.849 59.2742 522.5 81.9824C690.968 118.891 899.836 226.004 1012.5 184.482" stroke="#FF2A2A" stroke-width="11"/>
</g>
<g filter="url(#filter5_d_1_86)">
<path d="M-247 94.4824C-237.991 -84.2928 -100.606 31.5713 155 108.982C272.5 130.982 431.849 -5.72582 535.5 16.9824C703.968 53.8907 912.836 161.004 1025.5 119.482" stroke="#FF2A2A" stroke-width="11"/>
</g>
<g filter="url(#filter6_d_1_86)">
<path d="M-188.5 732C-179.491 553.225 -42.1063 669.089 213.5 746.5C331 768.5 490.349 631.792 594 654.5C762.468 691.408 971.336 798.522 1084 757" stroke="#FF2A2A" stroke-width="11"/>
</g>
<g filter="url(#filter7_d_1_86)">
<path d="M-188 796.482C-178.991 617.707 -41.6063 733.571 214 810.982C331.5 832.982 490.849 696.274 594.5 718.982C762.968 755.891 971.836 863.004 1084.5 821.482" stroke="#FF2A2A" stroke-width="11"/>
</g>
<g filter="url(#filter8_d_1_86)">
<path d="M-206 667.482C-196.991 488.707 -59.6063 604.571 196 681.982C313.5 703.982 472.849 567.274 576.5 589.982C744.968 626.891 953.836 734.004 1066.5 692.482" stroke="#FF2A2A" stroke-width="11"/>
</g>
<g filter="url(#filter9_d_1_86)">
<path d="M-206 602.482C-196.991 423.707 -59.6063 539.571 196 616.982C313.5 638.982 472.849 502.274 576.5 524.982C744.968 561.891 953.836 669.004 1066.5 627.482" stroke="#FF2A2A" stroke-width="11"/>
</g>
<g filter="url(#filter10_d_1_86)">
<path d="M-233 542.482C-223.991 363.707 -86.6063 479.571 169 556.982C286.5 578.982 445.849 442.274 549.5 464.982C717.968 501.891 926.836 609.004 1039.5 567.482" stroke="#FF2A2A" stroke-width="11"/>
</g>
<g filter="url(#filter11_d_1_86)">
<path d="M-220 477.482C-210.991 298.707 -73.6063 414.571 182 491.982C299.5 513.982 458.849 377.274 562.5 399.982C730.968 436.891 939.836 544.004 1052.5 502.482" stroke="#FF2A2A" stroke-width="11"/>
</g>
<g filter="url(#filter12_d_1_86)">
<path d="M-179 985.482C-169.991 806.707 -32.6063 922.571 223 999.982C340.5 1021.98 499.849 885.274 603.5 907.982C771.968 944.891 980.836 1052 1093.5 1010.48" stroke="#FF2A2A" stroke-width="11"/>
</g>
<g filter="url(#filter13_d_1_86)">
<path d="M-206 925.482C-196.991 746.707 -59.6063 862.571 196 939.982C313.5 961.982 472.849 825.274 576.5 847.982C744.968 884.891 953.836 992.004 1066.5 950.482" stroke="#FF2A2A" stroke-width="11"/>
</g>
<g filter="url(#filter14_d_1_86)">
<path d="M-193 860.482C-183.991 681.707 -46.6063 797.571 209 874.982C326.5 896.982 485.849 760.274 589.5 782.982C757.968 819.891 966.836 927.004 1079.5 885.482" stroke="#FF2A2A" stroke-width="11"/>
</g>
</g>
<defs>
<filter id="filter0_d_1_86" x="-224.993" y="249.018" width="1287.9" height="147.895" filterUnits="userSpaceOnUse" color-interpolation-filters="sRGB">
<feFlood flood-opacity="0" result="BackgroundImageFix"/>
<feColorMatrix in="SourceAlpha" type="matrix" values="0 0 0 0 0 0 0 0 0 0 0 0 0 0 0 0 0 0 127 0" result="hardAlpha"/>
<feOffset dy="4"/>
<feGaussianBlur stdDeviation="2"/>
<feComposite in2="hardAlpha" operator="out"/>
<feColorMatrix type="matrix" values="0 0 0 0 0 0 0 0 0 0 0 0 0 0 0 0 0 0 0.25 0"/>
<feBlend mode="normal" in2="BackgroundImageFix" result="effect1_dropShadow_1_86"/>
<feBlend mode="normal" in="SourceGraphic" in2="effect1_dropShadow_1_86" result="shape"/>
</filter>
<filter id="filter1_d_1_86" x="-224.493" y="313.5" width="1287.9" height="147.895" filterUnits="userSpaceOnUse" color-interpolation-filters="sRGB">
<feFlood flood-opacity="0" result="BackgroundImageFix"/>
<feColorMatrix in="SourceAlpha" type="matrix" values="0 0 0 0 0 0 0 0 0 0 0 0 0 0 0 0 0 0 127 0" result="hardAlpha"/>
<feOffset dy="4"/>
<feGaussianBlur stdDeviation="2"/>
<feComposite in2="hardAlpha" operator="out"/>
<feColorMatrix type="matrix" values="0 0 0 0 0 0 0 0 0 0 0 0 0 0 0 0 0 0 0.25 0"/>
<feBlend mode="normal" in2="BackgroundImageFix" result="effect1_dropShadow_1_86"/>
<feBlend mode="normal" in="SourceGraphic" in2="effect1_dropShadow_1_86" result="shape"/>
</filter>
<filter id="filter2_d_1_86" x="-242.493" y="184.5" width="1287.9" height="147.895" filterUnits="userSpaceOnUse" color-interpolation-filters="sRGB">
<feFlood flood-opacity="0" result="BackgroundImageFix"/>
<feColorMatrix in="SourceAlpha" type="matrix" values="0 0 0 0 0 0 0 0 0 0 0 0 0 0 0 0 0 0 127 0" result="hardAlpha"/>
<feOffset dy="4"/>
<feGaussianBlur stdDeviation="2"/>
<feComposite in2="hardAlpha" operator="out"/>
<feColorMatrix type="matrix" values="0 0 0 0 0 0 0 0 0 0 0 0 0 0 0 0 0 0 0.25 0"/>
<feBlend mode="normal" in2="BackgroundImageFix" result="effect1_dropShadow_1_86"/>
<feBlend mode="normal" in="SourceGraphic" in2="effect1_dropShadow_1_86" result="shape"/>
</filter>
<filter id="filter3_d_1_86" x="-242.493" y="119.5" width="1287.9" height="147.895" filterUnits="userSpaceOnUse" color-interpolation-filters="sRGB">
<feFlood flood-opacity="0" result="BackgroundImageFix"/>
<feColorMatrix in="SourceAlpha" type="matrix" values="0 0 0 0 0 0 0 0 0 0 0 0 0 0 0 0 0 0 127 0" result="hardAlpha"/>
<feOffset dy="4"/>
<feGaussianBlur stdDeviation="2"/>
<feComposite in2="hardAlpha" operator="out"/>
<feColorMatrix type="matrix" values="0 0 0 0 0 0 0 0 0 0 0 0 0 0 0 0 0 0 0.25 0"/>
<feBlend mode="normal" in2="BackgroundImageFix" result="effect1_dropShadow_1_86"/>
<feBlend mode="normal" in="SourceGraphic" in2="effect1_dropShadow_1_86" result="shape"/>
</filter>
<filter id="filter4_d_1_86" x="-269.493" y="59.5001" width="1287.9" height="147.895" filterUnits="userSpaceOnUse" color-interpolation-filters="sRGB">
<feFlood flood-opacity="0" result="BackgroundImageFix"/>
<feColorMatrix in="SourceAlpha" type="matrix" values="0 0 0 0 0 0 0 0 0 0 0 0 0 0 0 0 0 0 127 0" result="hardAlpha"/>
<feOffset dy="4"/>
<feGaussianBlur stdDeviation="2"/>
<feComposite in2="hardAlpha" operator="out"/>
<feColorMatrix type="matrix" values="0 0 0 0 0 0 0 0 0 0 0 0 0 0 0 0 0 0 0.25 0"/>
<feBlend mode="normal" in2="BackgroundImageFix" result="effect1_dropShadow_1_86"/>
<feBlend mode="normal" in="SourceGraphic" in2="effect1_dropShadow_1_86" result="shape"/>
</filter>
<filter id="filter5_d_1_86" x="-256.493" y="-5.49988" width="1287.9" height="147.895" filterUnits="userSpaceOnUse" color-interpolation-filters="sRGB">
<feFlood flood-opacity="0" result="BackgroundImageFix"/>
<feColorMatrix in="SourceAlpha" type="matrix" values="0 0 0 0 0 0 0 0 0 0 0 0 0 0 0 0 0 0 127 0" result="hardAlpha"/>
<feOffset dy="4"/>
<feGaussianBlur stdDeviation="2"/>
<feComposite in2="hardAlpha" operator="out"/>
<feColorMatrix type="matrix" values="0 0 0 0 0 0 0 0 0 0 0 0 0 0 0 0 0 0 0.25 0"/>
<feBlend mode="normal" in2="BackgroundImageFix" result="effect1_dropShadow_1_86"/>
<feBlend mode="normal" in="SourceGraphic" in2="effect1_dropShadow_1_86" result="shape"/>
</filter>
<filter id="filter6_d_1_86" x="-197.993" y="632.018" width="1287.9" height="147.895" filterUnits="userSpaceOnUse" color-interpolation-filters="sRGB">
<feFlood flood-opacity="0" result="BackgroundImageFix"/>
<feColorMatrix in="SourceAlpha" type="matrix" values="0 0 0 0 0 0 0 0 0 0 0 0 0 0 0 0 0 0 127 0" result="hardAlpha"/>
<feOffset dy="4"/>
<feGaussianBlur stdDeviation="2"/>
<feComposite in2="hardAlpha" operator="out"/>
<feColorMatrix type="matrix" values="0 0 0 0 0 0 0 0 0 0 0 0 0 0 0 0 0 0 0.25 0"/>
<feBlend mode="normal" in2="BackgroundImageFix" result="effect1_dropShadow_1_86"/>
<feBlend mode="normal" in="SourceGraphic" in2="effect1_dropShadow_1_86" result="shape"/>
</filter>
<filter id="filter7_d_1_86" x="-197.493" y="696.5" width="1287.9" height="147.895" filterUnits="userSpaceOnUse" color-interpolation-filters="sRGB">
<feFlood flood-opacity="0" result="BackgroundImageFix"/>
<feColorMatrix in="SourceAlpha" type="matrix" values="0 0 0 0 0 0 0 0 0 0 0 0 0 0 0 0 0 0 127 0" result="hardAlpha"/>
<feOffset dy="4"/>
<feGaussianBlur stdDeviation="2"/>
<feComposite in2="hardAlpha" operator="out"/>
<feColorMatrix type="matrix" values="0 0 0 0 0 0 0 0 0 0 0 0 0 0 0 0 0 0 0.25 0"/>
<feBlend mode="normal" in2="BackgroundImageFix" result="effect1_dropShadow_1_86"/>
<feBlend mode="normal" in="SourceGraphic" in2="effect1_dropShadow_1_86" result="shape"/>
</filter>
<filter id="filter8_d_1_86" x="-215.493" y="567.5" width="1287.9" height="147.895" filterUnits="userSpaceOnUse" color-interpolation-filters="sRGB">
<feFlood flood-opacity="0" result="BackgroundImageFix"/>
<feColorMatrix in="SourceAlpha" type="matrix" values="0 0 0 0 0 0 0 0 0 0 0 0 0 0 0 0 0 0 127 0" result="hardAlpha"/>
<feOffset dy="4"/>
<feGaussianBlur stdDeviation="2"/>
<feComposite in2="hardAlpha" operator="out"/>
<feColorMatrix type="matrix" values="0 0 0 0 0 0 0 0 0 0 0 0 0 0 0 0 0 0 0.25 0"/>
<feBlend mode="normal" in2="BackgroundImageFix" result="effect1_dropShadow_1_86"/>
<feBlend mode="normal" in="SourceGraphic" in2="effect1_dropShadow_1_86" result="shape"/>
</filter>
<filter id="filter9_d_1_86" x="-215.493" y="502.5" width="1287.9" height="147.895" filterUnits="userSpaceOnUse" color-interpolation-filters="sRGB">
<feFlood flood-opacity="0" result="BackgroundImageFix"/>
<feColorMatrix in="SourceAlpha" type="matrix" values="0 0 0 0 0 0 0 0 0 0 0 0 0 0 0 0 0 0 127 0" result="hardAlpha"/>
<feOffset dy="4"/>
<feGaussianBlur stdDeviation="2"/>
<feComposite in2="hardAlpha" operator="out"/>
<feColorMatrix type="matrix" values="0 0 0 0 0 0 0 0 0 0 0 0 0 0 0 0 0 0 0.25 0"/>
<feBlend mode="normal" in2="BackgroundImageFix" result="effect1_dropShadow_1_86"/>
<feBlend mode="normal" in="SourceGraphic" in2="effect1_dropShadow_1_86" result="shape"/>
</filter>
<filter id="filter10_d_1_86" x="-242.493" y="442.5" width="1287.9" height="147.895" filterUnits="userSpaceOnUse" color-interpolation-filters="sRGB">
<feFlood flood-opacity="0" result="BackgroundImageFix"/>
<feColorMatrix in="SourceAlpha" type="matrix" values="0 0 0 0 0 0 0 0 0 0 0 0 0 0 0 0 0 0 127 0" result="hardAlpha"/>
<feOffset dy="4"/>
<feGaussianBlur stdDeviation="2"/>
<feComposite in2="hardAlpha" operator="out"/>
<feColorMatrix type="matrix" values="0 0 0 0 0 0 0 0 0 0 0 0 0 0 0 0 0 0 0.25 0"/>
<feBlend mode="normal" in2="BackgroundImageFix" result="effect1_dropShadow_1_86"/>
<feBlend mode="normal" in="SourceGraphic" in2="effect1_dropShadow_1_86" result="shape"/>
</filter>
<filter id="filter11_d_1_86" x="-229.493" y="377.5" width="1287.9" height="147.895" filterUnits="userSpaceOnUse" color-interpolation-filters="sRGB">
<feFlood flood-opacity="0" result="BackgroundImageFix"/>
<feColorMatrix in="SourceAlpha" type="matrix" values="0 0 0 0 0 0 0 0 0 0 0 0 0 0 0 0 0 0 127 0" result="hardAlpha"/>
<feOffset dy="4"/>
<feGaussianBlur stdDeviation="2"/>
<feComposite in2="hardAlpha" operator="out"/>
<feColorMatrix type="matrix" values="0 0 0 0 0 0 0 0 0 0 0 0 0 0 0 0 0 0 0.25 0"/>
<feBlend mode="normal" in2="BackgroundImageFix" result="effect1_dropShadow_1_86"/>
<feBlend mode="normal" in="SourceGraphic" in2="effect1_dropShadow_1_86" result="shape"/>
</filter>
<filter id="filter12_d_1_86" x="-188.493" y="885.5" width="1287.9" height="147.895" filterUnits="userSpaceOnUse" color-interpolation-filters="sRGB">
<feFlood flood-opacity="0" result="BackgroundImageFix"/>
<feColorMatrix in="SourceAlpha" type="matrix" values="0 0 0 0 0 0 0 0 0 0 0 0 0 0 0 0 0 0 127 0" result="hardAlpha"/>
<feOffset dy="4"/>
<feGaussianBlur stdDeviation="2"/>
<feComposite in2="hardAlpha" operator="out"/>
<feColorMatrix type="matrix" values="0 0 0 0 0 0 0 0 0 0 0 0 0 0 0 0 0 0 0.25 0"/>
<feBlend mode="normal" in2="BackgroundImageFix" result="effect1_dropShadow_1_86"/>
<feBlend mode="normal" in="SourceGraphic" in2="effect1_dropShadow_1_86" result="shape"/>
</filter>
<filter id="filter13_d_1_86" x="-215.493" y="825.5" width="1287.9" height="147.895" filterUnits="userSpaceOnUse" color-interpolation-filters="sRGB">
<feFlood flood-opacity="0" result="BackgroundImageFix"/>
<feColorMatrix in="SourceAlpha" type="matrix" values="0 0 0 0 0 0 0 0 0 0 0 0 0 0 0 0 0 0 127 0" result="hardAlpha"/>
<feOffset dy="4"/>
<feGaussianBlur stdDeviation="2"/>
<feComposite in2="hardAlpha" operator="out"/>
<feColorMatrix type="matrix" values="0 0 0 0 0 0 0 0 0 0 0 0 0 0 0 0 0 0 0.25 0"/>
<feBlend mode="normal" in2="BackgroundImageFix" result="effect1_dropShadow_1_86"/>
<feBlend mode="normal" in="SourceGraphic" in2="effect1_dropShadow_1_86" result="shape"/>
</filter>
<filter id="filter14_d_1_86" x="-202.493" y="760.5" width="1287.9" height="147.895" filterUnits="userSpaceOnUse" color-interpolation-filters="sRGB">
<feFlood flood-opacity="0" result="BackgroundImageFix"/>
<feColorMatrix in="SourceAlpha" type="matrix" values="0 0 0 0 0 0 0 0 0 0 0 0 0 0 0 0 0 0 127 0" result="hardAlpha"/>
<feOffset dy="4"/>
<feGaussianBlur stdDeviation="2"/>
<feComposite in2="hardAlpha" operator="out"/>
<feColorMatrix type="matrix" values="0 0 0 0 0 0 0 0 0 0 0 0 0 0 0 0 0 0 0.25 0"/>
<feBlend mode="normal" in2="BackgroundImageFix" result="effect1_dropShadow_1_86"/>
<feBlend mode="normal" in="SourceGraphic" in2="effect1_dropShadow_1_86" result="shape"/>
</filter>
</defs>
</svg>
