<svg xmlns="http://www.w3.org/2000/svg" xmlns:xlink="http://www.w3.org/1999/xlink" width="1024" height="1024">
	<path fill="transparent" d="M0 -0L1024 0L1024 505.723L1024 516.222L1024 1024L-0 1024L0 519.946L0 502.561L0 -0Z"/>
	<path fill="transparent" d="M0 -0L1024 0L1024 505.723L1024 516.222C1023.03 517.074 1021.68 518.5 1020.43 518.869C1017.83 519.638 1012.92 519.042 1010.09 519.045L980.348 519.045C966.74 519.053 807.853 518.475 806.696 519.32C804.82 520.69 796.38 537.737 794.476 541.181L746.841 627.92L735.685 648.547C733.284 652.956 730.963 658.188 727.444 661.808C726.125 663.099 724.783 664.388 723.073 665.15C720.538 666.28 717.281 666.221 714.75 665.138C712.157 664.029 710.753 662.08 709.614 659.562C706.862 653.483 705.272 646.362 703.098 640.008L684.813 585.13L649.258 481.658L626.038 416.196L617.48 392.554C611.965 401.574 607.648 411.912 602.714 421.317L567.881 488.578L558.371 507.588C556.623 511.13 555.012 514.941 552.976 518.319C551.967 519.993 550.593 521.563 548.817 522.439C546.428 523.616 544.692 523.624 542.243 522.645C540.704 522.03 539.343 520.973 538.489 519.538C536.355 515.949 534.965 511.516 533.27 507.661L519.921 476.869L497.547 426.311L483.818 396.039L475.415 434.567L462.036 497.5L438.526 611.25L423.435 685.398L417.558 715L415.723 724.852C415.398 726.631 415.15 728.896 414.206 730.459C413.142 732.222 411.286 733.332 409.311 733.777C406.805 734.342 404.551 734.012 402.449 732.511C400.165 730.88 399.641 728.559 399.24 725.945L394.564 689.962L387.106 635.9L349.3 358.25L334.413 247.607L326.664 191.404C324.023 200.867 322.823 210.862 320.888 220.5L295.824 351.239L285.847 403.015L271.219 482.493L265.536 513C265.189 514.559 264.745 515.985 263.68 517.215C262.103 519.036 259.185 520.463 256.75 520.464C252.868 520.466 250.068 517.944 247.557 515.317L201.755 440.267L166.117 487.743L152.431 505.804C149.663 509.441 146.967 513.357 143.835 516.677C142.638 517.946 141.164 518.862 139.689 519.772L0 519.946L0 502.561L0 -0Z"/>
	<path fill="#b72a38" d="M0 502.561L106.546 502.549L126.884 502.503C128.414 502.499 131.733 502.903 133.083 502.481C133.696 502.289 163.918 461.836 166.438 458.516L186.25 432.058C190.002 427.013 194.278 419.132 199.25 415.447C200.825 414.28 202.664 414.205 204.551 414.541C206.228 414.84 207.772 415.869 208.855 417.159C210.525 419.147 211.707 421.744 212.978 424L218.861 434.171L240.25 469.995C243.947 476.263 247.265 483.112 251.39 489.077L251.729 489.557L247.557 515.317L201.755 440.267L166.117 487.743L152.431 505.804C149.663 509.441 146.967 513.357 143.835 516.677C142.638 517.946 141.164 518.862 139.689 519.772L0 519.946L0 502.561Z"/>
	<path fill="#b72a38" d="M721.102 637.621C723.043 634.713 724.47 631.216 726.081 628.101L733.58 614.438L778.869 531.105L787.058 516.167C789.044 512.446 791.045 508.068 793.955 504.961C795.811 502.98 798.67 502.481 801.25 502.439L955.423 502.507L998.233 502.546C1004.93 502.515 1012.69 501.719 1019.25 502.519C1021.2 502.757 1022.67 504.424 1024 505.723L1024 516.222C1023.03 517.074 1021.68 518.5 1020.43 518.869C1017.83 519.638 1012.92 519.042 1010.09 519.045L980.348 519.045C966.74 519.053 807.853 518.475 806.696 519.32C804.82 520.69 796.38 537.737 794.476 541.181L746.841 627.92L735.685 648.547C733.284 652.956 730.963 658.188 727.444 661.808L727.476 661.367L727.504 660.632C727.831 653.391 723.476 644.498 721.102 637.621Z"/>
	<path fill="#b72a38" d="M251.729 489.557L264.128 422.19L303.867 213.5L313.918 160.771C315.811 150.117 317.071 138.932 319.899 128.5C320.508 126.254 321.354 124.55 323.399 123.308C325.708 121.907 328.871 121.589 331.452 122.348C333.71 123.013 335.572 124.419 336.652 126.53C338.358 129.861 338.446 135.078 338.888 138.824L341.451 160.876L348.748 218.911L362.759 323.453L382.046 470.998L390.815 531.676L403.353 620.921L407.459 649.808C408.105 654.375 408.308 659.469 409.481 663.904L425.594 584.182L452.462 456.234L465.718 394.566C467.408 387.069 468.561 378.422 471.107 371.25C471.891 369.043 473.081 367.358 475 365.996C477.532 364.198 480.683 363.424 483.75 363.997C486.757 364.559 489.288 365.867 490.937 368.5C493.321 372.307 494.977 376.963 496.854 381.064L511.277 413.401L546.158 492.224L591.011 404.613L604.368 378.546C606.329 374.757 608.169 370.334 610.612 366.851C611.905 365.007 613.745 363.274 615.944 362.604C618.589 361.797 621.782 362.265 624.18 363.602C625.645 364.418 626.953 365.464 627.688 367.005C629.177 370.125 630.098 373.679 631.214 376.956L636.286 390.989L657.158 450.276L705.514 591L721.102 637.621C723.476 644.498 727.831 653.391 727.504 660.632L727.476 661.367L727.444 661.808C726.125 663.099 724.783 664.388 723.073 665.15C720.538 666.28 717.281 666.221 714.75 665.138C712.157 664.029 710.753 662.08 709.614 659.562C706.862 653.483 705.272 646.362 703.098 640.008L684.813 585.13L649.258 481.658L626.038 416.196L617.48 392.554C611.965 401.574 607.648 411.912 602.714 421.317L567.881 488.578L558.371 507.588C556.623 511.13 555.012 514.941 552.976 518.319C551.967 519.993 550.593 521.563 548.817 522.439C546.428 523.616 544.692 523.624 542.243 522.645C540.704 522.03 539.343 520.973 538.489 519.538C536.355 515.949 534.965 511.516 533.27 507.661L519.921 476.869L497.547 426.311L483.818 396.039L475.415 434.567L462.036 497.5L438.526 611.25L423.435 685.398L417.558 715L415.723 724.852C415.398 726.631 415.15 728.896 414.206 730.459C413.142 732.222 411.286 733.332 409.311 733.777C406.805 734.342 404.551 734.012 402.449 732.511C400.165 730.88 399.641 728.559 399.24 725.945L394.564 689.962L387.106 635.9L349.3 358.25L334.413 247.607L326.664 191.404C324.023 200.867 322.823 210.862 320.888 220.5L295.824 351.239L285.847 403.015L271.219 482.493L265.536 513C265.189 514.559 264.745 515.985 263.68 517.215C262.103 519.036 259.185 520.463 256.75 520.464C252.868 520.466 250.068 517.944 247.557 515.317L251.729 489.557Z"/>
</svg>
