<svg xmlns="http://www.w3.org/2000/svg" xmlns:xlink="http://www.w3.org/1999/xlink" width="1024"
	height="1024">
	<path fill="transparent" d="M0 0L0 1024L1024 1024L1024 0L0 0Z" />
	<path fill='#CCCCCC'
		d="M427.079 605.013C434.682 615.967 439.709 629.101 442.57 642.07C448.43 668.639 441.521 697.798 426.856 720.421C417.528 734.81 404.127 748.49 388.781 756.421C380.766 760.564 371.901 763.25 363.093 765.104C353.677 767.086 343.722 767.416 334.145 766.981C298.76 765.372 265.922 750.861 236.708 731.597C221.495 721.566 208.587 710.171 196.488 696.567C179.875 677.888 167.796 658.363 162.837 633.559C159.126 614.994 160.583 595.161 163.917 576.664C165.564 567.523 167.615 558.269 170.686 549.493C177.349 530.453 186.909 513.394 196.904 495.994L255.274 404.565L247.191 400.452C225.113 431.747 203.022 462.768 184.505 496.394L171.133 523.356C162.747 541.07 154.81 560.165 151.191 579.543C146.454 604.903 146.705 635.012 157.706 658.75C161.373 666.663 166.377 673.665 171.291 680.829C182.479 697.143 196.614 710.672 211.837 723.165C240.182 746.426 272.911 766.197 309.435 772.835C340.555 778.492 375.511 775.158 401.968 756.558C425.927 739.714 442.598 711.852 447.434 683.152C449.478 671.021 450.138 658.457 448.359 646.257C445.608 627.382 436.844 609.02 425.799 593.651C403.408 562.495 366.838 547.196 329.955 541.193C292.18 535.045 254.209 538.447 218.115 551.062C203.357 556.22 189.631 562.394 176.927 571.554L180.911 559.193C203.833 546.439 229.31 538.314 255.331 534.936C297.702 529.435 341.432 533.126 379.772 553.133C392.305 559.673 404.384 568.245 415.575 576.866C436.552 593.024 451.962 612.561 459.211 638.399C462.8 651.192 464.382 664.357 466.084 677.5C469.231 652.132 464.47 627.626 451.286 605.625C427.393 565.753 387.723 543.869 343.671 532.793C302.298 522.391 255.697 526.092 215.173 538.253C204.603 541.425 194.057 544.827 184.539 550.488C185.441 547.897 186.216 544.349 187.769 542.117C208.69 533.972 230.246 527.787 252.476 524.492C300.242 517.414 350.489 523.149 393.528 545.801C400.92 549.691 408.096 553.607 414.806 558.629C444.781 581.061 467.208 611.366 472.635 649.095C477.394 682.181 467.622 718.372 447.552 744.979C426.708 772.613 397.745 788.261 363.618 792.954C310.947 800.196 259.536 779.463 218.007 748.08C203.908 737.426 190.764 725.182 179.442 711.613C176.332 707.887 173.062 704.176 170.325 700.164C164.255 691.264 159.715 681.565 155.681 671.615C150.023 657.656 145.89 644.221 143.802 629.285C139.388 633.016 135.326 637.848 131.474 642.156C115.383 660.151 102.602 678.996 94.7191 702.052C82.7396 737.087 87.8231 777.529 103.936 810.5C129.356 862.517 173.653 908.78 229.326 927.768C275.698 943.584 328.89 937.007 372.34 915.44C397.406 902.998 420.041 886.728 439.237 866.293C478.497 824.499 501.176 770.311 520.043 716.987L535.559 672.386L545.41 640.367L524.513 625.24C501.815 606.138 483.17 581.346 473.425 553.125C469.269 541.09 466.752 527.582 465.681 514.868C463.505 489.029 467.833 464.769 473.717 439.722C475.971 430.129 478.827 420.465 480.077 410.688C480.91 404.171 481.156 397.496 481.118 390.928C481.09 386.108 480.016 380.518 481.203 375.842C482.43 371.009 486.037 368.187 489.405 364.809C491.006 363.202 492.955 361.586 493.457 359.265C494.703 353.502 495.009 347.34 495.828 341.481L501.56 304.313C511.49 247.418 524.203 188.709 546.665 135.314C551.826 123.046 557.276 110.648 564.11 99.2046C569.409 90.3319 575.964 81.8017 582.665 73.9342C604.888 47.8439 634.473 31.469 668.758 28.7045C678.814 27.8982 688.815 28.9359 698.75 30.45C719.863 33.668 741.207 40.0216 761.006 48.0411C763.704 47.023 766.468 45.9786 769.349 45.6372C776.047 44.8435 783.14 45.8943 789.75 46.9844C809.723 50.2782 830.277 56.7945 848.75 65.0937C859.55 69.9456 870.884 76.0867 879.299 84.5037C881.964 87.1688 884.461 89.9122 885.776 93.5071C886.212 94.6979 897.553 98.681 899.996 99.7148C910.757 104.27 920.994 109.442 931.266 114.995C943.607 121.666 956.095 129.103 966.208 138.933C986.1 158.268 993.554 181.277 990.36 208.697C988.396 225.566 982.688 242.036 975.623 257.409C964.007 282.68 948.228 306.82 932.867 329.96L840.501 455.246L824.495 475L819.559 480.575C819.269 480.897 818.091 481.994 817.978 482.321C817.829 482.749 817.999 483.227 818.003 483.68C818.024 486.243 817.845 488.014 816.384 490.216C812.752 495.69 807.531 500.565 803.387 505.73L784.25 531.563C762.854 561.244 744.793 593.017 718.854 619.25C697.256 641.092 669.18 659.411 639 666.346C626.64 669.186 614.459 670.088 601.816 670.191C598.047 683.492 592.696 696.604 587.815 709.537C572.717 749.542 555.475 789.072 533.792 825.998C503.198 878.099 463.577 927.395 410.767 958.29C391.353 969.648 368.87 978.629 347.1 984.257C286.931 999.81 224.783 993.062 171.031 961.264C142.896 944.62 118.516 921.548 98.1458 896.151C73.0846 864.905 53.2507 829.851 43.3676 790.804C39.1972 774.327 37.4176 757.717 37.4478 740.749C37.4816 721.728 39.9454 702.495 45.4432 684.248C56.4385 647.755 78.9357 616.185 107.37 591.184C116.935 582.775 126.962 575.029 137.497 567.877L146.388 562.385C147.268 561.882 149.617 560.938 150.224 560.234C151.101 559.216 151.897 555.867 152.355 554.523L157.085 541.49C163.303 525.878 170.671 510.461 178.486 495.584C191.388 471.023 206.92 447.263 222.31 424.205C228.825 414.444 235.984 404.99 242.003 394.926C240.654 392.966 239.262 391.072 238.845 388.68C238.377 385.996 238.677 383.549 239.696 381.031C242.351 374.474 247.172 368.257 251.081 362.36L264.189 342.191C261.87 339.413 259.778 336.113 257.956 332.988C247.587 315.196 243.558 293.618 248.854 273.555C254.126 253.58 268.626 234.932 286.5 224.688C306.112 213.449 329.071 211.198 350.696 217.125C371.358 222.788 391.203 238.493 401.724 257.176C410.969 273.596 413.932 294.271 408.79 312.488C402.684 334.119 388.913 351.657 369.295 362.642C351.13 372.815 329.621 375.393 309.578 369.753L291.272 396.123C288.34 400.233 285.294 405.363 281.496 408.692C276.699 412.896 271.499 412.683 265.551 412.416C232.653 454.816 201.543 500.502 182.329 550.952C179.582 558.167 176.424 565.284 174.776 572.848C171.685 587.034 171.599 600.733 173.033 615.112C175.232 637.155 181.011 657.75 193.092 676.507C211.876 705.671 240.839 729.458 271.84 744.684C283.924 750.619 296.488 755.451 309.691 758.226C336.938 763.954 368.016 763.878 392.058 747.956C411.975 734.767 423.884 712.964 428.551 689.904C432.878 668.522 428.547 646.075 416.408 627.992C396.783 598.758 364.038 581.17 329.994 574.561C288.416 566.488 243.911 571.078 205.669 589.705C194.613 595.09 184.416 601.837 174.227 608.676L174.504 592.178C181.086 588.409 187.308 584.04 194.033 580.523C206.547 573.979 220.07 568.057 233.619 564.029C261.435 555.761 291.092 554.281 319.772 558.266C354.807 563.133 392.822 577.549 414.774 606.722C430.346 627.415 438.634 655.407 435.14 681.287C434.574 685.48 433.8 689.774 432.692 693.863C431.838 697.012 430.538 699.998 430.091 703.25L430.561 703.02C433.929 695.484 436.62 687.757 438.391 679.681C443.189 657.812 443.288 638.273 430.736 618.905C409.904 586.762 371.299 565.783 334.5 558.154C287.629 548.438 240.157 554.107 197.717 576.511C189.733 580.726 182.09 585.852 174.522 590.771L176.671 576.48C186.328 572.125 195.143 565.921 204.914 561.561C243.386 544.395 286.509 538.362 328.057 546.083C366.372 553.204 404.563 572.33 427.079 605.013ZM291.727 230.392C280.89 231.957 270.885 242.285 264.642 250.664C253.925 265.048 249.977 282.48 252.611 300.153C254.698 314.156 262.008 327.265 271.379 337.693L273.25 339.042C274.691 338.709 275.695 337.151 276.643 336.085C263.976 321.841 257.472 305.181 258.509 285.965C259.486 267.849 269.542 248.409 283.153 236.54L291.727 230.392L291.998 230.126L291.727 230.392ZM382.116 244.069L382.371 244.224C385.314 248.625 388.346 253.002 390.75 257.729C398.342 272.655 400.491 287.915 397.173 304.323C393.786 321.065 382.197 337.481 367.934 346.758C350.73 357.947 332.337 359.096 312.75 354.964C312.012 355.936 311.251 356.751 311.078 358C312.679 358.934 314.589 359.294 316.373 359.762C330.136 362.536 344.337 361.972 357.61 357.254C375.759 350.802 391.025 337.671 399.25 320.208C406.702 304.387 407.871 286.032 401.802 269.562C398.302 260.063 391.991 248.699 382.371 244.224L382.116 244.069ZM467.893 838.222L467.628 838.497L467.893 838.222C468.829 837.399 469.649 836.487 470.424 835.51C478.19 825.73 484.809 814.884 491.176 804.158C513.871 765.918 530.519 724.133 544.153 681.898L563.318 618.989C565.857 611.147 568.167 603.298 571.556 595.771C572.604 593.442 575.374 589.087 575.124 586.655L574.395 586.75C572.433 592.121 570.425 596.988 567.602 602C564.706 607.142 561.28 611.878 559.255 617.479L541.159 673.893L504.745 768.504C498.309 783.16 490.91 797.562 483.043 811.5L473.434 827.773C471.45 831.097 469.049 834.512 467.893 838.222ZM672.267 33.7095C662.801 34.3752 653.292 35.4988 644.163 38.2083C621.138 45.0423 601.55 60.2259 586.006 78.1776C570.73 95.8195 560.838 115.963 551.983 137.345C543.508 157.809 536.7 178.315 530.675 199.63C515.891 251.924 505.806 304.917 499.501 358.873L506.293 357.996L519.622 279.835C525.644 248.385 533.815 217.357 543.509 186.84C553.206 156.314 563.86 125.495 581.828 98.6938C592.394 82.9315 605.795 68.9689 621.562 58.359C649.336 39.671 682.084 37.8095 714.003 44.1512L753.732 55.6154L756.583 52.0049C730.281 42.5135 700.537 32.411 672.267 33.7095ZM770.929 51.1543C766.809 51.9272 762.478 52.986 759.951 56.654C757.905 59.6247 757.234 64.3457 758.045 67.8583C759.939 76.0644 784.753 92.5246 792.069 96.6382L802.825 101.955L804.754 96.6286C809.341 84.4281 814.167 71.6474 821.809 61.0037C806.271 55.4402 787.592 50.1412 770.929 51.1543ZM674.392 51.7112C667.48 52.293 660.786 52.9814 654.061 54.7674C631.923 60.6467 614.23 74.9265 599.645 92.0845C585.83 108.337 575.901 127.509 567.651 147.063C557.187 171.862 549.426 197.54 542.434 223.5C533.357 257.198 525.664 291.563 520.259 326.053L516.519 349.93C515.997 353.206 514.65 358.042 515.062 361.224L515.191 361.81C516.565 362.518 517.859 363.116 519.332 363.589L532.029 289.109L549.484 214.433C559.756 176.205 572.3 136.641 595.25 103.936C604.745 90.4043 615.949 78.2099 629.827 69.0749C655.422 52.2268 683.858 53.3674 712.614 59.445L731.397 63.9762L744.13 67.8587C745.809 68.3927 748.095 69.5158 749.807 69.25C749.936 67.8487 750.151 67.2674 749.5 65.9931C745.249 63.8677 740.407 62.6314 735.874 61.2239C716.176 55.1079 695.094 50.8616 674.392 51.7112ZM671.867 60.7119C665.92 61.2039 660.195 61.878 654.428 63.4821C635.784 68.6686 620.646 80.4102 608.259 94.9418C589.172 117.332 577.307 145.439 567.631 172.909C553.805 212.16 544.481 253.213 536.486 294L524.281 365.374C523.82 368.869 524.504 372.382 524.912 375.855L527.089 394.071L529.349 425.966C530.054 447.936 525.345 469.183 523.985 491C522.475 515.218 526.666 540.252 541.896 559.818C548.767 568.645 557.16 576.562 566.494 582.738L567.026 582.368C569.655 580.575 571.499 579.969 574.75 580.516C577.371 580.957 578.818 582.622 580.142 584.749C580.469 585.274 580.795 585.655 581.25 586.072L582.125 585.768C584.079 585.145 585.638 585.856 587.315 586.851C588.596 587.612 589.498 588.515 590 589.946C591.336 589.843 590.565 589.97 591.844 589.602C594.167 588.933 598.05 589.16 600.138 590.515C601.919 591.671 602.926 593.71 604.755 594.783C608.858 593.603 613.143 591.912 617.152 594.233C619.516 595.603 621.718 597.684 622.329 600.435L622.529 601.5L622.832 602.783C650.772 600.167 676.287 585.6 694.079 564.197L722.291 522.872C737.014 504.101 753.439 489.659 773.316 476.498C775.826 474.836 778.564 473.615 781.047 471.991C783.813 470.182 785.511 466.399 788.98 465.774C789.931 465.602 790.825 465.803 791.75 465.991C835.201 414.653 876.721 361.718 912.96 305C928.107 281.293 943.937 256.085 953.044 229.322C957 217.696 959.348 205.692 958.374 193.362C957.091 177.118 949.386 163.397 936.913 153.038C918.885 138.067 895.41 129.261 873.667 121.214C859.35 125.226 846.434 122.888 832.211 119.494C811.756 114.614 790.908 106.503 772.57 96.1692C765.938 92.4321 757.444 88.1015 752.537 82.2424C751.304 80.7715 750.407 79.046 749.608 77.3111C749.431 76.9286 748.841 75.2061 748.565 74.9522C747.672 74.1316 743.296 73.0837 741.936 72.6136C724.794 66.6868 705.999 62.3013 687.894 60.9639C682.776 60.5858 676.98 60.0553 671.867 60.7119ZM825.361 62.1662C817.095 75.2395 813.422 90.2018 807.452 104.285C818.694 108.886 829.905 112.076 841.851 114.196C848.715 115.414 856.138 116.522 863.114 115.802C869.672 115.207 873.89 113.137 878.158 107.982C880.559 105.08 881.285 102.676 880.896 98.8816C880.294 93.0197 875.07 88.4327 870.667 84.974C860.631 77.0898 848.953 70.7883 837.109 66.155C833.389 64.6997 829.265 62.9235 825.361 62.1662ZM886.251 100.049C886.275 100.97 886.083 103.581 886.685 104.159C888.028 105.45 890.967 106.209 892.713 106.958L905.485 112.694C938.352 127.931 977.949 148.521 981.802 188.831C983.564 207.256 977.906 225.955 970.99 242.807C963.376 261.359 953.098 279.009 942.607 296.062L898.958 361.152L881.206 386.674L840.821 439.157L812.449 474.097C812.017 474.616 810.94 475.011 811.152 475.652C811.299 476.093 813.684 478.067 814.14 478.502L814.869 478.623L854.267 429.89L933.501 319.5C948.553 296.581 964.085 272.678 974.53 247.23C982.11 228.763 987.916 207.195 985.609 187.059C983.095 165.109 970.808 148.435 953.75 135.129C939.979 124.387 923.597 115.906 907.663 108.864C900.59 105.738 893.581 102.542 886.251 100.049ZM881.339 113.612L877.874 117.144C890.464 121.91 902.776 127.089 914.767 133.235C932.679 142.416 950.31 153.849 958.778 172.898C967.923 193.468 962.845 218.225 954.963 238.255C947.97 256.024 938.598 272.658 928.727 288.96L891.986 344.925L826.412 431.5L796.568 467.659L801.825 469.456L803.75 470.061L821.088 448.63L867.779 388.345C891.406 356.504 914.668 324.03 934.826 289.855C943.341 275.419 951.803 260.472 958.235 244.972C965.03 228.596 970.305 211.607 968.964 193.662C967.592 175.288 957.568 158.649 943.676 146.873C935.077 139.584 924.507 133.621 914.508 128.448C903.74 122.877 892.761 117.698 881.339 113.612ZM321.967 231.201C304.244 232.745 287.933 240.171 276.467 254.015C266.428 266.136 261.449 282.207 263.053 297.831C264.405 311.007 270.167 323.747 278.505 333.965C282.852 328.023 287.705 322.105 290.322 315.161C287.662 309.907 284.529 304.611 282.467 299.096C278.774 289.221 278.32 277.977 281.582 267.912C285.313 256.401 293.701 246.22 304.524 240.722C317.688 234.033 333.013 233.272 347.002 237.847C359.868 242.055 371.967 251.156 378.199 263.381L380.87 269.249C384.787 280.96 384.595 293.587 379.058 304.802C373.146 316.775 362.713 325.129 350.166 329.265C346.243 330.559 342.387 331.207 338.3 331.729C334.425 332.224 330.509 331.485 326.711 331.996L326.568 332.438C325.535 335.437 323.534 338.01 321.753 340.601C319.278 344.204 316.841 347.83 314.817 351.711C332.259 356.167 350.41 353.494 365.908 344.209C379.085 336.316 389.42 321.664 392.966 306.75C396.321 292.64 392.598 275.511 385.043 263.287C375.56 247.944 359.005 236.565 341.5 232.561C335.273 231.136 328.328 230.516 321.967 231.201ZM328.093 238.716C314.491 239.754 302.464 244.032 293.334 254.649C286.37 262.748 282.689 274.29 283.615 284.93C284.77 298.211 291.388 308.256 301.5 316.626C310.682 324.226 322.706 328.015 334.565 327.737C347.283 327.113 359.404 322.601 368.131 313.026C375.483 304.96 380.005 293.998 379.415 283.002C378.752 270.621 373.357 260.015 364.129 251.771C354.165 242.869 341.346 238.691 328.093 238.716ZM290.787 317.209C289.082 320.307 287.382 323.39 285.328 326.273L277.25 337.255C275.843 339.138 274.124 340.977 273.424 343.25C273.771 344.435 273.842 344.994 274.646 345.949L275.415 345.655L292.951 323.046L290.787 317.209ZM303.985 325.946C306.313 328.086 309.362 331.832 312.75 331.496L313.749 331.347C311.484 328.425 307.326 327.214 303.985 325.946ZM293.556 327.343L247.866 389.547C249.178 391.026 250.367 392.386 252 393.514C253.236 393.182 252.73 393.476 253.57 392.726L285.346 352.827C290.648 345.93 296.407 339.06 301.036 331.705L293.556 327.343ZM313.132 337.009L302.269 351.323C300.511 353.855 298.598 356.317 297.571 359.25C298.232 361.258 299.272 361.979 301.163 362.938L303.697 364.144L314.844 346.566C316.354 344.127 318.516 341.384 319.408 338.703L318.913 338.648C316.838 338.388 315.072 337.763 313.132 337.009ZM503.922 363.561L495.331 366.506C494.851 369.568 494.484 372.165 495.009 375.257L506.006 377.659C509.223 378.32 512.767 378.798 515.634 380.485C519.199 402.927 519.84 426.553 518.121 449.177C516.948 464.622 514.586 480.01 513.993 495.5C512.505 534.405 525.678 561.037 557.155 584.079C558.55 585.01 560.438 586.674 562.141 586.75C561.27 584.52 554.068 580.079 551.992 578.191C547.772 574.354 543.607 570.194 539.898 565.861C534.059 559.041 529.388 551.067 526.027 542.75C520.852 529.939 518.213 516.518 518.054 502.713C517.802 480.766 523.027 459.299 523.844 437.442C524.575 417.88 522.14 398.624 520.07 379.226C519.885 377.498 519.706 372.064 518.591 370.791C516.364 368.249 510.866 365.475 507.795 364.11C506.504 363.536 505.312 363.542 503.922 363.561ZM302.136 364.955C298.481 367.54 295.894 372.304 293.312 375.935L273.451 405L273.485 406.089C274.838 405.241 275.991 404.348 277.018 403.115C281.886 397.274 285.851 390.204 290.12 383.889C294.144 377.936 298.807 372.149 302.335 365.899L302.136 364.955ZM489.128 371.838C486.144 376.282 485.994 380.071 486.465 385.25L487.461 385.659C489.275 383.647 490.669 382.45 490.45 379.5L489.128 371.838ZM501.172 381.28C499.785 407.755 492.94 433.872 488.915 460.029C481.678 507.06 487.81 555.6 520.718 592.152C526.561 598.641 532.852 604.836 539.53 610.464C542.93 613.329 546.301 616.208 550.217 618.352L551.946 618.4C553.646 615.785 554.242 612.27 555.288 609.317C556.062 607.134 557.321 604.94 557.703 602.663C553.5 600.008 549.074 597.443 545.186 594.343C526.476 579.428 514.478 559.429 509.162 536.193C502.615 507.569 510.288 477.422 512.317 448.633C513.834 427.104 513.235 404.64 511.265 383.162C507.956 382.445 504.549 381.515 501.172 381.28ZM498.182 381.771C496.819 383.537 495.915 385.283 495.246 387.406C492.213 397.013 491.087 407.453 488.957 417.321C484.464 438.131 478.746 459.195 476.794 480.423C475.511 494.377 475.548 508.416 477.305 522.33C479.115 536.672 483.03 551.675 489.08 564.821C499.102 586.598 516.065 606.576 534.998 621.191L547.231 629.603L548.474 629.885C549.67 627.983 550.012 625.554 550.535 623.387C545.311 619.737 539.832 616.688 534.859 612.653C507.6 590.539 489.952 559.358 483.71 524.901C476.641 485.878 486.028 446.126 494.709 408.152C496.336 401.031 497.882 393.907 498.655 386.633C498.746 385.776 499.24 383.494 499.043 382.75C498.932 382.33 498.469 382.098 498.182 381.771ZM789.798 472.908C786.418 474.917 783.286 477.182 780.345 479.799C789.296 481.202 797.588 482.885 804.433 489.322L806.25 491.909C807.363 491.654 809.625 488.617 810.116 487.5C810.711 486.146 810.377 485.472 809.689 484.258C808.768 482.634 807.051 481.423 805.582 480.3C800.696 476.569 795.764 474.303 789.798 472.908ZM776.392 481.364C761.131 490.535 746.06 502.449 734.591 516.098C713.164 541.596 699.356 574.363 669.986 592.347C658.562 599.343 646.025 603.899 632.938 606.643C628.77 607.517 622.797 607.444 619.009 609.25L619.25 609.911L621.875 609.942C629.529 609.673 637.144 609.203 644.675 607.691C664.243 603.762 682.302 593.523 695.931 578.986C704.913 569.407 711.048 557.644 718.433 546.877C730.97 528.599 745.714 510.816 762.45 496.215C767.826 491.526 773.597 487.543 779.35 483.353C778.424 482.214 777.547 482.118 776.392 481.364ZM784.773 484.91C778.967 488.411 773.921 492.813 768.786 497.208C761.774 503.209 754.864 509.403 748.629 516.223C737.826 528.039 728.347 541.289 719.519 554.636C709.703 569.478 700.92 584.317 687.603 596.42C674.588 608.247 658.382 616.2 641.43 620.628C637.296 621.708 633.094 622.581 628.861 623.176C626.707 623.478 617.853 623.644 616.659 624.718C615.794 625.495 612.294 638.778 611.694 640.858C613.544 641.667 619.06 640.534 621.268 640.321C631.898 638.997 642.097 636.241 652.161 632.606C660.372 629.641 668.64 626.291 676.262 622.004C696.976 610.354 714.027 593.228 728.525 574.619L795.3 487.306C791.724 485.818 788.74 484.634 784.773 484.91ZM798.559 489.324L765.784 531.617L733.519 577.11C713.214 603.231 689.429 625.128 658.281 637.497C645.018 642.764 630.918 646.574 616.705 648.078L609.554 648.75L608.891 649.75C609.613 650.522 609.218 650.326 609.955 650.536C636.732 649.875 663.72 641.783 686.348 627.389C698.547 619.628 709.684 609.849 719.641 599.394C736.34 581.86 749.329 561.718 763.23 542.023L786.701 508.863L799.75 491.245C799.481 490.222 799.318 490.08 798.559 489.324ZM148.814 566.609L117.133 589.719C81.548 620.123 49.482 663.702 45.7226 711.795C44.9496 721.683 45.4601 732.3 46.2623 742.173C50.3558 792.551 72.7588 843.509 105.662 881.694C120.757 899.213 136.687 915.438 155.25 929.34C187.979 953.852 226.475 969.062 267.321 972.234C336.012 977.569 400.91 949.481 452.127 905.165C479.568 881.421 500.986 852.326 519.629 821.394C546.32 777.11 566.306 729.84 583.957 681.341L594.87 649.519C597.983 640.525 601.854 631.007 603.761 621.71C604.491 618.152 604.461 614.393 604.896 610.784C605.154 608.64 606.11 607.782 607.512 606.25L610.164 603.202C611.107 602.074 612.559 600.805 612.75 599.363C611.372 599.482 609.657 601.852 608.75 602.963C605.745 606.645 603.679 610.888 601.518 615.089C593.042 631.568 588.588 650.59 583.087 668.265L572.063 701.347C558.932 739.368 543.006 777.203 522.761 812.024C508.336 836.836 490.892 861.75 471.29 882.79C428.06 929.194 372.012 961.255 308.564 968.888C252.294 975.658 196.717 958.728 152.45 923.724C102.43 884.17 59.8001 824.086 52.0309 759.5C50.7273 748.663 50.1127 737.619 51.25 726.745C51.9175 720.362 54.1135 714.011 55.5562 707.75C59.3111 691.454 63.618 675.412 70.7147 660.195C76.6852 647.393 84.7741 635.296 93.5383 624.25C103.039 612.275 113.791 601.334 125.588 591.612L138.136 582.246C140.066 580.925 144.912 578.497 146.187 576.783C146.414 576.477 146.679 574.814 146.794 574.357L148.814 566.609ZM143.461 588.049L120.756 606.006C103.277 622.328 86.9562 642.265 76.6053 663.888C67.3147 683.296 62.312 705.306 61.5737 726.765C59.459 788.223 89.1521 845.297 130.403 889.139C168.167 929.276 218.501 957.971 274.653 959.459C325.644 960.811 373.1 945.385 415.08 916.836C426.716 908.923 438.029 900.26 448.198 890.512C514.262 827.179 552.684 738.205 579.181 652.082L586.796 627.92C588.345 623.026 591.228 616.697 591.088 611.5C591.074 610.98 590.921 610.909 590.75 610.462L590.353 609.25L594.727 602.785C595.792 601.139 598.084 598.467 597.979 596.5L597.199 596.25C594.481 598.659 592.719 602.317 590.928 605.446C588.537 609.621 585.944 613.861 583.994 618.254C580.764 625.53 578.502 633.268 576.144 640.857L567.276 668.989L556.197 701.16C537.084 753.94 511.841 804.829 477.169 849.162C464.755 865.034 451.657 879.976 436.576 893.406C390.285 934.629 330.986 957.282 268.81 953.6C214.032 950.357 164.679 919.437 128.904 879.17C90.132 835.528 63.8852 778.731 67.606 719.373C69.1825 694.225 77.6171 669.265 91.7444 648.45C102.577 632.488 116.224 618.903 130.675 606.235L143.457 595.819L143.873 588.5L143.461 588.049ZM584.028 592.44C581.33 596.579 579.226 600.943 576.655 605.122C575.23 607.44 573.289 609.283 572.056 611.75C569.436 616.991 567.655 622.773 565.851 628.34L557.473 656L542.066 703.077C531.824 731.946 520.006 761.307 505.124 788.103C494.041 808.059 480.848 826.148 466.386 843.75C454.288 858.475 441.663 872.792 427.359 885.441C398.138 911.28 362.322 929.877 324.107 937.994C292.652 944.674 258.97 943.825 228.338 933.606C212.913 928.46 198.396 921.062 184.809 912.189C170.943 903.132 158.424 892.348 146.762 880.619C115.985 849.663 92.9362 811.59 83.9923 768.574C80.4095 751.342 78.6956 733.964 81.0528 716.431C83.9497 694.885 93.3883 674.365 105.245 656.363C112.382 645.527 120.435 635.687 129.274 626.204C131.548 623.763 142.021 614.246 142.474 612.25L142 611.674C140.128 612.916 138.475 614.202 136.828 615.732C102.913 646.301 79.1974 686.524 76.8696 732.826C74.2212 785.505 100.235 837.811 134.963 876.001C154.65 897.65 177.897 916.874 204.5 929.43C227.427 940.25 251.768 945.995 277.041 947.156C334.609 949.798 391.847 924.56 433.802 886.168C451.183 870.263 466.295 852.176 480.296 833.278C489.882 820.341 499.176 807.185 507.357 793.305C536.936 743.114 553.962 687.259 570.686 631.848L575.084 617C576.169 612.845 576.966 608.517 578.626 604.538C579.488 602.471 584.38 594.539 584.177 592.947L584.028 592.44Z" />
	<path
		d="M850.866 114.216C847.313 113.651 842.402 113.389 839.255 111.75C839.917 111.029 840.376 110.542 841.267 110.098C842.153 109.656 842.838 109.069 843.72 108.629L846.003 107.502C847.819 106.613 849.869 105.444 851.5 104.255L852.503 103.502C853.502 103.023 853.653 102.543 854.503 102.002C856.091 100.992 859.52 98.2242 860.503 96.5025C861.297 95.1114 860.155 96.3115 861.245 95.2377C862.104 94.3903 862.919 93.7788 863.473 92.6731C864.047 91.5259 863.42 92.4422 864.16 91.4544L864.503 91.0025C865.077 89.8405 865.615 89.2441 866.506 88.2809C868.932 89.2436 871.49 90.7388 873.25 92.6843C875.945 95.6628 876.822 98.9621 876.557 102.903C876.315 106.503 874.887 109.28 872.1 111.612C866.533 116.272 857.512 114.851 850.866 114.216Z" />
	<path fill='#CCCCCC'
		d="M335.61 319.414C324.339 319.365 314.486 316.331 305.597 309.221C298.27 303.361 292.48 294.505 291.59 285C290.739 275.922 293.398 266.794 299.269 259.772C306.972 250.561 317.344 247.715 328.856 246.719C338.419 245.943 349.078 249.658 356.697 255.333C364.624 261.236 370.086 269.858 371.354 279.735C372.614 289.552 369.807 298.486 363.651 306.12C356.664 314.783 346.262 318.217 335.61 319.414ZM324.584 251.624C315.336 253.433 307.324 257.168 301.84 265.192C297.751 271.175 295.945 279.597 297.399 286.727C299.197 295.544 304.705 303.5 312.336 308.284C320.571 313.446 328.631 314.869 338.182 313.886C347.841 312.1 355.774 308.02 361.46 299.75C365.746 293.517 367.403 286.784 365.942 279.304C364.194 270.357 359.476 262.836 351.787 257.808C343.636 252.479 334.19 250.612 324.584 251.624Z" />
	<path fill='#CCCCCC'
		d="M314.712 307.285C309.125 304.704 304.381 298.068 302.302 292.464C299.532 285 299.83 277.212 303.25 270.035C306.327 263.577 311.702 258.676 318.508 256.394C327.671 253.321 338.721 254.126 347.265 258.642C354.943 262.701 360.324 269.142 362.86 277.417C364.799 283.745 363.663 291.036 360.526 296.75C356.815 303.51 350.612 307.913 343.332 310.16C340.667 310.92 338.21 311.559 335.434 311.78C345.025 307.823 352.82 305.073 357.239 294.777C360.094 288.126 360.324 281.117 357.48 274.428C354.486 267.387 349.222 261.666 342.064 258.762C334.68 255.766 325.22 255.221 317.814 258.393C311.161 261.242 306.345 266.676 303.751 273.375C301.234 279.877 301.216 288.019 304.116 294.393C306.679 300.027 310.796 302.898 314.712 307.285Z" />
	<path fill='#CCCCCC'
		d="M340.623 297.643C336.1 298.146 331.709 297.9 327.5 296.021C322.838 293.938 318.366 289.953 316.681 285.045C315.594 281.88 315.786 278.547 317.307 275.562C319.595 271.07 323.782 269.032 328.309 267.546C333.191 267.068 337.619 267.51 342.116 269.591C346.327 271.539 349.914 275.072 351.456 279.492C352.754 283.212 352.498 286.363 350.728 289.904C348.558 294.245 345.013 296.174 340.623 297.643ZM329.138 269.142C324.808 270.531 321.389 272.25 319.305 276.566C318.213 278.827 317.976 282.16 318.801 284.53C320.297 288.829 324.671 292.568 328.745 294.302C332.265 295.8 335.583 296.022 339.353 295.538C343.139 294.345 346.318 292.766 348.265 289.043C349.612 286.47 350.114 282.973 349.218 280.186C347.947 276.234 344.286 272.218 340.5 270.543C336.773 268.895 333.128 268.798 329.138 269.142Z" />
	<path fill='#CCCCCC'
		d="M336.877 293.442C334.144 293.432 331.824 293.326 329.289 292.145C326.043 290.632 322.951 287.646 321.867 284.16C321.083 281.638 321.353 278.351 322.758 276.085C324.81 272.772 327.815 271.87 331.396 271.154C334.404 271.167 337.429 271.57 340.076 273.074C342.962 274.714 345.247 277.239 346.062 280.5C346.76 283.292 346.418 286.018 344.883 288.479C342.963 291.553 340.262 292.61 336.877 293.442Z" />
	<path d="M314.712 307.285L315.109 307.567L314.712 307.285Z" />
	<path d="M315.109 307.567L316.215 308.178L315.109 307.567Z" />
	<path d="M316.215 308.178L316.487 308.392L316.215 308.178Z" />
</svg>