<svg xmlns="http://www.w3.org/2000/svg" width="1708" height="799" viewBox="0 0 1708 799" fill="none">
    <mask id="mask0" mask-type="alpha" maskUnits="userSpaceOnUse" x="179" y="50" width="1327"
        height="701">
        <rect x="179" y="161.559" width="1280" height="591.014" rx="80"
            transform="rotate(-5 179 161.559)" fill="white" />
    </mask>
    <g mask="url(#mask0)">
    </g>
    <g opacity="0.1">
        <g clip-path="url(#clip0)">
            <path
                d="M1707.57 1067.68C1707.05 1094.3 1705.67 1121 1703.42 1147.53C1701.17 1174.15 1698.06 1200.67 1694.52 1227.64C1677.41 1373.67 1684.32 1526.63 1603.09 1660.57C1515.81 1804.01 1378.41 1891.29 1257.08 1996.2C1239.79 2009.42 1222.08 2022.21 1204.02 2034.48C1161.84 2063.08 1117.69 2089.01 1071.8 2111.99C1048.9 2123.48 1025.48 2134.2 1001.71 2144.74C981.751 2154.07 964.468 2165.31 944.592 2177.41C855.583 2232.71 778.671 2295.79 675.835 2321.72C503.865 2364.06 359.549 2261.23 214.369 2188.64C186.715 2174.81 159.062 2164.44 130.717 2152.69C102.372 2141.89 74.4594 2129.97 47.0653 2117.09C-35.2901 2078.2 -113.065 2030.16 -184.187 1973.38C-205.618 1955.84 -226.444 1937.61 -248.567 1918.6C-405.241 1808.42 -540.916 1652.01 -559.928 1454.13C-561.915 1433.56 -563.903 1413.42 -566.15 1393.38C-568.396 1373.33 -570.73 1353.45 -573.236 1333.49C-581.445 1290.63 -587.667 1247.42 -591.643 1203.87C-593.63 1182.1 -595.186 1160.32 -596.136 1138.46C-588.445 966.753 -617.827 787.013 -556.125 623.087C-547.224 601.743 -536.854 581.349 -525.361 561.647C-502.374 522.329 -474.98 485.948 -446.03 450.605C-417.08 415.262 -386.575 381.215 -357.28 346.391C-251.419 218.239 -121.793 105.902 29.3498 34.8701C53.3737 23.6363 77.9161 13.5259 102.804 4.36609C227.331 -41.2602 361.537 -60.7033 494.446 -53.0989C582.159 -48.0869 671.428 -37.8037 759.573 -20.8667C788.955 -15.2498 818.25 -8.85518 847.373 -1.68286C876.495 5.48946 905.359 13.4395 933.963 22.2537C962.567 31.0679 990.825 40.6598 1018.74 51.1158C1046.65 61.5718 1074.13 72.9784 1101.18 85.2491C1162.02 112.988 1220.43 145.22 1275.31 182.81C1293.63 195.34 1311.52 208.475 1328.97 222.214C1496.8 346.909 1610 532.698 1663.32 733.177C1670.24 758.151 1676.2 783.557 1681.3 809.049C1691.49 860.119 1698.15 911.881 1702.56 963.642C1705.41 998.121 1707.22 1032.69 1707.57 1067.68Z"
                stroke="white" stroke-miterlimit="10" />
            <path
                d="M1679.66 1064.66C1679.31 1092.83 1677.93 1120.91 1675.59 1149C1650.62 1333.15 1686.05 1536.22 1559.88 1696.08C1475.19 1803.24 1363.71 1870.64 1265.98 1959.73C1251.37 1971.48 1236.42 1982.89 1221.13 1993.95C1205.92 2005.01 1190.36 2015.73 1174.55 2026.1C1142.92 2046.75 1110.25 2065.85 1076.64 2083.39C1059.79 2092.12 1042.76 2100.5 1025.39 2108.36C997.22 2120.37 972.159 2135.06 944.506 2152.35C846.855 2217.16 765.623 2294.06 648.096 2313.94C547.852 2331.22 456.25 2296.66 370.697 2249.99C284.28 2202.47 204.777 2150.62 112.829 2118.3C87.1633 2107.84 61.9295 2096.61 37.1278 2084.51C-18.7839 2057.29 -72.5353 2025.75 -123.348 1990.32C-140.286 1978.48 -156.965 1966.21 -173.211 1953.51C-191.877 1938.82 -208.296 1922.4 -229.901 1908.57C-388.908 1801.42 -518.533 1662.3 -540.138 1472.19C-542.73 1449.29 -544.718 1426.73 -546.446 1404.26C-548.174 1381.8 -549.73 1359.59 -551.458 1337.29C-553.619 1311.89 -556.902 1286.57 -560.186 1261.34C-563.47 1236.1 -567.013 1210.78 -569.606 1185.29C-571.593 1166.28 -573.062 1147.18 -574.186 1128.09C-573.062 951.976 -601.58 764.459 -526.916 599.841C-517.323 580.485 -506.435 561.992 -494.596 544.105C-470.831 508.416 -443.264 475.233 -414.487 442.915C-385.71 410.596 -355.897 379.141 -327.465 346.65C-122.657 90.4339 206.591 -62.5179 535.84 -23.6319C564.531 -21.0395 593.307 -17.9286 622.171 -14.2128C651.034 -10.497 679.984 -6.26277 708.933 -1.3372C888.335 28.4755 1069.21 84.385 1225.1 180.563C1247.4 194.303 1269.17 208.82 1290.35 224.288C1478.56 351.489 1606.46 555.425 1648.37 777.335C1653.82 801.79 1658.57 826.504 1662.46 851.305C1667.64 884.488 1671.45 917.929 1674.12 951.458C1677.24 988.616 1679.31 1026.29 1679.66 1064.66Z"
                stroke="white" stroke-miterlimit="10" />
            <path
                d="M1650.45 1060.51C1650.1 1088.08 1648.8 1115.64 1646.56 1143.12C1639.47 1218.13 1637.74 1292.45 1636.01 1367.63C1633.42 1498.97 1611.82 1640.69 1505.52 1733.15C1419.11 1809.2 1331.83 1871.42 1245.41 1947.46C1233.31 1957.83 1220.35 1966.47 1207.82 1975.37C1192.87 1986.26 1177.74 1996.72 1162.28 2006.91C1131.34 2027.13 1099.28 2045.89 1066.27 2063.08C1049.76 2071.64 1033 2079.85 1016.06 2087.97C995.664 2096.96 977.517 2107.32 957.641 2120.29C842.706 2197.19 746.783 2301.76 606.788 2305.21C467.657 2307.8 357.043 2217.93 239.516 2150.53C217.912 2139.3 197.172 2128.06 175.135 2118.39C148.346 2106.63 121.989 2096.26 95.9773 2085.2C26.7573 2055.56 -39.611 2019.53 -101.572 1977.36C-117.041 1966.82 -132.25 1955.93 -147.2 1944.61C-163.187 1931.99 -179.607 1919.03 -197.754 1907.8C-363.675 1803.24 -508.855 1658.93 -525.274 1461.04C-526.83 1440.04 -527.694 1419.3 -528.385 1398.65C-529.077 1377.99 -529.682 1357.34 -530.632 1336.6C-531.842 1311.54 -534.867 1286.66 -538.064 1261.77C-541.175 1237.31 -544.027 1213.03 -546.447 1188.66C-546.965 1111.84 -555.002 1032.08 -558.891 952.495C-560.187 925.966 -560.965 899.524 -560.878 873.167C-560.792 846.811 -559.755 820.628 -557.422 794.79C-555.088 768.866 -551.372 743.288 -545.928 718.055C-534.953 667.59 -516.892 618.766 -488.202 572.535C-476.881 553.956 -464.523 535.896 -451.388 518.267C-425.204 483.097 -395.995 449.914 -365.662 417.768C-347.169 398.325 -328.417 379.314 -309.491 360.39C-175.372 205.364 -8.58729 76.6078 198.813 25.6238C347.451 -11.534 493.495 -2.02851 640.75 16.3776C664.428 19.4885 688.193 22.945 711.957 26.92C878.31 54.4859 1044.58 104.087 1190.45 188.427C1214.3 202.167 1237.55 216.857 1260.36 232.584C1452.72 353.995 1590.99 555.339 1624 781.915C1628.67 805.765 1632.73 829.788 1636.1 853.984C1640.51 886.216 1643.79 918.707 1646.04 951.026C1648.63 986.715 1650.27 1023.18 1650.45 1060.51Z"
                stroke="white" stroke-miterlimit="10" />
            <path
                d="M1619.85 1055.33C1619.6 1085.23 1618.21 1115.21 1615.79 1145.28C1610 1229.36 1615.19 1314.05 1613.46 1397.87C1610.87 1504.16 1595.31 1615.63 1519.27 1698.59C1470.01 1751.3 1411.24 1783.27 1352.48 1827.35C1305.82 1862.77 1265.2 1898.2 1221.99 1933.63C1198.92 1952.73 1174.89 1971.05 1149.92 1988.16C1119.59 2008.04 1088.22 2026.44 1055.9 2043.21C1039.74 2051.59 1023.32 2059.71 1006.47 2068.35C991.171 2075.35 976.48 2083.99 961.789 2094.36C832.164 2184.23 725.007 2319.9 553.901 2288.79C427.732 2265.46 339.587 2182.5 232.43 2120.29C204.776 2103.87 177.123 2090.91 148.26 2078.98C120.779 2068.44 93.6442 2056.95 66.9414 2044.59C31.424 2028 -3.22923 2009.68 -36.759 1989.72C-53.5239 1979.69 -70.0295 1969.32 -86.2759 1958.43C-151.261 1911.17 -217.803 1874.01 -285.208 1824.75C-412.241 1734.88 -503.843 1604.4 -510.756 1452.31C-512.052 1422.07 -510.756 1391.99 -509.892 1361.92C-509.028 1334.79 -508.164 1308 -511.62 1281.21C-514.818 1261.51 -517.497 1241.72 -519.916 1221.85C-522.336 1201.97 -524.324 1182.1 -526.138 1162.13C-526.57 1137.77 -527.78 1113.14 -529.249 1088.25C-530.718 1063.36 -532.62 1038.22 -534.348 1012.98C-541.002 913.955 -547.915 811.987 -526.311 713.475C-521.126 689.452 -514.213 665.861 -505.225 642.703C-496.238 619.63 -485.177 596.99 -471.696 575.041C-455.449 550.067 -437.734 527.081 -419.241 505.305C-400.747 483.529 -381.476 463.049 -361.946 443.087C-348.638 429.607 -335.243 416.386 -321.762 402.992C-177.187 244.164 -12.9943 98.1247 209.961 48.8691C377.61 11.7112 540.074 20.3526 701.328 50.8566C728.118 55.6093 754.907 60.7941 781.61 66.5838C915.211 95.4459 1046.74 138.307 1164.96 202.771C1188.63 215.647 1211.71 229.387 1234.61 244.077C1442.27 361.686 1584.86 575.991 1603.61 814.233C1606.46 833.417 1608.79 852.687 1610.69 872.044C1613.29 897.795 1615.1 923.633 1616.31 949.211C1618.9 983.777 1620.03 1019.03 1619.85 1055.33Z"
                stroke="white" stroke-miterlimit="10" />
            <path
                d="M1587.88 1049.19C1588.23 1078.14 1587.45 1107.26 1585.81 1136.47C1584.16 1216.4 1590.21 1295.9 1592.81 1376.27C1597.13 1507.62 1577.25 1654.52 1454.54 1734.88C1368.12 1791.05 1290.35 1842.9 1216.46 1908.4C1194.6 1927.24 1171.87 1945.65 1148.28 1963.01C1132.2 1973.9 1115.78 1984.27 1099.11 1994.21C1082.43 2004.15 1065.4 2013.65 1048.03 2022.73C950.814 2065.85 875.631 2137.57 794.399 2208.43C669.094 2316.45 502.309 2292.25 378.733 2193.74C303.55 2133.25 230.96 2075.35 141.087 2045.11C119.309 2037.5 97.7917 2029.29 76.5331 2020.65C58.8176 2013.39 41.275 2005.7 24.078 1997.58C6.79459 1989.46 -10.1432 1980.82 -26.8216 1971.74C-140.546 1899.15 -263.258 1838.67 -361.774 1740.15C-448.191 1653.05 -497.362 1541.32 -497.362 1420.94C-497.362 1396.83 -495.374 1372.46 -491.399 1347.75C-487.078 1320.18 -487.943 1291.67 -491.399 1263.15C-494.683 1240.86 -497.621 1218.39 -500.3 1196.01C-502.547 1170.6 -504.88 1145.2 -507.041 1119.79C-509.201 1094.39 -511.275 1068.89 -513.09 1043.49C-516.46 898.487 -541.521 741.214 -469.709 607.964C-458.647 588.089 -445.944 568.992 -432.117 550.759C-418.291 532.525 -403.34 515.07 -387.872 498.478C-371.366 480.418 -354.169 462.876 -336.54 445.421C-160.509 261.619 43.4354 78.4224 311.328 53.3625C469.471 38.6722 625.886 63.7321 779.535 91.9894C805.028 97.1742 830.348 102.877 855.582 109.272C931.111 128.283 1005.08 152.565 1075.34 183.674C1102.13 195.513 1128.31 208.388 1153.89 222.301C1298.21 303.962 1442.53 404.201 1515.98 560.61C1564.37 662.578 1573.02 774.915 1583.9 884.574C1585.46 905.4 1586.32 926.139 1586.76 946.792C1588.14 979.888 1588.57 1013.94 1587.88 1049.19Z"
                stroke="white" stroke-miterlimit="10" />
            <path
                d="M1554.61 1042.19C1556.25 1066.65 1556.77 1090.93 1556.42 1115.13C1556.34 1200.93 1566.71 1284.75 1571.89 1370.3C1578.81 1505.97 1555.47 1658.93 1424.98 1734.97C1386.96 1757.44 1351.53 1776.45 1316.1 1804.1C1259.93 1847.31 1211.53 1892.24 1155.97 1932.6C1140.76 1943.4 1125.03 1953.51 1108.7 1963.01C1093.66 1972.52 1078.37 1981.59 1062.72 1990.32C953.06 2040.01 873.557 2125.56 777.634 2201.6C722.327 2245.67 657.514 2275.92 586.652 2268.14C450.114 2254.31 363.697 2147.16 251.355 2070.25C228.022 2054.7 205.554 2041.74 180.925 2031.45C157.679 2021.17 134.432 2012.87 111.359 2004.58C90.7918 1997.23 70.3973 1989.28 50.3486 1980.73C30.2998 1972.17 10.5104 1962.93 -8.93346 1952.99C-222.124 1843.76 -500.387 1694.27 -480.511 1414.29C-479.215 1393.12 -476.017 1371.95 -473.166 1350.52C-471.005 1328.74 -465.82 1307.14 -469.277 1284.67C-472.301 1262.63 -474.98 1240.77 -477.4 1218.91C-482.153 1185.21 -484.745 1151.42 -486.387 1117.63C-487.251 1100.69 -487.77 1083.76 -488.288 1066.82C-488.202 968.395 -500.3 869.884 -499.436 771.372C-499.436 708.29 -473.511 646.937 -439.117 594.484C-428.229 577.374 -416.303 560.869 -403.686 545.055C-391.069 529.242 -377.675 514.033 -363.848 499.515C-348.984 483.615 -333.775 468.234 -317.961 452.852C-156.361 299.468 3.51061 136.147 239.429 87.7551C420.905 51.4614 592.874 85.1627 765.881 114.025C792.498 119.296 819.028 125.086 845.298 131.567C924.284 151.01 1001.45 176.415 1074.3 209.339C1098.59 220.313 1122.44 232.152 1145.77 244.768C1265.2 309.751 1379.27 381.475 1463.09 499.861C1545.19 615.655 1550.37 748.732 1554.95 879.044C1555.91 900.474 1556.16 921.818 1555.91 942.903C1556.42 974.963 1555.91 1007.8 1554.61 1042.19Z"
                stroke="white" stroke-miterlimit="10" />
            <path
                d="M1520.39 1034.16C1519.87 1066.13 1521.43 1097.93 1522.9 1130.85C1536.64 1330.55 1623.05 1607.94 1405.28 1728.06C1303.31 1784.22 1216.89 1852.49 1129.7 1923.87C1110.25 1937.7 1090.12 1950.57 1069.55 1962.67C974.061 2011.49 893.693 2078.03 815.054 2154.07C757.154 2210.24 686.292 2262.09 602.468 2257.77C547.161 2254.31 498.767 2229.25 451.238 2196.42C351.859 2127.29 279.268 2039.14 167.963 2000.78C143.162 1991.88 118.619 1983.58 94.4223 1974.42C-48.2521 1910.39 -194.297 1851.63 -315.281 1745.34C-401.006 1671.2 -467.461 1571.22 -469.794 1458.88C-470.226 1436.41 -468.152 1413.51 -463.054 1390.18C-458.214 1369.27 -455.017 1348.36 -453.202 1327.36C-451.214 1310.42 -450.696 1293.48 -451.042 1276.63C-451.387 1259.78 -452.684 1242.93 -454.412 1226.08C-456.313 1201.71 -458.733 1176.82 -461.412 1151.59C-464.091 1126.36 -466.856 1100.69 -469.621 1074.86C-484.744 902.029 -502.028 706.735 -393.056 558.363C-377.587 537.624 -359.699 517.921 -339.045 499.17C-324.009 482.06 -306.725 467.37 -290.306 451.815C-241.913 409.473 -196.976 370.586 -149.446 328.244C-40.5609 230.597 76.9662 153.689 220.418 117.395C419.177 68.1393 617.072 102.705 808.054 147.38C831.732 153.343 855.324 159.738 878.829 166.737C925.754 180.736 972.16 196.723 1017.87 214.869C1040.69 223.943 1063.42 233.535 1085.88 243.645C1251.37 316.146 1423.34 412.929 1493.34 590.077C1529.64 682.539 1524.45 781.051 1525.83 877.747C1526.01 898.227 1525.49 918.621 1524.45 938.755C1523.76 969.173 1522.29 1000.8 1520.39 1034.16Z"
                stroke="white" stroke-miterlimit="10" />
            <path
                d="M1485.3 1025.34C1485.91 1054.12 1485.56 1083.24 1485.56 1113.05C1486.43 1129.21 1488.15 1145.63 1489.88 1162.91C1511.49 1343.52 1600.5 1585.47 1409.51 1703.86C1311 1764.35 1211.62 1809.28 1131.86 1890.25C1109.3 1909.01 1085.62 1926.63 1060.74 1943.14C951.419 2001.12 867.594 2087.54 775.992 2171.36C722.414 2220.61 654.144 2256.91 578.097 2240.49C456.25 2213.7 386.252 2115.19 294.65 2040.01C275.206 2024.02 255.33 2009.94 234.504 1997.84C213.677 1985.65 191.986 1975.37 168.913 1966.82C-9.53795 1905.2 -200.519 1846.44 -337.922 1705.59C-402.735 1639.31 -454.326 1556.27 -455.709 1463.46C-455.968 1444.88 -454.24 1425.95 -450.264 1406.6C-445.771 1385.86 -442.314 1365.12 -439.722 1344.21C-436.783 1323.55 -435.314 1302.64 -435.055 1281.64C-434.796 1260.65 -435.66 1239.47 -437.302 1218.22C-439.722 1194.45 -442.055 1170.69 -444.215 1146.93C-446.376 1123.16 -448.277 1099.4 -450.005 1075.63C-451.993 899.437 -494.337 695.501 -363.415 553.092C-349.675 536.068 -334.898 519.823 -319.429 504.441C-303.961 488.973 -287.887 474.283 -271.468 460.456C-257.814 449.396 -244.678 438.507 -231.716 427.619C-192.915 395.041 -156.274 362.809 -116.781 329.108C-7.89601 239.238 105.31 168.379 244.442 134.678C431.966 89.7426 615.17 130.357 795.09 169.416C819.201 175.206 843.311 181.427 867.508 188.254C917.63 202.339 968.011 218.153 1017.1 236.905C1041.64 246.237 1065.92 256.348 1089.95 267.15C1176.88 305.776 1261.57 346.391 1339.34 408.608C1436.13 487.245 1501.81 597.854 1501.81 721.425C1501.81 792.284 1495.76 862.279 1492.04 933.484C1490.4 962.519 1487.9 992.936 1485.3 1025.34Z"
                stroke="white" stroke-miterlimit="10" />
            <path
                d="M1449.96 1016.01C1451.95 1044.78 1452.9 1073.47 1453.93 1102.6C1456.18 1123.08 1458.77 1143.81 1462.23 1165.42C1486.43 1313.19 1538.28 1463.54 1477.78 1606.13C1441.49 1690.81 1348.16 1717.6 1271.25 1756.49C1247.92 1768.58 1227.18 1782.41 1208.16 1799.69C1190.02 1816.54 1172.73 1833.83 1155.1 1850.33C1137.47 1866.84 1119.41 1882.48 1099.71 1896.13C1035.42 1939.77 967.147 1973.47 908.383 2026.18C821.966 2104.82 751.968 2218.02 630.12 2228.39C496.174 2238.76 412.35 2117.78 322.476 2032.23C301.304 2012.36 279.7 1993.52 256.54 1977.62C233.38 1961.72 208.578 1948.67 181.098 1940.29C-41.2531 1873.23 -297.912 1804.1 -415.439 1578.56C-441.796 1528.01 -443.956 1477.03 -437.821 1425.61C-435.747 1408.41 -432.808 1391.13 -429.611 1373.76C-424.685 1348.27 -419.5 1323.04 -416.476 1297.54C-413.537 1272.05 -412.846 1246.3 -417.167 1219.86C-420.624 1201.63 -423.389 1183.31 -425.463 1164.9C-427.623 1146.49 -429.179 1128.09 -430.389 1109.68C-436.179 1033.38 -428.401 958.198 -430.994 882.154C-432.722 857.959 -437.907 832.899 -437.907 808.703C-441.364 684.268 -367.045 566.745 -272.332 490.096C-251.765 471.258 -230.766 452.42 -209.593 433.755C-82.3876 321.936 52.7685 217.548 217.998 165.7C418.485 103.482 626.75 149.282 823.867 195.772C847.113 201.907 870.273 208.561 893.26 215.82C916.247 223.079 939.148 230.856 961.789 239.238C987.714 248.83 1013.47 259.113 1039.13 270.174C1201.42 338.441 1389.81 409.3 1458.95 587.312C1500.43 693.6 1477.96 807.666 1461.28 915.51C1457.91 947.051 1453.93 980.407 1449.96 1016.01Z"
                stroke="white" stroke-miterlimit="10" />
            <path
                d="M1414.7 1006.5C1412.54 1036.75 1413.75 1066.73 1416.34 1097.41C1443.22 1258.74 1518.4 1426.39 1459.64 1589.71C1424.21 1689.08 1312.73 1706.37 1228.9 1754.76C1216.8 1762.54 1206.43 1771.18 1196.06 1779.82C1176.62 1797.53 1158.04 1815.51 1139.2 1832.79C1122.61 1848.95 1106.19 1863.64 1086.31 1876.6C962.739 1958.69 863.359 2042.51 765.708 2148.8C677.563 2244.72 537.567 2227.44 449.422 2137.57C383.14 2069.91 327.142 1989.02 246.688 1941.58C230.614 1932.08 213.504 1923.96 195.097 1917.39C-31.9206 1852.41 -310.183 1793.64 -414.748 1549.96C-424.513 1527.49 -428.92 1505.11 -429.957 1482.81C-430.994 1460.52 -428.402 1438.23 -424.167 1415.93C-417.34 1384.48 -408.267 1352.94 -401.872 1321.13C-396.687 1290.72 -394.094 1260.47 -397.464 1229.28C-401.18 1205.25 -404.378 1181.15 -407.057 1156.95C-409.736 1132.75 -411.896 1108.56 -413.192 1084.28C-410.427 952.841 -425.982 818.9 -389.687 690.144C-370.675 621.013 -325.738 564.844 -277.086 514.897C-262.135 499.688 -246.494 485.257 -230.593 471.517C-215.73 459.592 -200.952 448.272 -186.261 437.125C-142.189 403.683 -98.6345 372.574 -52.5743 337.576C29.5218 274.495 110.754 222.647 207.541 191.538C420.991 121.543 647.403 175.983 857.396 227.831C884.618 235.954 911.925 244.596 939.147 253.928C966.368 263.261 993.417 273.371 1020.12 284.259C1146.89 336.712 1279.98 382.511 1381.08 485.344C1494.29 602.002 1469.23 769.644 1430 908.943C1424.46 939.706 1419.37 971.765 1414.7 1006.5Z"
                stroke="white" stroke-miterlimit="10" />
            <path
                d="M1379.79 996.566C1380.39 1021.71 1380.83 1046.77 1381.26 1072C1382.81 1090.24 1384.54 1107.52 1388.86 1126.53C1418.24 1272.57 1478.74 1403.06 1450.22 1553.41C1431.21 1652.79 1334.42 1690.81 1251.46 1721.92C1232.88 1728.83 1215.94 1738.08 1200.13 1748.8C1184.31 1759.51 1169.54 1771.69 1155.19 1784.48C1088.04 1852.41 1012 1905.12 934.222 1965.61C872.002 2013.13 828.793 2069.3 774.351 2122.88C742.377 2153.12 707.81 2179.05 666.33 2193.74C584.233 2223.12 510.779 2168.68 456.336 2112.51C411.832 2066.71 371.648 2013.13 325.76 1968.54C310.465 1953.68 294.477 1939.77 277.54 1927.58C251.528 1908.66 223.875 1893.11 191.9 1885.33C37.214 1848.17 -110.559 1823.11 -247.098 1731.51C-334.206 1672.49 -411.809 1587.63 -418.722 1483.94C-420.105 1463.2 -418.636 1441.68 -413.883 1419.56C-406.969 1388.45 -396.599 1359.07 -387.353 1328.91C-380.18 1302.04 -374.995 1275.25 -378.365 1247.6C-381.822 1222.71 -384.933 1197.74 -387.612 1172.85C-390.291 1147.88 -392.624 1122.99 -394.093 1098.02C-399.969 990.171 -388.735 883.019 -380.094 775.002C-369.724 648.838 -290.22 540.821 -190.84 467.629C-169.668 450.26 -148.15 432.804 -126.546 415.608C3.25213 312.257 140.482 217.462 310.292 186.353C490.039 153.516 662.873 205.364 833.546 241.658C854.978 247.188 876.323 253.237 897.581 259.804C925.926 268.619 953.925 278.297 981.752 289.185C1148.54 360.044 1368.04 405.843 1431.98 601.138C1464.82 700.513 1432.85 805.073 1400.53 901.252C1392.23 931.41 1385.23 962.778 1379.79 996.566Z"
                stroke="white" stroke-miterlimit="10" />
            <path
                d="M1345.39 986.628C1344.53 1006.5 1344.1 1026.38 1343.92 1046.34C1343.84 1073.91 1347.29 1099.83 1354.21 1127.48C1390.5 1275.25 1458.77 1416.97 1414.7 1568.19C1402.6 1608.81 1372.36 1641.64 1334.33 1658.06C1283.35 1680.96 1232.53 1703.86 1185.69 1732.12C1170.05 1741.54 1154.84 1751.56 1140.24 1762.36C1123.56 1774.72 1107.14 1786.82 1093.32 1802.37C1034.55 1868.91 967.146 1915.57 901.469 1973.47C861.718 2008.9 828.879 2046.92 792.584 2085.81C738.141 2143.71 665.551 2205.92 581.727 2179.13C471.113 2142.84 419.263 2031.37 341.487 1950.14C322.908 1930.7 303.205 1912.72 281.773 1897.51C259.391 1881.87 236.059 1868.05 209.27 1861.13C34.7072 1811.01 -158.003 1811.01 -294.541 1676.21C-335.157 1635.59 -367.996 1593.25 -391.328 1541.4C-401.094 1519.11 -405.155 1497.07 -405.414 1475.12C-405.674 1453.17 -402.131 1431.4 -396.6 1409.71C-389.6 1380.07 -378.625 1351.38 -370.329 1322.17C-362.033 1292.96 -356.675 1263.15 -360.996 1230.92C-364.885 1207.24 -368.255 1183.48 -371.107 1159.63C-387.872 1020.33 -367.132 884.661 -344.663 743.806C-329.108 646.159 -276.394 561.474 -203.285 498.306C-185.742 482.838 -167.076 468.407 -147.633 455.185C-132.25 444.384 -117.559 433.928 -103.128 423.731C-59.7465 393.14 -18.8713 364.624 27.7939 334.206C147.049 256.434 268.033 176.07 413.214 194.217C565.307 214.092 712.216 239.152 859.73 271.816C883.408 277.519 906.741 283.741 929.814 290.74C956.171 298.691 982.097 307.505 1008.11 317.01C1165.91 372.228 1357.75 431.854 1416.51 605.545C1448.49 701.464 1409.6 802.568 1372.61 893.129C1361.81 922.596 1352.48 953.532 1345.39 986.628Z"
                stroke="white" stroke-miterlimit="10" />
            <path
                d="M1312.47 977.123C1310.65 995.875 1309.96 1014.28 1309.62 1032.69C1309.27 1076.5 1317.05 1119.71 1330.88 1162.05C1369.76 1278.71 1405.19 1396.23 1394.82 1519.8C1389.64 1575.1 1358.53 1624.36 1309.27 1648.56C1267.79 1669.29 1224.76 1687.44 1184.75 1709.65C1164.7 1720.71 1145.34 1732.81 1127.28 1746.81C1099.28 1767.89 1079.4 1795.54 1053.48 1818.01C957.555 1905.29 863.36 1981.33 777.808 2079.85C738.056 2124.78 688.798 2168.85 627.442 2167.12C501.273 2164.53 442.51 2033.18 369.92 1942.45C359.117 1928.79 347.797 1915.83 335.785 1903.73C323.773 1891.64 311.156 1880.4 297.502 1870.47C274.861 1852.58 248.936 1839.62 220.418 1832.7C31.165 1792.95 -168.458 1789.5 -310.182 1645.19C-362.032 1591.35 -397.377 1520.06 -392.797 1448.42C-391.328 1424.49 -385.365 1400.46 -374.217 1376.79C-362.032 1356.74 -353.823 1335.05 -349.156 1312.58C-344.49 1290.2 -343.453 1267.04 -345.527 1244.05C-348.81 1217.44 -351.921 1190.82 -354.687 1164.21C-369.81 1018.69 -347.341 877.834 -314.503 732.659C-291.17 630.691 -239.32 537.365 -153.422 478.344C-138.558 467.197 -123.176 456.654 -107.534 446.458C-86.0164 431.681 -63.9801 417.423 -41.5981 403.424C3.16589 375.253 49.2261 347.946 95.0271 318.825C196.999 254.879 304.156 203.895 424.276 215.129C567.728 228.955 705.995 258.335 844.522 293.074C872.261 300.505 899.915 308.801 927.309 317.874C1099.97 381.129 1348.85 400.14 1402.43 614.445C1425.76 709.5 1386.87 801.963 1345.39 885.524C1332.86 913.955 1321.28 944.372 1312.47 977.123Z"
                stroke="white" stroke-miterlimit="10" />
            <path
                d="M1281.27 968.568C1276.61 990.085 1275.05 1011.43 1275.65 1032.43C1277.38 1069.59 1284.3 1105.88 1293.8 1143.04C1329.23 1276.98 1397.5 1407.46 1358.61 1545.72C1332.69 1636.46 1230.72 1650.28 1156.4 1690.03C1135.23 1700.84 1117.51 1715.09 1101.18 1731.17C1065.66 1768.67 1035.42 1809.28 996.528 1844.71C908.383 1922.49 833.2 2002.85 750.239 2086.67C710.488 2126.42 656.045 2162.72 599.01 2144.57C483.211 2109.14 438.274 1989.89 365.684 1900.88C354.882 1887.66 343.302 1875.39 330.858 1864.24C318.068 1852.84 304.587 1842.64 289.896 1833.74C261.033 1816.28 230.787 1805.91 197.949 1799.87C12.1522 1769.62 -189.199 1767.03 -321.417 1611.48C-361.601 1564.13 -388.65 1504.68 -381.823 1445.48C-379.576 1425.7 -373.527 1405.99 -362.984 1386.64C-349.589 1361.66 -341.12 1335.13 -336.454 1307.83C-331.787 1280.52 -330.923 1252.35 -332.565 1223.75C-334.639 1202.23 -336.281 1180.71 -337.577 1159.2C-339.651 1126.79 -339.651 1094.82 -336.195 1061.98C-327.553 964.334 -312.862 871.007 -303.356 773.36C-299.9 735.338 -285.209 698.18 -250.642 674.848C-248.049 673.12 -247.185 669.664 -247.185 667.071C-254.099 569.424 -160.768 515.848 -93.9679 463.999C-73.5735 449.309 -53.2655 434.878 -32.7847 420.879C69.533 350.625 174.184 289.271 293.007 247.102C402.757 208.216 513.371 243.645 623.12 271.297C702.624 290.308 779.535 304.134 857.656 322.108C882.976 327.985 908.037 334.293 932.839 341.379C1095.04 388.906 1317.13 413.102 1381.08 595.434C1415.65 692.217 1368.12 793.321 1319.64 878.352C1305.12 906.091 1291.64 935.99 1281.27 968.568Z"
                stroke="white" stroke-miterlimit="10" />
            <path
                d="M1251.54 960.272C1248 976.604 1245.06 992.245 1245.15 1007.63C1247.57 1032.95 1249.47 1057.92 1252.24 1083.07C1256.56 1100.61 1260.01 1117.89 1264.33 1136.04C1299.77 1268.25 1368.03 1396.14 1330.88 1534.4C1309.27 1613.9 1222.85 1634.64 1157.18 1669.21C1135.57 1680.44 1116.3 1694.53 1098.5 1710.43C1017.18 1800.56 929.901 1881.79 842.62 1969.93C808.917 2002.76 780.4 2037.33 746.697 2070.17C709.538 2104.73 664.601 2135.84 611.886 2128.06C563.493 2120.29 531.519 2085.72 501.273 2049.43C456.768 1994.99 417.448 1931.47 370.437 1878.93C354.709 1861.39 338.117 1844.97 319.624 1830.37C280.909 1800.56 237.701 1782.41 188.443 1771.18C43.2627 1739.2 -101.054 1757.35 -231.543 1669.21C-296.356 1624.27 -349.07 1571.56 -366.354 1494.65C-370.675 1474.52 -370.242 1455.77 -366.786 1437.79C-363.329 1419.73 -356.848 1402.54 -348.984 1385.51C-339.046 1364 -327.639 1342.48 -319.689 1320.01C-311.738 1297.54 -307.158 1274.21 -311.047 1248.98C-314.331 1226.51 -317.269 1203.79 -319.861 1180.89C-340.429 1009.79 -272.159 849.058 -229.815 681.416C-203.89 577.72 -125.25 505.132 -45.6603 447.062C-28.7226 435.137 -11.4392 423.558 6.01701 412.411C93.471 356.674 187.147 310.788 283.502 275.186C461.521 209.512 644.725 313.208 823.781 341.724C848.582 347.687 874.508 353.995 901.556 360.562C1049.16 397.893 1218.53 404.806 1328.28 527.513C1419.02 630.345 1360.26 772.928 1294.23 871.525C1278.51 899.264 1263.56 928.558 1251.54 960.272Z"
                stroke="white" stroke-miterlimit="10" />
            <path
                d="M1223.55 953.532C1216.55 970.296 1210.76 986.196 1211.28 1002.7C1213.95 1029.4 1216.46 1055.67 1219.66 1081.86C1228.9 1122.21 1241.87 1161.96 1254.83 1202.58C1288.53 1309.73 1342.11 1426.39 1296.31 1536.13C1274.27 1589.97 1222.6 1611.14 1171.52 1634.47C1154.5 1642.25 1137.56 1650.2 1121.75 1659.7C1075.95 1687.36 1045.7 1728.83 1012.86 1772.9C1000.76 1787.6 989.53 1800.56 976.567 1814.38C895.335 1895.61 820.152 1973.38 738.92 2054.61C709.539 2084.86 671.515 2112.51 626.578 2104.73C518.557 2085.72 480.534 1974.25 420.906 1893.02C408.808 1876.77 396.104 1861.22 382.623 1846.79C325.847 1779.82 242.023 1753.89 156.47 1744.39C9.5611 1727.97 -143.397 1722.78 -266.109 1622.55C-325.737 1573.89 -365.402 1501.05 -353.131 1431.14C-349.069 1407.72 -339.218 1384.56 -322.971 1362.18C-310.527 1345.85 -302.145 1327.1 -297.738 1307.31C-293.33 1287.43 -292.898 1266.44 -296.269 1245.52C-301.626 1218.22 -305.602 1190.65 -307.935 1162.83C-313.638 1105.79 -306.725 1049.62 -291.17 993.455C-254.011 864.699 -228.95 736.807 -174.507 614.964C-145.125 550.154 -93.2751 497.442 -30.1043 464.518C-9.5371 451.21 10.7709 438.162 31.0789 425.459C112.397 374.562 193.024 328.676 281.775 290.049C324.119 271.902 368.192 258.94 414.857 269.31C557.445 302.147 691.391 331.528 830.177 360.044C855.324 365.747 880.558 372.142 906.915 378.45C1046.56 417.941 1215.94 416.213 1318.78 533.735C1406.06 633.975 1337.79 773.965 1269.43 866.686C1252.76 893.647 1236.68 922.337 1223.55 953.532Z"
                stroke="white" stroke-miterlimit="10" />
            <path
                d="M1197.36 948.433C1191.14 963.988 1182.59 978.246 1183.71 993.282C1186.73 1021.54 1189.33 1048.67 1191.66 1075.63C1195.2 1091.1 1196.93 1106.66 1201.25 1123.08C1229.77 1235.41 1274.71 1339.97 1268.66 1454.9C1265.37 1524.29 1216.98 1564.91 1164.18 1602.41C1146.55 1614.94 1128.49 1627.04 1111.38 1639.83C1089.77 1654.52 1071.63 1671.8 1054.34 1692.54C954.963 1810.06 855.583 1912.03 747.562 2020.05C724.23 2044.24 698.304 2064.12 667.194 2075.35C593.74 2101.28 535.841 2037.33 500.41 1979.43C488.311 1959.56 475.954 1939.34 462.991 1919.55C450.028 1899.67 436.547 1880.14 422.202 1861.56C371.648 1791.92 299.058 1738.34 210.049 1724.51C67.4606 1702.05 -75.9917 1715.01 -204.753 1641.56C-273.887 1602.67 -346.477 1543.91 -342.156 1459.22C-340.428 1427.68 -327.724 1400.2 -312.688 1372.81C-299.812 1352.5 -288.75 1330.29 -282.787 1307.4C-277.43 1288.21 -274.837 1268.34 -280.022 1250.19C-288.837 1222.71 -294.54 1195.23 -297.565 1167.75C-304.219 1110.2 -292.121 1053.17 -273.109 997.862C-248.912 930.46 -216.074 870.834 -200.519 799.111C-174.593 676.404 -138.298 553.697 -32.8696 483.875C-12.9937 469.444 7.83279 455.79 29.0914 442.742C114.039 390.634 206.073 348.033 296.379 307.418C360.328 278.902 431.19 283.222 496.002 307.418C620.443 352.353 747.476 378.277 875.546 404.288C899.051 408.176 922.384 411.979 945.63 415.781C1015.37 427.187 1084.59 438.508 1157.18 450.865C1247.05 466.419 1334.33 530.365 1340.38 626.284C1347.3 730.844 1277.3 814.665 1223.98 897.363C1214.3 913.782 1205.4 930.719 1197.36 948.433Z"
                stroke="white" stroke-miterlimit="10" />
            <path
                d="M1172.39 944.199C1161.76 962.346 1159.51 982.221 1159.77 1002.44C1160.03 1022.66 1162.88 1043.32 1162.71 1063.02C1171.09 1148.14 1203.93 1225.04 1224.67 1308.86C1245.41 1393.55 1262.69 1497.25 1180.6 1556.01C1161.15 1569.83 1142.23 1583.4 1123.91 1597.14C1105.59 1610.97 1087.87 1624.96 1070.93 1639.74C1034.55 1671.71 1006.9 1709.74 975.789 1748.62C891.965 1856.64 809.005 1949.1 704.44 2035.52C684.564 2051.93 659.503 2061.44 632.714 2056.25C585.185 2045.88 555.803 2008.73 528.149 1969.84C502.829 1934.41 478.892 1896.65 453.226 1861.22C440.436 1843.5 427.128 1826.31 413.042 1810.24C298.194 1672.58 106.348 1699.37 -57.844 1671.71C-165.865 1653.57 -279.072 1605.18 -318.823 1498.89C-325.996 1480.48 -327.379 1462.85 -324.959 1445.74C-322.539 1428.55 -316.317 1411.78 -308.194 1395.28C-295.836 1372.38 -282.096 1348.96 -272.59 1324.51C-263.084 1299.96 -257.899 1274.21 -262.566 1246.3C-266.887 1226.08 -270.603 1205.6 -273.454 1184.95C-297.133 1041.85 -219.357 915.683 -162.322 789.519C-142.446 745.448 -140.718 699.649 -134.669 652.122C-124.299 576.942 -63.8068 525.094 -3.0557 487.677C19.4991 472.382 42.0539 457.346 64.6088 442.828C154.915 384.845 246.171 334.898 356.18 310.702C401.981 301.196 448.646 305.517 489.262 325.392C604.196 380.697 726.909 405.757 849.966 425.718C869.929 428.829 889.977 431.681 909.94 434.36C990.048 444.988 1070.5 452.679 1152.86 465.382C1220.26 475.752 1287.67 511.181 1312.73 575.991C1343.84 657.22 1304.95 740.177 1256.56 811.036C1236.68 840.417 1217.67 865.476 1199.7 893.993C1189.84 910.239 1180.6 926.917 1172.39 944.199Z"
                stroke="white" stroke-miterlimit="10" />
            <path
                d="M1148.54 941.175C1137.73 963.47 1135.4 988.011 1135.66 1012.98C1135.92 1037.96 1138.94 1063.45 1139.9 1087.65C1149.49 1146.41 1170.23 1200.85 1186.65 1259.61C1216.89 1367.63 1200.47 1485.15 1118.38 1565.51C1104.55 1579.17 1091.16 1592.82 1077.93 1606.73C1024.18 1660.57 983.567 1723.65 929.988 1778.09C844.435 1866.23 776.166 1980.3 658.639 2023.5C637.035 2032.15 612.838 2022.64 595.554 2007.09C549.494 1965.61 517.606 1917.3 483.731 1867.7C472.41 1851.2 460.917 1834.43 448.646 1817.84C344.945 1670.94 150.507 1666.62 -12.8211 1656.25C-115.657 1649.33 -218.493 1613.9 -286.763 1529.22C-301.886 1509.78 -310.355 1487.48 -311.478 1465.01C-312.602 1442.55 -306.639 1419.82 -292.812 1399.43C-273.8 1372.72 -259.714 1342.65 -252.455 1311.2C-248.653 1290.72 -243.468 1269.98 -248.653 1248.37C-267.665 1174.92 -263.344 1097.15 -235.69 1025.43C-191.618 913.091 -129.398 811.987 -109.522 688.415C-93.9666 595.089 -41.2523 515.588 42.1401 474.542C61.6703 462.617 81.6327 451.383 101.941 440.495C162.865 408.004 226.381 379.401 287.91 350.539C340.624 326.343 403.709 315.109 459.016 340.169C573.95 391.153 689.749 435.224 814.449 453.803C838.386 457.605 862.41 460.457 886.52 462.617C958.938 469.184 1032.22 469.789 1105.41 472.382C1188.37 474.974 1290.35 515.588 1305.04 608.915C1316.27 684.959 1277.38 749.769 1234.18 811.987C1213.44 839.639 1193.56 864.699 1176.28 892.178C1166.25 907.992 1156.92 924.238 1148.54 941.175Z"
                stroke="white" stroke-miterlimit="10" />
            <path
                d="M1126.5 939.792C1112.93 966.58 1111.9 995.788 1113.8 1025.51C1114.83 1055.67 1119.15 1084.19 1123.48 1114.43C1140.76 1252.7 1224.58 1413.42 1116.56 1532.68C1102.91 1547.8 1089.17 1562.4 1075.34 1576.92C1046.56 1606.99 1018.05 1634.64 992.122 1669.21C908.297 1779.82 831.386 1878.33 722.501 1963.88C701.761 1979.43 680.156 1994.12 655.095 1991.53C562.889 1979.26 525.989 1886.62 475.694 1812.57C465.67 1797.79 455.04 1783.71 443.374 1771.18C324.983 1632.05 130.544 1662.3 -37.1045 1634.64C-136.484 1618.22 -247.098 1580.2 -289.442 1483.42C-302.405 1454.04 -291.17 1422.93 -275.788 1395.1C-257.986 1373.16 -246.061 1347.92 -240.098 1321.05C-234.135 1294.17 -234.135 1265.57 -240.012 1236.54C-272.159 1109.25 -207.346 989.134 -151.175 877.661C-122.657 821.492 -87.2263 764.459 -87.2263 703.97C-88.0905 580.398 12.1532 506.947 106.866 456.914C127.174 444.729 147.569 432.891 168.309 421.83C230.442 388.56 295.255 361.772 368.278 349.674C452.966 334.984 514.322 395.474 586.048 424.854C665.552 456.827 748.512 474.11 833.633 481.887C853.682 483.788 873.817 485.171 893.952 486.294C974.406 490.615 1055.03 489.664 1135.75 491.393C1197.1 492.257 1263.64 527.686 1283.52 589.904C1306.85 665.084 1265.37 736.807 1221.3 799.889C1197.97 832.726 1173.77 858.65 1153.64 891.66C1143.61 907.128 1134.62 923.201 1126.5 939.792Z"
                stroke="white" stroke-miterlimit="10" />
            <path
                d="M1105.33 939.014C1090.64 969.346 1085.8 1001.23 1086.92 1030.96C1089.77 1081.6 1107.06 1128.26 1118.29 1179.24C1140.59 1280.09 1155.1 1391.04 1106.36 1480.83C1096.6 1498.8 1084.33 1515.82 1069.03 1531.81C1046.56 1554.28 1026.69 1577.61 1006.81 1604.4C912.618 1730.56 846.077 1870.55 706.945 1944C647.318 1974.25 588.554 1926.72 550.531 1879.19C537.827 1862.6 525.21 1845.75 512.334 1829.16C499.458 1812.48 486.323 1796.06 472.755 1780.25C350.043 1612.26 132.272 1645.96 -55.2523 1609.67C-138.213 1593.25 -220.309 1562.14 -265.246 1486.96C-275.616 1470.11 -277.776 1452.14 -274.665 1434.6C-273.023 1427.34 -272.159 1420.42 -268.702 1413.51C-254.011 1385.86 -235.432 1357.34 -223.765 1328.05C-212.099 1298.75 -207.346 1268.68 -220.136 1237.4C-254.011 1170.6 -243.641 1092.83 -201.297 1029.75C-122.658 912.226 -60.4374 799.025 -44.0181 660.763C-34.5123 576.942 29.4363 511.268 101.594 473.764C119.137 463.308 137.025 453.457 155.346 444.211C210.134 416.472 267.688 393.745 324.982 374.734C377.697 357.452 434.732 363.501 482.261 396.338C582.505 465.468 691.39 491.393 805.029 504.009C827.497 505.91 850.052 506.947 872.693 507.379C963.085 509.366 1054.08 502.626 1145.17 507.811C1190.97 510.403 1238.5 532.871 1257.51 576.942C1303.31 680.638 1217.76 776.557 1155.54 857.786C1146.89 869.02 1138.25 879.389 1131.77 891.919C1122.09 907.128 1113.28 922.769 1105.33 939.014Z"
                stroke="white" stroke-miterlimit="10" />
            <path
                d="M1085.28 939.274C1071.11 962.087 1068 987.233 1068.6 1013.07C1069.21 1038.91 1073.7 1065.26 1075.34 1090.41C1084.67 1152.46 1108.87 1212.08 1110.6 1276.03C1112.76 1351.21 1090.29 1419.47 1057.45 1483.85C1046.48 1505.28 1034.29 1526.37 1021.42 1547.11C936.902 1675.26 865.175 1811.79 727.772 1901.66C669.873 1938.82 607.653 1905.98 567.901 1858.45C554.074 1842.21 540.334 1825.53 526.507 1808.94C512.681 1792.35 498.595 1775.84 484.163 1759.94C358.772 1595.76 139.273 1616.5 -48.252 1591.44C-129.484 1580.2 -225.407 1545.64 -252.196 1460.95C-258.677 1441.08 -255.048 1421.81 -246.752 1403.57C-231.37 1379.12 -215.469 1353.89 -205.444 1326.92C-195.42 1299.96 -191.358 1271.19 -199.395 1239.13C-250.468 1108.38 -161.458 989.134 -94.9171 879.389C-46.5236 800.753 -37.8819 717.796 -22.3269 629.654C-6.77183 545.833 75.3243 507.811 142.297 470.74C168.309 456.827 194.839 443.952 221.628 431.854C248.417 419.756 275.812 408.263 303.465 397.202C357.044 376.463 416.671 379.919 463.336 416.213C565.309 496.577 688.021 513.86 808.4 526.044C833.374 528.205 858.435 529.674 883.496 530.451C933.618 532.007 983.999 530.711 1034.55 525.958C1114.06 517.317 1233.31 509.539 1250.6 610.643C1262.69 685.823 1220.35 749.769 1176.28 807.666C1152.94 837.047 1128.75 862.106 1110.51 893.475C1101.18 908.338 1092.8 923.546 1085.28 939.274Z"
                stroke="white" stroke-miterlimit="10" />
            <path
                d="M1065.92 940.656C1055.2 965.111 1049.24 989.566 1049.41 1014.19C1051.49 1047.38 1056.93 1079.52 1062.46 1111.67C1078.02 1220.64 1094.96 1337.21 1052.18 1443.06C1043.62 1464.24 1032.65 1484.98 1018.82 1505.11C979.071 1563.01 946.233 1621.77 903.889 1683.12C843.397 1768.67 788.954 1867.18 682.661 1890.51C649.823 1898.29 621.305 1873.23 598.837 1849.9C568.332 1817.93 539.295 1782.5 508.877 1749.14C493.667 1732.46 478.112 1716.22 461.779 1701.18C414.682 1654.6 355.054 1626.95 288.513 1613.99C109.63 1580.29 -102.955 1628.68 -223.075 1467.95C-241.223 1443.32 -236.47 1418.87 -224.198 1394.76C-212.878 1375.14 -200.261 1355.61 -191.446 1334.96C-182.632 1314.31 -177.706 1292.45 -181.595 1268.25C-184.879 1251.4 -188.335 1234.64 -191.619 1217.78C-210.112 1145.63 -196.286 1071.31 -153.941 1005.64C-83.0796 895.03 -10.4893 790.47 -6.16847 657.393C-3.57596 577.028 71.6068 522.588 139.358 487.158C155.258 478.517 171.591 470.481 188.097 462.963C237.7 440.322 289.81 422.262 342.956 407.658C384.436 396.424 425.916 411.114 458.755 437.039C540.851 501.849 635.045 530.365 733.042 543.414C755.597 546.611 778.411 548.426 801.139 549.376C915.209 554.129 1030.23 535.896 1143.95 538.056C1182.84 538.056 1224.32 566.572 1230.37 608.915C1243.33 704.834 1175.93 786.927 1117.51 854.243C1098.24 881.722 1080.27 910.325 1065.92 940.656Z"
                stroke="white" stroke-miterlimit="10" />
            <path
                d="M1047.69 942.817C1035.07 965.111 1031.36 989.653 1031.36 1014.71C1031.36 1039.77 1035.24 1065.44 1037.75 1089.89C1058.66 1207.76 1082 1334.79 1017.18 1446.26C1006.99 1463.98 997.134 1481.43 987.369 1498.8C951.506 1562.06 922.988 1625.14 882.373 1687.36C833.115 1764.26 771.759 1831.67 685.342 1859.32C654.232 1869.69 623.122 1855.86 603.246 1829.94C576.716 1792.78 549.581 1755.28 519.853 1721.4C504.99 1704.47 489.521 1688.48 473.102 1673.87C334.489 1554.28 143.507 1591.44 -30.1907 1557.74C-100.188 1543.91 -176.235 1520.58 -207.345 1453.17C-215.123 1436.76 -212.53 1417.75 -204.148 1403.05C-192.309 1380.59 -181.68 1357.26 -174.939 1333.06C-168.199 1308.86 -165.433 1283.8 -169.236 1257.71C-193.432 1174.92 -188.247 1085.92 -138.125 1009.01C-86.2753 929.509 -28.3759 863.835 -5.04334 771.372C7.91921 720.388 7.05504 671.133 20.8818 621.013C34.7085 569.165 78.7811 538.056 122.854 513.342C148.001 499.429 174.358 486.899 200.802 475.147C227.245 463.395 253.689 452.334 279.268 441.359C330.254 419.756 396.796 410.25 440.004 451.729C527.285 532.957 644.812 547.648 755.253 560.955C777.03 563.029 798.807 564.585 820.584 565.535C907.952 569.338 995.838 564.326 1084.59 552.833C1129.53 546.784 1186.56 551.968 1204.71 596.903C1243.6 694.551 1154.59 787.013 1096.17 859.6C1077.67 886.129 1060.91 913.782 1047.69 942.817Z"
                stroke="white" stroke-miterlimit="10" />
            <path
                d="M1030.49 945.668C1012.95 974.53 1017.27 1008.23 1017.96 1040.29C1020.29 1070.1 1024.79 1099.48 1029.02 1129.04C1040.6 1224.18 1040.6 1322.69 1011.22 1415.15C1004.31 1437.62 995.665 1459.14 985.64 1480.05C927.395 1587.12 855.669 1682.17 777.894 1781.55C735.55 1836.85 656.91 1850.68 608.517 1792.78C582.332 1761.07 555.716 1727.88 527.026 1697.47C512.68 1682.26 497.817 1667.74 482.262 1654.52C445.189 1621.68 403.709 1597.49 353.587 1587.98C202.357 1557.74 57.1765 1568.97 -86.2757 1521.44C-114.793 1511.94 -147.2 1493.79 -167.767 1469.77C-188.334 1445.74 -196.976 1416.02 -180.297 1383.35C-169.582 1363.82 -159.989 1343 -154.286 1321.48C-148.582 1299.96 -146.854 1277.67 -152.039 1255.11C-181.421 1173.19 -172.779 1080.73 -116.608 1010.74C-22.4135 894.944 14.7458 766.187 44.1275 621.013C57.9543 553.61 127.088 525.958 180.234 493.639C199.246 483.097 218.603 473.591 238.22 465.814C297.07 442.396 358.253 434.36 418.313 462.012C502.137 542.376 620.529 563.98 731.143 582.559C751.278 584.892 771.413 586.447 791.548 587.225C892.137 591.114 992.467 577.115 1094.01 564.844C1132.9 560.523 1178.7 576.078 1189.07 615.828C1214.99 714.339 1126.85 792.111 1075.17 865.649C1058.14 891.401 1042.68 918.016 1030.49 945.668Z"
                stroke="white" stroke-miterlimit="10" />
            <path
                d="M1014.16 948.693C1006.12 965.889 1003.87 984.468 1003.79 1003.31C1003.7 1022.14 1005.69 1041.41 1006.29 1059.99C1019.78 1159.37 1027.55 1259.61 999.899 1359.85C993.159 1384.48 984.517 1408.07 974.579 1430.88C964.555 1453.78 953.321 1475.99 941.222 1498.2C910.89 1551.69 884.101 1606.13 852.99 1660.57C815.831 1726.24 757.068 1804.01 677.564 1792.78C604.974 1781.55 566.086 1709.82 512.508 1661.43C497.817 1648.04 482.348 1635.59 466.188 1624.45C426.955 1597.49 384.61 1579.34 337.081 1570.7C178.938 1542.18 18.2025 1563.78 -124.386 1479.1C-141.669 1469.16 -155.323 1453.61 -161.804 1435.81C-166.816 1424.66 -167.68 1411.7 -165.088 1400.46C-159.471 1378.86 -149.706 1358.72 -142.62 1338.16C-135.533 1317.59 -130.953 1296.33 -135.706 1272.57C-142.187 1250.36 -147.545 1227.64 -150.916 1204.65C-159.903 1143.81 -148.669 1083.33 -112.374 1030.61C-28.5492 909.634 45.7694 793.84 51.8186 647.801C55.2753 561.387 152.062 521.637 225.862 493.466C247.985 485.171 270.454 477.653 292.922 470.653C333.538 457.691 381.932 454.235 413.042 485.344C496.002 565.708 610.936 577.806 716.711 594.397C735.636 597.249 754.562 599.409 773.4 600.965C867.768 608.569 961.357 600.274 1058.58 582.991C1097.46 576.078 1144.99 578.67 1162.28 616.692C1203.76 711.747 1103.51 797.296 1055.38 872.303C1039.65 897.19 1025.57 922.509 1014.16 948.693Z"
                stroke="white" stroke-miterlimit="10" />
            <path
                d="M999.379 952.149C985.293 984.9 989.614 1020.33 989.701 1054.38C991.083 1079.35 992.812 1104.24 994.54 1129.21C997.392 1177.6 1006.9 1225.99 995.663 1275.25C986.417 1316.73 975.615 1357.43 962.566 1397.09C956.084 1416.88 948.998 1436.41 941.221 1455.68C892.827 1567.33 837.52 1676.21 731.228 1751.39C699.253 1773.86 655.181 1785.95 626.663 1754.84C596.417 1721.75 565.134 1688.05 531.604 1657.8C514.839 1642.68 497.47 1628.51 479.408 1615.63C437.41 1585.47 390.745 1563.01 338.03 1553.5C184.208 1525.85 27.7934 1550.04 -109.61 1463.63C-138.127 1446.35 -151.349 1410.92 -137.781 1380.07C-128.016 1357 -121.017 1333.23 -118.338 1308.95C-115.659 1284.75 -117.387 1260.04 -125.078 1235.07C-149.361 1171.55 -148.497 1098.1 -105.289 1040.2C-35.291 945.15 39.0276 859.6 52.8543 742.078C61.496 658.257 83.9644 565.795 169.344 530.883C197.343 515.761 227.157 503.922 257.663 495.8C288.168 487.677 319.364 483.183 350.129 482.924C384.695 482.06 403.707 513.169 432.225 532.18C511.728 584.892 601.602 588.348 688.538 604.594C707.031 607.964 725.438 610.643 743.844 612.717C835.878 623.087 927.221 618.161 1021.59 603.039C1063.07 596.126 1119.24 590.077 1139.98 630.691C1184.05 716.24 1090.72 795.741 1046.48 865.131C1028.42 893.388 1012.34 922.337 999.379 952.149Z"
                stroke="white" stroke-miterlimit="10" />
            <path
                d="M985.727 955.519C977.171 972.284 972.851 990.344 974.32 1007.89C976.912 1038.3 979.591 1067.17 981.06 1095.68C984.344 1180.19 995.578 1264.02 973.11 1348.7C967.925 1367.88 961.53 1386.38 954.185 1404.26C946.839 1422.24 938.457 1439.61 929.296 1456.54C877.187 1545.72 821.88 1627.82 757.067 1713.37C734.599 1743.61 688.798 1760.03 656.824 1732.38C606.702 1690.03 557.012 1647 503.606 1612.26C485.804 1600.6 467.571 1589.88 448.472 1580.38C315.477 1517.21 166.839 1521.53 20.7948 1501.65C-10.3154 1497.33 -50.7585 1485.41 -79.4489 1465.01C-108.139 1444.62 -125.423 1415.67 -112.374 1377.65C-106.238 1355.35 -99.4977 1332.37 -96.6459 1309.21C-93.7078 1286.05 -94.5719 1262.72 -103.559 1239.56C-145.126 1156.86 -114.016 1062.67 -57.8447 992.677C16.4739 900.215 74.3733 797.383 76.1016 678.996C76.9658 611.594 133.137 564.93 189.567 535.291C217.998 518.354 247.726 503.404 277.367 497.355C307.008 491.306 336.562 494.244 364.734 512.996C461.521 578.67 565.222 588.176 669.008 610.298C686.465 613.236 703.748 616.779 721.031 620.408C772.882 631.21 824.473 642.271 878.915 635.79C946.321 628.876 1011.13 609.865 1079.4 617.643C1117.43 621.099 1135.57 661.714 1126.93 697.143C1110.51 765.41 1067.3 818.122 1028.16 872.908C1011.91 899.869 997.22 927.262 985.727 955.519Z"
                stroke="white" stroke-miterlimit="10" />
            <path
                d="M972.851 958.717C964.037 979.888 962.481 1001.41 963.778 1022.58C965.074 1043.66 968.963 1064.57 970.864 1084.79C984.172 1202.23 961.444 1319.15 915.989 1426.99C906.742 1448.59 896.545 1469.94 885.052 1491.46C839.164 1563.01 810.647 1650.28 732.871 1698.68C709.539 1713.37 679.293 1719.41 656.824 1702.13C607.135 1663.68 559.173 1623.67 508.014 1591.52C490.99 1580.81 473.534 1570.87 455.386 1562.14C421.77 1545.72 387.203 1534.49 349.18 1527.58C227.505 1505.97 103.41 1519.8 -8.67273 1472.44C-31.0547 1463.03 -53.0046 1451.1 -74.2632 1435.98C-95.0033 1423.02 -101.052 1396.23 -95.0033 1373.76C-89.8182 1354.32 -86.3616 1335.05 -85.2382 1315.6C-84.1147 1296.16 -85.4974 1276.46 -89.7318 1256.15C-95.781 1227.64 -103.559 1199.38 -106.324 1170.26C-114.879 1104.06 -83.7691 1045.3 -45.7456 989.998C-0.808754 924.324 47.5848 870.748 71.7815 796.432C86.4724 748.041 77.8307 697.921 93.3858 649.529C114.99 584.719 181.531 548.425 242.282 526.044C262.331 519.823 282.552 516.539 302.774 517.403C322.996 518.267 343.217 523.279 363.007 533.735C457.201 583.855 558.309 607.187 659.935 624.729C680.848 628.271 701.848 631.814 723.625 635.012C827.066 651.258 930.766 647.801 1037.06 633.111C1062.12 629.654 1093.23 636.567 1099.28 663.355C1120.02 748.041 1051.75 814.579 1011.31 880.512C996.616 906.091 983.308 931.929 972.851 958.717Z"
                stroke="white" stroke-miterlimit="10" />
            <path
                d="M960.838 961.741C952.369 980.925 952.196 1000.63 953.752 1019.98C955.308 1039.34 958.505 1058.52 956.949 1076.93C960.233 1178.38 965.418 1282.94 925.666 1378.86C916.333 1401.33 905.791 1423.19 894.038 1444.53C850.484 1522.31 796.041 1589.71 739.006 1662.3C714.809 1693.4 669.872 1696 640.49 1670.94C601.171 1636.37 559.863 1604.57 515.791 1578.99C501.1 1570.44 486.063 1562.57 470.595 1555.49C412.35 1528.27 350.994 1517.03 287.045 1508.39C179.024 1492.84 71.0026 1492.84 -26.6485 1441.85C-50.8453 1428.89 -80.6592 1405.65 -73.9186 1374.28C-70.7212 1341.61 -59.487 1307.91 -68.9929 1275.08C-77.2025 1254.08 -84.2022 1232.56 -89.128 1210.61C-103.56 1154.1 -94.0538 1094.47 -59.487 1046.08C27.7942 923.374 85.6935 804.123 111.619 656.356C126.31 574.263 217.911 545.747 291.366 532.785C312.106 529.328 330.254 534.772 347.537 543.068C364.82 551.364 381.24 562.597 398.523 570.807C475.434 608.829 559.259 619.198 641.7 635.357C658.465 638.814 675.316 642.011 692.081 644.777C776.251 658.603 860.854 662.837 947.271 652.035C988.751 646.85 1038.01 643.394 1064.8 678.823C1119.24 750.547 1030.23 825.726 995.924 887.771C982.442 911.967 970.344 936.422 960.838 961.741Z"
                stroke="white" stroke-miterlimit="10" />
            <path
                d="M949.69 964.766C939.493 994.924 939.839 1025.69 942.864 1054.98C946.147 1084.19 951.505 1112.27 949.172 1140.36C949.863 1224.18 931.456 1304.54 900.433 1380.24C889.976 1405.47 878.137 1430.28 864.829 1454.64C832.25 1512.71 797.683 1567.15 756.203 1624.19C736.327 1650.98 700.896 1669.12 670.65 1652.7C619.664 1625.05 570.579 1594.81 520.112 1568.62C503.26 1559.9 486.323 1551.6 468.953 1544C350.821 1492.75 223.788 1489.3 95.0266 1470.28C69.5336 1466.4 41.4481 1461.82 16.9057 1452.22C-7.63671 1442.63 -28.5497 1427.94 -40.2159 1403.83C-53.4377 1380.93 -54.6476 1355.79 -54.1291 1330.29C-53.6106 1304.8 -51.4502 1278.88 -57.9314 1254.25C-89.9057 1180.8 -87.3132 1098.71 -39.7839 1029.58C39.7198 913.782 94.1624 804.037 120.088 667.503C135.643 584.546 229.837 539.611 308.477 555.166C325.76 558.795 342.698 562.943 359.29 567.436C442.423 590.077 518.988 621.531 603.677 633.629C625.713 638.382 647.663 643.567 669.613 648.838C775.128 679.515 884.014 678.651 993.763 666.553C1017.1 663.96 1047.34 667.417 1055.98 691.613C1083.64 767.656 1010.18 829.874 981.405 894.598C969.307 917.67 958.332 940.829 949.69 964.766Z"
                stroke="white" stroke-miterlimit="10" />
            <path
                d="M939.062 967.531C929.211 988.789 928.606 1010.48 930.421 1031.91C932.235 1053.43 936.297 1074.94 935.692 1096.03C945.716 1185.98 928.952 1272.22 896.2 1353.11C887.99 1373.33 878.83 1393.2 868.719 1412.73C828.881 1484.28 786.536 1553.41 731.229 1617.36C714.81 1636.37 685.428 1640.69 662.96 1627.73C614.134 1598.35 565.309 1571.13 514.928 1548.66C498.163 1541.14 481.139 1534.23 463.942 1527.84C355.316 1489.47 242.109 1478.23 126.311 1461.82C102.287 1458.53 72.7321 1453.61 46.1157 1444.19C19.4992 1434.77 -4.35187 1420.68 -17.3144 1399.51C-23.1908 1390.18 -28.3758 1380.67 -29.2399 1369.44C-31.4004 1349.13 -31.6596 1329 -33.0423 1309.12C-34.425 1289.25 -37.0175 1269.55 -43.9308 1250.1C-50.4121 1233.51 -56.2885 1216.32 -60.3501 1198.69C-72.4484 1150.73 -66.3992 1098.88 -37.8816 1055.67C43.3503 931.237 103.842 813.715 128.039 667.676C142.73 582.127 247.294 546.697 324.205 572.621C342.353 578.843 360.587 584.373 378.907 589.385C470.509 614.705 563.84 628.099 655.615 650.739C676.7 655.405 697.268 660.504 718.44 665.256C809.005 689.193 904.063 686.601 997.394 688.329C1041.47 689.193 1050.11 741.905 1037.15 776.471C1020.73 822.27 993.073 861.156 968.358 901.338C957.123 922.941 947.099 944.891 939.062 967.531Z"
                stroke="white" stroke-miterlimit="10" />
            <path
                d="M929.295 970.469C922.468 997.776 922.987 1024.74 924.888 1051.52C926.876 1078.23 929.9 1104.93 928.172 1131.63C926.012 1210.35 907.691 1288.56 877.013 1361.84C866.73 1386.29 855.063 1410.14 842.014 1433.47C793.448 1499.06 747.647 1639.91 647.403 1595.84C609.38 1578.99 572.393 1559.29 534.802 1541.58C515.963 1532.68 496.951 1524.29 477.508 1517.03C370.091 1480.05 258.613 1468.82 144.543 1452.4C116.457 1448.08 82.0635 1444.62 53.3731 1433.73C24.6826 1422.84 1.35006 1404.52 -7.1188 1371C-14.7235 1352.07 -17.1431 1332.71 -18.4394 1312.93C-19.6492 1293.22 -19.6493 1273.09 -22.2418 1252.78C-23.1059 1245 -23.9701 1237.23 -28.291 1231.18C-69.7711 1176.74 -59.4011 1102.42 -23.9701 1046.25C50.3485 926.139 112.569 815.53 138.494 675.54C155.777 581.349 271.576 558.017 349.351 593.447C371.215 599.496 392.819 605.372 414.25 610.989C478.717 627.84 542.32 642.789 607.997 655.924C634.441 661.541 660.971 667.417 687.76 673.293C782.214 696.279 879.865 701.464 976.652 698.007C995.664 697.143 1015.54 709.241 1019.86 729.116C1035.42 798.247 980.973 850.959 955.998 907.733C945.715 928.04 936.554 948.779 929.295 970.469Z"
                stroke="white" stroke-miterlimit="10" />
            <path
                d="M920.049 973.234C913.654 994.665 913.222 1016.61 914.691 1038.48C916.16 1060.34 919.358 1082.2 920.135 1103.55C922.901 1135.17 923.765 1168.01 913.395 1199.12C894.383 1258.31 876.841 1319.06 853.422 1376.61C845.558 1395.8 837.002 1414.63 827.41 1433.13C787.226 1501.57 730.191 1618.22 638.589 1576.75C595.381 1557.3 552.777 1536.3 509.309 1518.68C487.532 1509.86 465.496 1501.83 442.855 1495.17C427.732 1490.33 413.041 1486.88 396.622 1483.42C303.723 1466.83 215.664 1458.1 127.865 1435.11C110.322 1430.53 92.7795 1425.35 75.1504 1419.47C23.9052 1401.33 4.3749 1351.12 -4.09396 1300.14C-6.94572 1283.11 -8.50122 1266.09 -9.53822 1250.1C-9.53822 1243.19 -9.53822 1235.41 -12.9949 1228.5C-43.2408 1172.33 -46.6975 1103.2 -13.8591 1047.03C59.5953 921.732 119.223 802.481 155.518 659.899C177.987 570.029 286.872 588.176 356.61 607.619C388.325 614.705 419.781 622.741 451.583 628.704C469.471 632.592 487.273 636.394 505.161 640.283C540.851 647.974 576.628 655.492 613.096 662.837C634.182 668.022 654.835 673.898 675.575 679.947C720.772 694.378 764.844 704.747 812.374 710.796C875.458 718.574 961.875 678.823 997.306 742.769C1027.55 798.074 971.381 860.292 944.419 913.436C935.086 932.793 926.79 952.495 920.049 973.234Z"
                stroke="white" stroke-miterlimit="10" />
            <path
                d="M911.408 975.913C907.26 986.801 905.272 997.43 904.235 1007.97C903.112 1028.88 906.396 1049.45 909.161 1069.93C912.013 1090.41 914.346 1110.98 911.754 1131.72C903.112 1196.09 889.89 1261.16 867.854 1322.52C860.509 1343 852.213 1363.05 842.707 1382.49C798.461 1456.72 742.29 1582.88 645.503 1557.82C590.369 1543.56 539.729 1515.65 485.545 1496.04C467.484 1489.47 449.077 1483.77 429.806 1479.79C352.55 1461.9 275.638 1453.26 195.271 1439.44C170.642 1435.11 145.149 1431.4 121.384 1424.23C97.6195 1417.05 75.5832 1406.17 56.8307 1387.85C38.856 1371.25 28.4859 1349.65 21.5726 1326.32C18.1159 1312.49 16.3876 1299.53 12.9309 1285.71C7.05452 1264.53 -0.550186 1243.88 -8.41413 1223.4C-32.006 1171.64 -38.0551 1109.42 -5.21669 1058.44C75.1511 932.274 116.631 802.654 162.432 665.256C184.036 602.175 267.861 599.582 327.316 610.47C346.673 613.236 366.031 617.211 385.302 621.618C423.93 630.432 462.558 640.974 501.792 646.85C524.519 650.825 547.593 654.714 571.098 658.343C590.11 661.8 608.257 666.121 627.269 670.441C645.589 675.626 663.91 680.638 682.23 685.477C774.005 709.5 866.644 727.906 961.703 734.387C977.258 736.116 989.356 749.078 989.356 764.632C991.085 820.801 959.11 870.921 933.444 919.139C925.148 937.286 917.544 956.038 911.408 975.913Z"
                stroke="white" stroke-miterlimit="10" />
            <path
                d="M903.371 978.592C900.174 999.504 900.433 1020.33 901.557 1041.16C902.766 1061.89 904.408 1082.72 903.976 1103.63C901.125 1192.55 873.644 1279.4 838.04 1361.92C830.954 1378.43 823.522 1394.76 815.831 1410.83C778.672 1484.28 702.625 1562.06 611.023 1528.35C577.752 1516.26 544.482 1504.76 510.952 1494.48C494.187 1489.3 477.336 1484.46 460.311 1479.96C368.191 1454.9 277.453 1445.4 179.802 1426.39C158.198 1422.07 136.334 1417.31 116.718 1408.76C97.1009 1400.2 79.4718 1387.93 64.4353 1369.01C56.2256 1358.98 47.5839 1346.89 44.1273 1333.92C39.1151 1316.38 33.4979 1299.45 27.4487 1282.77C21.486 1266.09 15.1775 1249.58 8.86909 1233.17C-30.2778 1168.01 -12.9944 1090.24 21.5724 1026.29C82.0643 914.819 139.964 811.123 165.889 682.366C182.308 599.409 277.367 608.051 340.538 626.803C364.216 631.21 387.721 636.049 411.227 640.888C458.237 650.653 505.075 660.331 553.037 666.812C569.456 668.54 585.011 671.133 600.739 675.713C623.207 680.725 645.244 686.601 667.28 692.909C751.018 722.117 837.435 735.079 926.445 737.671C951.506 738.535 973.11 762.731 972.246 788.655C971.382 837.911 948.049 882.846 923.593 924.151C915.815 941.52 908.816 959.494 903.371 978.592Z"
                stroke="white" stroke-miterlimit="10" />
            <path
                d="M895.766 981.184C891.445 1008.23 892.05 1035.45 893 1062.67C893.951 1089.89 894.988 1117.29 892.05 1144.33C889.371 1211.48 871.05 1276.11 841.496 1335.57C831.644 1355.35 820.583 1374.62 808.484 1393.2C764.066 1449.72 715.673 1548.23 629.256 1519.71C576.714 1501.57 524.778 1485.32 471.89 1472.44C454.261 1468.12 436.546 1464.24 418.571 1460.61C326.969 1434.94 224.738 1440.82 138.666 1401.5C121.469 1393.64 104.791 1383.96 88.4582 1372.03C67.5453 1358.03 54.5827 1336.43 50.2619 1311.37C44.6448 1280.26 35.1389 1251.49 24.4232 1223.31C-2.45247 1170.52 -11.0941 1105.71 18.2876 1052.13C82.2362 936.336 127.173 820.542 173.838 699.563C184.208 671.91 193.714 634.753 227.417 630.432C274.082 624.383 319.883 633.024 365.684 638.295C388.584 641.579 411.398 645.468 434.213 649.702C479.754 657.998 525.21 667.417 570.665 675.28C591.491 679.601 612.145 684.44 632.799 689.971C720.08 715.204 804.768 751.497 898.099 748.905C920.567 748.041 945.628 761.003 953.406 783.47C971.553 835.318 935.258 883.71 914.259 928.904C907 945.495 900.605 962.778 895.766 981.184Z"
                stroke="white" stroke-miterlimit="10" />
            <path
                d="M888.42 983.69C887.21 987.06 885.395 989.653 885.309 993.196C887.124 1021.54 888.42 1049.62 888.161 1077.62C887.901 1105.62 886.173 1133.62 882.198 1161.36C872.519 1229.1 846.162 1292.45 812.891 1352.24C804.595 1367.19 795.781 1381.88 786.707 1396.4C755.338 1456.63 699.167 1523.17 623.984 1505.02C591.146 1497.25 560.208 1486.01 529.444 1475.3C498.679 1464.58 467.829 1454.47 435.249 1448.94C372.511 1436.76 309.426 1429.84 243.749 1419.47C215.664 1415.58 185.591 1411.01 159.061 1400.46C132.531 1389.92 109.025 1373.33 91.0506 1346.19C80.5941 1326.32 70.6562 1306.19 61.2367 1285.88C51.8173 1265.57 42.9163 1245 34.7067 1224.18C9.64577 1168.87 3.59659 1104.93 28.6575 1048.76C53.7184 993.455 86.5569 942.471 109.025 885.438C141 805.074 152.234 712.611 217.911 652.986C265.44 608.915 340.623 652.986 401.72 653.677C420.213 656.356 438.533 659.121 456.94 662.059C493.667 667.935 530.222 674.416 566.689 682.021C593.047 687.206 619.317 693.254 645.329 700.427C705.302 715.203 759.745 739.399 820.237 754.954C840.113 759.274 859.125 756.682 879 758.41C902.333 759.274 928.258 768.78 936.9 791.247C955.047 839.639 926.53 890.623 905.358 933.398C898.704 949.298 892.914 965.889 888.42 983.69Z"
                stroke="white" stroke-miterlimit="10" />
            <path
                d="M881.508 986.11C881.94 989.739 878.397 991.467 878.397 994.06C878.138 1023.7 881.162 1053.51 882.027 1083.07C882.891 1112.62 881.594 1142 872.953 1170.52C855.669 1221.07 842.016 1276.2 821.362 1327.18C814.449 1344.21 806.844 1360.71 797.943 1376.53C768.302 1429.76 720.773 1482.47 657.688 1485.93C603.85 1489.21 552 1472.01 499.631 1458.45C482.175 1453.95 464.633 1449.8 447.004 1447.04C378.129 1430.19 307.959 1423.53 238.479 1408.84C215.32 1403.92 192.246 1398.22 169.346 1390.87C127.002 1377.91 99.3481 1339.89 83.793 1301C77.4846 1285.01 70.9169 1269.2 64.09 1253.56C57.3494 1237.83 50.4361 1222.19 43.782 1206.55C9.47444 1143.81 16.3878 1066.91 56.1396 1004.69C107.99 922.596 133.915 836.182 169.346 749.769C184.037 714.339 197.863 667.676 235.023 655.578C284.28 639.16 337.859 646.937 389.104 656.01C411.054 659.64 433.004 664.133 454.954 668.799C498.854 678.218 542.494 688.329 585.703 693.859C607.653 698.871 629.603 704.488 651.38 710.71C722.414 729.03 789.82 762.731 864.138 766.187C889.199 767.916 916.853 780.014 925.494 805.074C941.049 850.009 917.717 897.536 896.804 937.632C890.841 952.841 885.57 968.827 881.508 986.11Z"
                stroke="white" stroke-miterlimit="10" />
            <path
                d="M875.113 988.702C874.076 1006.85 873.904 1025 873.817 1043.23C873.817 1070.45 874.076 1097.76 872.175 1124.72C870.274 1151.68 866.126 1178.38 857.484 1204.3C839.25 1264.79 810.733 1321.83 773.833 1373.42C762.858 1388.8 751.191 1403.83 738.661 1418.26C713.081 1443.67 690.613 1485.15 649.997 1479.1C585.184 1469.59 523.828 1449.72 459.534 1439.78C440.09 1436.5 420.56 1433.21 400.684 1429.93C338.118 1416.97 270.454 1415.15 210.307 1391.39C190.259 1383.44 170.988 1373.07 152.84 1359.16C133.483 1344.9 117.409 1327.36 104.101 1307.91C90.8792 1288.47 80.5091 1267.04 72.7316 1245C62.3616 1216.49 49.4854 1188.14 42.6585 1158.85C30.3873 1115.38 39.8931 1072.18 56.3124 1031.56C102.978 920.954 157.42 816.394 198.9 703.192C229.146 621.099 327.662 666.034 391.265 666.639C412.696 669.059 434.214 671.737 455.645 674.676C498.508 680.552 541.198 687.465 583.888 696.02C604.369 700.859 624.418 706.562 644.294 712.784C728.723 741.127 815.14 763.595 896.372 798.16C945.63 819.764 917.112 892.351 893.607 930.546C886.348 948.606 879.953 967.704 875.113 988.702Z"
                stroke="white" stroke-miterlimit="10" />
            <path
                d="M868.804 991.122C867.853 994.233 866.125 997.689 866.038 1001.23C866.816 1028.54 867.853 1055.93 867.248 1083.32C866.643 1110.63 864.396 1137.94 858.52 1164.73C845.212 1229.45 819.114 1291.32 784.374 1347.75C772.794 1366.59 760.264 1384.82 746.956 1402.28C678.341 1494.65 552.172 1449.72 456.854 1435.98C435.25 1431.66 413.645 1426.9 391.782 1421.98C331.895 1401.93 261.984 1405.65 204.516 1381.11C185.332 1372.9 167.53 1361.58 151.111 1345.42C128.383 1317.94 107.729 1287.78 90.1867 1255.81C81.3722 1239.82 73.4218 1223.4 66.3356 1206.64C37.1266 1152.46 45.7683 1088.51 67.3726 1032.34C103.668 938.15 142.555 847.416 184.036 754.954C199.591 718.66 218.602 672.861 261.811 665.084C310.204 657.306 356.005 667.676 403.103 672.861C423.583 675.28 443.891 677.959 464.113 680.897C504.643 686.773 544.826 693.687 585.01 702.328C606.442 706.908 626.836 712.957 646.626 719.87C666.761 726.61 686.291 734.214 705.908 741.905C758.708 764.546 814.015 776.643 869.322 794.79C931.542 814.665 914.259 892.438 885.482 934.867C879.087 952.149 873.211 970.555 868.804 991.122Z"
                stroke="white" stroke-miterlimit="10" />
            <path
                d="M862.928 993.455C861.804 1021.19 862.582 1049.02 862.15 1076.84C861.718 1104.67 860.076 1132.41 854.113 1159.89C841.669 1230.83 809.349 1295.73 767.351 1353.63C753.351 1372.9 738.315 1391.48 722.5 1409.19C674.107 1466.22 592.011 1454.99 527.112 1441.25C509.05 1437.97 491.335 1434.68 473.706 1431.48C447.349 1426.65 421.424 1421.89 394.98 1417.23C346.154 1409.36 283.502 1401.07 231.738 1379.29C214.455 1372.03 198.468 1363.3 184.209 1352.68C167.703 1339.2 148.692 1327.1 139.186 1308.09C128.988 1288.38 117.668 1269.11 106.347 1249.93C95.0266 1230.66 83.6195 1211.48 73.5088 1192.12C54.497 1156.86 44.127 1114.52 58.8179 1076.5C111.532 940.829 152.148 798.247 240.294 681.589C292.144 668.627 346.586 672.083 399.387 677.095C420.559 679.255 441.731 682.28 462.904 685.65C505.162 692.39 547.247 700.6 588.727 707.513C611.109 712.784 633.232 718.833 655.095 725.659C681.884 733.437 708.155 742.51 734.512 752.275C789.906 772.323 846.077 792.198 891.878 831.084C924.716 859.6 890.149 905.4 878.051 938.842C872.088 955.433 866.817 973.321 862.928 993.455Z"
                stroke="white" stroke-miterlimit="10" />
            <path
                d="M857.139 995.356C857.571 1023.44 857.225 1051.44 855.41 1079.35C853.596 1107.26 850.312 1135 844.954 1162.48C832.251 1225.04 806.326 1282.94 768.475 1334.1C757.327 1349.57 745.142 1364.43 732.266 1378.51C719.39 1392.6 705.65 1405.99 691.218 1418.61C634.269 1462.59 559.087 1430.62 494.274 1427.08C472.929 1423.79 451.757 1420.16 430.585 1416.1C379.944 1400.89 310.119 1395.62 252.393 1376.61C233.122 1370.3 215.233 1362.35 199.851 1352.07C164.334 1329.52 141.347 1296.68 122.681 1260.47C113.348 1242.41 105.052 1223.4 96.7558 1204.56C61.4113 1146.32 57.0905 1076.33 86.4722 1013.24C131.409 916.461 174.618 822.27 208.32 720.302C212.641 708.204 220.419 697.834 233.381 694.378C296.465 677.959 359.55 678.823 422.375 684.44C440.782 685.996 459.189 688.07 477.509 690.576C514.15 695.501 550.618 702.069 586.826 709.068C612.319 715.117 636.775 722.981 660.367 732.054C684.564 740.782 707.897 750.806 731.316 761.176C781.265 785.112 835.707 798.938 880.644 834.368C912.618 860.292 886.693 909.547 870.965 942.385C865.521 958.63 860.595 975.999 857.139 995.356Z"
                stroke="white" stroke-miterlimit="10" />
            <path
                d="M851.347 997.516C849.532 1005.64 849.532 1012.55 849.532 1020.33C849.532 1052.3 848.841 1084.71 845.73 1116.85C842.619 1149 837.002 1180.8 827.064 1211.65C814.966 1248.46 796.818 1284.75 773.831 1315.86C762.424 1331.94 749.807 1347.23 736.326 1361.58C717.747 1381.88 696.315 1400.89 672.378 1413.94C624.848 1442.81 568.677 1425.52 517.432 1419.56C492.112 1416.19 466.964 1412.82 441.904 1409.02C416.929 1405.22 392.041 1400.98 366.98 1395.88C345.635 1391.65 321.87 1386.98 298.106 1380.67C274.341 1374.37 250.749 1366.42 229.836 1355.61C198.726 1339.97 169.344 1319.23 153.789 1288.13C143.16 1267.56 131.667 1247.25 120.433 1226.86C108.161 1204.74 95.1123 1182.44 86.7299 1159.2C80.335 1139.49 74.2858 1119.62 78.6067 1098.02C111.445 950.248 162.431 808.53 255.761 694.464C308.476 678.91 365.511 681.502 419.349 688.243C441.471 691.181 463.594 695.156 485.717 699.476C529.876 708.031 573.776 718.142 616.984 724.709C640.576 729.894 663.909 736.202 686.896 743.72C755.77 766.274 820.756 800.148 874.507 850.009C903.889 876.797 872.779 919.139 862.063 951.977C857.828 965.889 854.026 980.925 851.347 997.516Z"
                stroke="white" stroke-miterlimit="10" />
            <path
                d="M845.99 999.59C847.373 1027.24 847.2 1055.07 845.126 1082.89C843.052 1110.72 839.163 1138.37 833.028 1165.76C827.411 1190.56 819.46 1214.41 809.177 1237.4C794.313 1271.79 772.709 1304.63 748.598 1332.97C736.327 1347.4 723.019 1360.97 708.847 1373.42C694.674 1385.86 679.638 1397.27 663.823 1407.46C640.318 1422.24 613.529 1426.56 586.048 1422.15C562.715 1418.18 539.383 1414.81 516.137 1411.7C498.767 1409.36 481.397 1407.12 464.114 1404.7C446.83 1402.36 429.72 1399.86 412.609 1397.18C390.487 1392.43 365.426 1388.19 339.932 1382.92C314.439 1377.65 288.687 1371.17 265.268 1361.75C243.318 1353.89 222.405 1341.96 204.517 1326.41C190.258 1315 178.16 1301.17 169.518 1285.62C159.148 1266.61 149.383 1248.46 139.445 1230.4C129.507 1212.34 119.396 1194.45 108.162 1175.96C83.8791 1137.85 72.6449 1088.6 91.6566 1046.25C125.359 970.21 152.148 893.302 183.259 816.394C199.678 777.508 216.961 739.486 249.8 711.833C282.638 683.317 328.439 696.279 368.018 693.859C391.091 694.378 414.251 695.674 437.411 697.748C506.804 704.142 575.246 717.709 640.923 740.35C664.687 748.041 688.106 756.682 711.439 766.101C763.203 787.013 816.781 804.296 859.99 840.589C893.692 869.106 872.952 920.09 855.928 955.26C851.867 968.741 848.41 983.431 845.99 999.59Z"
                stroke="white" stroke-miterlimit="10" />
            <path
                d="M840.72 1001.66C840.979 1019.9 840.979 1038.3 840.374 1056.71C839.51 1084.28 837.436 1111.93 833.201 1139.15C828.967 1166.37 822.572 1193.16 813.153 1219.17C805.375 1240.08 795.437 1260.21 783.598 1279.05C771.759 1297.89 757.846 1315.52 742.032 1331.42C726.217 1347.32 708.502 1361.58 688.885 1373.67C669.355 1385.69 649.479 1394.59 629.344 1401.07C609.295 1407.46 588.987 1411.35 568.593 1413.08C548.198 1414.89 527.631 1414.63 507.064 1412.82C476.213 1410.14 445.276 1403.92 414.598 1395.97C394.549 1387.59 371.216 1381.45 347.279 1375.32C323.255 1369.18 298.626 1362.96 275.985 1354.4C256.887 1347.58 238.221 1338.42 222.061 1326.23C198.814 1301.69 176.173 1274.9 156.038 1246.21C145.927 1231.87 136.508 1217.09 127.952 1201.88C35.5727 1042.62 190.259 883.623 234.332 733.264C280.133 683.144 359.636 705.612 420.301 701.291C445.016 702.76 469.645 705.266 494.101 708.895C543.013 716.24 591.234 728.079 638.158 744.757C661.577 752.534 684.564 761.348 707.465 770.854C759.661 793.667 816.696 810.086 855.584 850.7C883.237 879.216 865.089 925.016 849.794 958.026C846.164 971.506 842.967 985.851 840.72 1001.66Z"
                stroke="white" stroke-miterlimit="10" />
            <path
                d="M835.794 1003.65C836.658 1023.18 836.658 1042.71 835.707 1062.24C832.856 1120.83 821.189 1178.81 795.783 1232.04C785.326 1253.82 772.623 1274.56 758.105 1293.91C728.982 1332.54 692.514 1365.64 651.639 1389.23C636.948 1397.87 620.529 1402.19 604.11 1401.33C581.382 1400.03 558.741 1398.73 536.1 1397.18C502.138 1394.76 468.262 1391.65 434.732 1386.9C417.968 1384.56 401.203 1381.71 384.524 1378.43C368.537 1374.63 351.859 1371.08 335.18 1366.76C318.502 1362.53 301.996 1357.6 286.268 1351.21C262.417 1342.13 240.035 1328.05 220.85 1310.51C205.641 1293.22 190.95 1275.08 177.296 1255.98C163.642 1236.97 150.939 1217.09 139.618 1196.44C106.434 1143.73 97.7927 1078.05 118.533 1018.43C154.828 913.868 189.395 804.123 268.034 725.487C307.786 684.872 379.512 708.204 436.374 706.908C460.744 708.636 484.941 711.401 508.965 715.376C557.013 723.24 604.196 735.684 649.824 753.485C672.984 761.78 695.712 771.286 718.18 781.483C765.018 804.123 815.14 823.998 851.435 862.02C875.632 887.08 859.213 926.83 845.732 955.606C841.67 970.21 838.213 986.023 835.794 1003.65Z"
                stroke="white" stroke-miterlimit="10" />
            <path
                d="M830.867 1005.73C832.423 1033.72 831.472 1061.72 828.447 1089.63C825.336 1117.54 820.151 1145.28 813.065 1172.68C806.238 1197.22 796.732 1220.64 784.807 1242.67C749.117 1308.35 690.958 1361.92 620.528 1385.69C549.234 1409.45 478.631 1396.75 409.152 1377.13C385.992 1370.56 363.006 1363.22 340.019 1356.22C311.328 1350.26 279.008 1340.58 252.651 1324.07C230.788 1311.37 209.183 1295.82 199.677 1272.48C191.209 1253.65 181.271 1235.5 171.073 1217.44C160.876 1199.38 150.247 1181.58 140.655 1163.52C72.6444 1016.7 204.862 874.118 254.12 741.041C305.106 707.34 369.919 705.612 428.682 709.5C452.966 711.747 477.422 715.722 501.705 720.647C550.271 730.671 598.233 744.843 643.861 757.46C662.7 762.472 681.279 768.348 699.513 775.434C754.129 796.519 805.028 827.455 845.212 871.525C868.545 896.585 847.805 931.151 839.854 958.544C836.311 972.802 833.114 988.356 830.867 1005.73Z"
                stroke="white" stroke-miterlimit="10" />
            <path
                d="M825.942 1007.54C826.201 1027.59 825.769 1047.72 824.387 1067.86C820.152 1128.09 807.19 1187.71 778.758 1241.29C767.006 1262.89 752.747 1283.03 736.5 1300.91C703.921 1336.86 662.873 1364.17 616.208 1377.13C551.914 1394.93 487.015 1387.5 422.202 1372.81C400.598 1367.88 378.994 1362.27 357.476 1356.39C339.501 1351.64 320.748 1347.58 303.206 1341.1C250.578 1311.63 204.172 1266.18 171.506 1212.95C160.618 1195.14 151.198 1176.57 143.767 1157.47C123.631 1105.01 133.137 1048.85 152.149 996.998C180.667 922.682 207.456 849.231 238.566 776.643C267.084 710.105 357.821 712.697 422.548 712.784C444.066 713.907 465.756 716.5 487.188 719.956C530.223 726.956 572.74 737.671 613.616 748.127C633.491 753.485 652.59 760.398 671.083 768.434C689.922 776.125 708.069 785.112 725.871 794.877C764.845 817.258 805.461 837.133 835.707 869.97C860.768 897.622 844.349 937.373 832.596 968.568C829.917 980.493 827.584 993.368 825.942 1007.54Z"
                stroke="white" stroke-miterlimit="10" />
            <path
                d="M821.361 1009.61C821.879 1031.48 821.62 1053.69 819.978 1075.81C815.139 1142.17 798.72 1207.85 760.264 1262.55C748.598 1279.14 735.203 1294.43 720.166 1308.09C705.13 1321.74 688.538 1333.66 670.563 1343.43C588.381 1388.45 494.877 1391.39 406.646 1369.27C389.017 1364.86 371.56 1359.42 354.45 1353.11C337.944 1348.1 321.611 1341.7 306.056 1333.75C290.501 1325.89 275.724 1316.47 262.157 1305.58C246.429 1290.54 231.133 1273.95 216.788 1256.15C202.529 1238.35 189.221 1219.25 177.381 1199.29C167.616 1183.22 158.715 1166.2 151.629 1148.57C135.556 1109.16 132.099 1063.36 146.79 1023.61C177.036 941.52 198.64 859.428 245.305 782.52C284.193 717.709 363.696 721.166 429.805 718.833C455.039 719.092 480.1 721.08 504.988 724.795C554.764 732.14 603.504 746.226 650.169 765.928C671.341 774.483 691.995 784.248 712.13 794.963C752.659 816.221 790.683 840.417 825.25 872.39C853.767 898.314 839.076 939.792 827.324 971.074C824.904 982.826 822.83 995.529 821.361 1009.61Z"
                stroke="white" stroke-miterlimit="10" />
        </g>
    </g>
    <defs>
        <clipPath id="clip0">
            <rect width="1708" height="799" fill="white" />
        </clipPath>
    </defs>
</svg>