<svg width="1082" height="1072" viewBox="0 0 1082 1072" fill="none" xmlns="http://www.w3.org/2000/svg">
<g opacity="0.06">
<g clip-path="url(#clip0)">
<path d="M1081.8 525.86C1078.99 675.661 1016.04 825.016 907.683 929.282C895.662 940.331 883.071 950.815 870.075 960.731C804.93 1010.31 728.291 1045.65 644.788 1062.04C627.609 1065.4 610.145 1067.99 592.437 1069.69C450.653 1082.04 304.036 1038.73 192.672 950.046C182.6 941.829 172.853 933.289 163.39 924.384C125.578 888.765 92.8836 847.683 66.7687 802.593C58.849 789.155 51.5384 775.312 44.7965 761.186C39.1917 749.407 33.9525 737.386 29.2007 725.122C24.4488 712.858 20.1031 700.351 16.2448 687.641C10.5182 669.751 6.29432 651.618 3.57318 633.242C0.892649 614.866 -0.244545 596.288 0.40528 577.548C0.730193 562.329 2.35476 547.757 5.60388 531.972C17.7881 474.092 25.9109 420.259 32.003 363.998C33.1402 354.162 34.6023 344.448 36.5518 334.815C42.3596 305.955 52.0664 278.189 67.1748 252.77C74.7291 239.413 83.1768 226.34 92.1931 213.671C116.927 178.821 145.682 146.967 177.767 118.796C193.81 104.71 210.705 91.5554 228.332 79.4531C310.169 21.9776 411.704 -4.73638 511.615 0.930224C676.508 10.2396 852.773 59.62 964.909 187.523C977.54 202.661 989.236 218.892 999.999 235.77C1010.76 252.649 1020.63 270.134 1029.53 288.227C1036.92 303.284 1043.66 318.746 1049.59 334.531C1058.2 357.36 1064.62 380.916 1069.41 404.838C1074.2 428.759 1077.33 453.004 1079.4 477.249C1080.78 493.277 1081.63 509.467 1081.8 525.86Z" stroke="black" stroke-miterlimit="10"/>
<path d="M1068.68 524.444C1066.81 682.542 995.329 840.398 874.259 943.611C860.49 954.661 846.154 965.063 831.329 974.737C786.776 1003.76 737.633 1026.34 685.241 1041.2C669.726 1045.61 653.886 1049.29 637.803 1052.29C484.81 1079.2 320.323 1035.9 197.871 940.737C189.018 933.492 180.367 925.923 172 918.111C130.127 878.971 94.5898 833.031 67.7033 782.113C59.4586 766.975 51.945 751.392 45.1624 735.444C40.6543 724.799 36.471 713.992 32.6533 702.983C28.8356 691.933 25.424 680.721 22.4185 669.145C19.6162 658.419 17.3012 647.652 15.5548 636.886C13.8084 626.079 12.6305 615.231 12.1026 604.343C8.85343 564.313 22.2561 527.075 29.5666 487.004C36.471 448.147 40.5324 411.719 45.0812 373.51C46.5027 362.46 47.9648 351.329 49.4675 340.077C55.1535 299.601 71.3991 262.364 94.5898 229.295C104.215 215.088 114.491 201.407 125.416 188.212C149.987 158.543 177.686 131.587 208.025 107.827C223.215 95.9275 239.014 84.8777 255.381 74.9206C337.421 24.3664 435.301 6.15234 531.151 14.6522C692.795 29.2235 865.405 78.6039 969.255 210.312C979.652 224.236 989.359 238.726 998.335 253.702C1005.52 265.683 1012.27 277.947 1018.52 290.494C1040.13 332.549 1053.33 377.882 1060.64 424.469C1063.07 440.012 1064.86 455.676 1066.12 471.38C1067.58 488.825 1068.52 506.473 1068.68 524.444Z" stroke="black" stroke-miterlimit="10"/>
<path d="M1054.95 522.501C1053 677.281 985.176 833.112 867.517 935.233C854.073 946.08 840.021 956.28 825.481 965.792C781.821 994.246 733.653 1016.39 682.316 1030.92C667.086 1035.21 651.612 1038.85 635.854 1041.81C479.977 1067.06 310.616 1021.73 189.464 920.176C178.052 910.097 167.086 899.533 156.648 888.483C125.254 855.334 98.3671 817.934 77.2072 777.094C69.125 762.199 61.7332 746.939 55.0725 731.275C50.6456 720.833 46.5435 710.228 42.807 699.421C39.4767 690.233 36.4712 680.964 33.8719 671.574C31.2726 662.183 29.0795 652.712 27.3737 643.119C22.6624 617.7 20.2256 591.796 26.7239 566.296C45.0002 492.226 55.966 420.988 62.0581 347.322C62.9922 337.203 64.5762 327.206 66.81 317.411C73.5519 287.985 86.1017 260.097 103.484 235.205C112.907 221.281 122.979 207.843 133.701 194.931C157.786 165.87 184.916 139.439 214.645 116.165C229.51 104.508 245.025 93.7013 260.986 84.1086C330.923 41.3257 413.37 22.3021 495.004 25.9449C663.553 34.0401 850.784 79.3729 960.564 216.829C970.798 230.266 980.302 244.473 989.115 259.126C996.182 270.864 1002.76 282.885 1008.89 295.19C1030.38 335.827 1041.95 380.351 1048.21 425.643C1050.28 440.74 1051.82 455.959 1052.88 471.097C1054.1 487.935 1054.87 505.016 1054.95 522.501Z" stroke="black" stroke-miterlimit="10"/>
<path d="M1040.57 520.073C1039.19 688.209 960.402 860.636 819.755 957.008C805.5 966.318 790.757 974.939 775.567 982.791C745.188 998.536 713.021 1011.33 679.474 1020.84C664.569 1025.05 649.379 1028.61 633.946 1031.44C471.855 1055.32 294.371 1004.32 174.356 892.126C162.619 880.388 151.45 868.124 140.931 855.293C109.333 816.841 83.4215 773.694 64.739 727.228C58.2407 711.887 52.4735 696.183 47.5592 679.83C42.9292 667.121 39.8019 654.412 37.8525 641.743C29.161 586.574 46.6251 533.551 61.6523 480.528C73.0243 440.457 69.7751 400.386 73.3898 359.951C74.5676 349.387 76.0703 338.903 78.0198 328.582C83.8276 297.537 93.6562 267.747 112.257 241.114C121.396 227.474 131.265 214.319 141.743 201.65C155.877 184.569 171.148 168.42 187.353 153.282C203.558 138.144 220.778 124.058 238.852 111.146C292.3 73.342 354.439 49.0566 420.64 41.3662C547.356 26.3901 671.229 54.7232 787.386 102.08C860.085 132.032 926.286 179.388 968.565 246.254C978.028 260.583 986.801 275.397 994.802 290.656C1001.18 302.88 1007.07 315.387 1012.14 328.137C1019.09 345.056 1024.25 362.501 1028.11 380.27C1031.96 398.038 1034.56 416.091 1036.39 434.183C1037.61 446.245 1038.46 458.347 1039.03 470.328C1040.13 486.559 1040.66 503.073 1040.57 520.073Z" stroke="black" stroke-miterlimit="10"/>
<path d="M1025.55 517.199C1027.46 680.154 951.913 847.319 818.902 945.23C803.793 955.389 788.035 964.739 771.789 973.199C755.544 981.658 738.73 989.268 721.509 995.987C707.7 1001.33 693.607 1006.11 679.27 1010.27C568.922 1044.84 452.766 1020.96 345.544 983.722C284.217 962.27 226.139 932.318 181.504 885.326C170.051 873.831 159.126 861.729 148.85 849.141C117.984 811.336 92.6404 768.877 74.2422 723.302C67.8658 708.285 62.2205 692.864 57.4686 676.754C52.8792 664.288 49.8738 651.862 48.2086 639.436C43.8223 609.322 47.4775 578.965 56.8188 550.227C77.9381 487.085 90.1223 422.729 86.1422 356.753C86.8732 347.039 88.1729 337.406 89.9599 327.894C95.4022 299.359 105.474 271.916 121.152 246.902C129.802 233.545 139.468 220.633 149.744 208.248C162.212 193.191 175.574 178.862 189.708 165.303C203.842 151.784 218.747 139.075 234.384 127.256C309.804 68.9707 406.872 43.471 501.909 49.9471C674.925 62.4946 874.34 108.637 969.743 267.302C976.038 277.664 982.008 288.268 987.532 299.075C999.269 320.892 1007.35 343.963 1013 367.682C1018.64 391.4 1021.81 415.726 1023.64 440.093C1024.37 449.847 1024.77 459.562 1024.98 469.235C1025.67 484.738 1025.87 500.685 1025.55 517.199Z" stroke="black" stroke-miterlimit="10"/>
<path d="M1009.95 513.92C1017.71 628.345 973.439 735.606 912.111 834.367C883.275 880.914 846.316 918.556 800.423 945.23C786.289 954.135 771.627 962.311 756.519 969.718C741.41 977.125 725.855 983.803 709.934 989.672C697.181 994.367 684.185 998.536 670.985 1002.22C557.591 1035.17 440.216 1003.6 331.776 964.739C273.698 944.097 219.275 913.74 177.646 867.638C167.614 856.952 158.07 845.821 149.054 834.245C122.045 799.517 99.7887 760.944 83.5431 719.456C77.2885 704.723 71.765 689.585 67.1756 673.678C64.089 663.559 61.5709 653.278 59.8651 642.836C55.1945 617.053 54.7883 589.124 65.348 564.839C96.2147 492.792 99.87 415.888 101.088 339.389C101.901 327.732 103.891 316.318 106.937 305.187C116.034 271.754 134.392 240.831 157.542 214.683C167.614 202.541 178.255 190.843 189.424 179.712C199.212 169.958 209.366 160.648 219.966 151.744C293.599 87.2252 391.885 54.8446 489.359 61.3207C659.532 72.2492 857.323 112.725 956.462 264.954C962.31 274.142 967.834 283.533 973.073 293.125C986.11 315.104 994.72 338.66 1000.37 363.027C1006.01 387.393 1008.81 412.529 1010.15 437.664C1010.6 447.702 1010.72 457.7 1010.6 467.576C1010.76 482.43 1010.52 497.811 1009.95 513.92Z" stroke="black" stroke-miterlimit="10"/>
<path d="M993.827 510.156C993.339 540.068 996.588 569.615 990.496 600.377C965.722 727.875 914.142 850.112 810.21 926.854C791.934 939.806 772.439 951.018 752.173 960.813C737.349 968.058 722.118 974.615 706.522 980.363C694.013 984.977 681.301 989.065 668.345 992.586C627.041 1004.32 583.99 1009.99 540.533 1001.9C417.878 979.229 291.162 960.611 198.927 876.947C189.058 867.354 179.676 857.114 170.863 846.347C162.822 836.471 155.186 826.272 147.916 815.829C131.589 792.272 117.212 767.339 104.662 741.596C100.479 733.015 96.4987 724.354 92.681 715.611C86.3858 703.306 81.4309 690.718 77.735 677.928C55.6003 608.107 84.4363 537.68 110.023 472.918C113.678 462.8 115.303 451.871 114.897 441.347C114.491 400.467 106.774 359.586 117.049 318.989C120.827 300.978 126.147 283.452 133.904 266.937C141.662 250.423 151.774 234.921 165.137 220.876C175.006 208.976 185.444 197.522 196.369 186.634C208.675 174.369 221.671 162.753 235.236 151.865C295.995 102.161 372.756 75.042 451.141 71.804C551.458 67.7564 648.932 91.2323 744.781 122.803C826.415 149.517 903.582 195.255 948.054 270.176C953.781 279.202 959.183 288.39 964.259 297.78C976.403 318.949 984.079 341.656 988.953 365.091C993.786 388.527 995.817 412.691 996.426 436.814C996.507 446.407 996.304 455.959 995.776 465.43C995.41 479.718 994.72 494.532 993.827 510.156Z" stroke="black" stroke-miterlimit="10"/>
<path d="M977.337 506.028C980.708 668.012 917.756 843.676 777.881 935.839C756.112 948.792 733.043 959.923 709 969.111C696.978 973.725 684.753 977.853 672.285 981.415C631.061 993.801 588.417 997.444 544.553 990.158C458.858 975.991 378.848 955.754 298.432 926.611C253.35 910.421 213.549 882.492 182.844 846.105C174.397 836.067 166.396 825.665 158.801 814.938C141.743 790.774 126.797 765.072 113.841 738.601C109.536 729.778 105.434 720.873 101.576 711.887C96.9862 701.202 92.8029 690.395 89.2289 679.385C61.6519 613.734 95.3616 548.568 119.73 487.045C127.041 468.426 130.29 448.593 128.665 428.355C125.416 391.927 119.324 355.094 128.056 319.151C131.63 302.273 136.666 285.921 143.855 270.418C151.044 254.916 160.385 240.304 172.61 226.988C182.276 215.331 192.51 204.119 203.233 193.393C214.401 182.262 226.139 171.658 238.364 161.701C277.313 130.008 321.988 107.342 371.537 93.9847C445.861 74.5563 517.342 81.0324 592.884 96.0085C684.672 113.818 768.337 132.841 848.753 183.031C882.869 204.483 910.08 231.197 932.012 263.416C940.541 275.923 948.501 288.916 955.69 302.313C966.006 320.73 972.301 340.36 976.2 360.598C980.058 380.796 981.48 401.6 981.967 422.283C982.089 436.005 981.52 449.645 980.627 462.881C979.733 476.602 978.556 490.849 977.337 506.028Z" stroke="black" stroke-miterlimit="10"/>
<path d="M960.727 501.656C970.149 636.4 924.255 766.732 837.747 874.802C813.379 905.564 781.294 925.802 747.015 942.073C734.141 948.387 720.941 954.135 707.579 959.518C687.759 967.37 667.209 973.927 646.211 978.056C625.214 982.184 603.81 983.925 582.285 982.103C496.589 974.413 417.391 948.104 332.914 925.842C286.614 913.295 243.563 893.462 209.163 860.514C198.116 850.031 187.8 838.576 178.174 826.434C169.889 815.708 162.132 804.617 154.781 793.244C138.291 767.582 124.117 740.342 112.095 712.333C108.115 702.983 104.338 693.511 100.845 683.919C87.5643 648.179 81.4722 606.893 99.3424 572.489C138.332 498.418 145.236 418.276 135.489 336.92C134.677 330.849 137.114 325.182 137.682 319.394C139.997 308.061 143.49 296.93 147.917 286.123C156.811 264.549 169.605 244.433 185.079 226.786C194.542 215.736 204.533 205.172 215.011 195.053C254.041 156.803 299.529 126.851 352.328 110.256C477.013 71.3992 602.51 105.804 724.759 140.208C807.205 163.684 885.997 205.779 931.078 279.404C946.146 300.654 955.853 324.251 961.661 348.901C967.469 373.551 969.459 399.212 968.89 424.671C968.443 434.79 967.469 444.828 965.844 454.624C964.463 469.357 962.635 484.98 960.727 501.656Z" stroke="black" stroke-miterlimit="10"/>
<path d="M944.156 497.204C942.125 525.497 946.186 553.425 943.75 581.758C936.033 673.233 901.105 757.827 851.149 837.969C816.627 893.421 763.829 929.849 704.167 950.897C685.891 958.182 667.005 964.173 647.754 967.856C628.503 971.539 608.927 972.956 589.229 971.135C503.533 963.444 425.148 935.111 339.453 915.278C310.617 908.397 285.03 899.088 259.037 884.921C239.136 873.588 220.859 860.636 205.385 844C194.623 832.708 184.55 820.646 175.209 807.855C168.305 798.101 161.806 788.103 155.714 777.863C146.536 762.523 138.169 746.697 130.493 730.506C122.817 714.316 115.913 697.721 109.658 680.721C98.5703 648.138 95.7273 612.52 106.693 579.329C122.533 532.782 157.055 492.307 154.618 441.712C152.993 399.212 140.403 355.903 151.856 313.687C154.74 301.828 158.435 290.211 163.106 279.04C172.447 256.738 185.809 236.136 204.857 218.569C215.255 207.438 226.22 196.793 237.674 186.755C285.761 144.175 345.87 114.223 410.852 108.151C528.633 96.818 642.352 125.961 754.041 161.984C822.273 183.436 885.225 223.507 923.239 284.302C934.814 300.573 942.531 318.382 947.527 336.961C952.522 355.539 954.756 374.927 955.284 394.396C955.447 413.743 955.04 432.767 950.776 451.75C948.705 465.916 946.349 480.933 944.156 497.204Z" stroke="black" stroke-miterlimit="10"/>
<path d="M927.747 492.549C929.575 563.139 927.138 633.567 903.175 701.566C873.527 784.946 832.913 871.159 754.569 916.856C734.83 928.311 713.548 937.58 692.104 945.675C669.523 954.337 645.926 959.477 622.004 960.894C598.082 962.311 573.795 959.963 549.833 953.689C483.226 936.689 423.117 919.69 354.885 905.523C302.899 894.595 254.569 878 216.879 842.219C206.157 832.141 196.166 820.888 186.865 808.867C179.554 798.951 172.691 788.67 166.233 778.146C156.567 762.32 147.794 745.968 139.793 729.17C131.833 712.413 124.644 695.211 118.308 677.604C103.85 644.859 109.13 607.622 120.908 574.432C136.747 529.099 169.645 488.218 166.802 439.243C164.365 399.981 152.587 360.315 160.425 320.608C163.024 308.708 166.436 297.011 170.904 285.799C179.798 263.335 192.713 242.571 211.558 224.762C221.752 213.833 232.475 203.431 243.725 193.636C292.705 150.691 354.439 121.144 420.233 115.477C511.615 108.192 596.092 135.31 687.474 155.144C732.962 164.858 774.794 175.786 815.408 197.238C856.835 219.095 891.357 249.857 915.482 289.159C927.585 306.725 934.773 326.153 938.632 346.391C942.49 366.629 943.099 387.677 942.002 408.562C940.946 422.364 938.794 435.964 935.707 448.957C933.108 462.395 930.265 476.764 927.747 492.549Z" stroke="black" stroke-miterlimit="10"/>
<path d="M911.542 487.935C909.227 543.751 914.507 599.608 899.886 656.274C868.207 778.106 807.286 906.009 679.636 940.373C654.292 949.116 627.934 951.949 601.616 950.532C575.298 949.116 548.98 943.449 523.799 935.151C446.226 910.057 370.278 896.7 290.675 876.057C263.463 868.771 240.313 853.391 221.103 833.598C213.386 825.948 206.116 817.529 199.212 808.786C191.414 798.91 184.103 788.467 177.239 777.741C169.523 765.639 162.334 753.173 155.673 740.504C149.013 727.794 142.839 714.842 137.194 701.647C118.511 664.369 114.044 621.465 129.071 581.798C146.941 534.846 181.463 491.942 178.214 440.943C176.183 398.848 161.156 355.944 172.528 313.889C175.655 301.949 179.717 290.292 184.794 279.121C194.947 256.819 209.284 236.459 229.266 219.419C293.964 151.946 387.377 107.827 483.632 128.875C635.529 161.66 816.668 153.565 907.724 293.894C918.812 311.056 924.782 329.756 927.544 349.144C930.306 368.532 929.9 388.527 928.113 408.279C926.569 421.352 924.011 434.143 920.802 446.366C917.593 459.116 914.385 472.797 911.542 487.935Z" stroke="black" stroke-miterlimit="10"/>
<path d="M895.663 483.807C892.17 535.251 900.699 585.846 887.296 637.655C866.177 720.225 847.088 803.605 785.761 866.343C755.301 897.914 717.936 919.366 676.834 931.752C659.533 937.499 642.109 940.049 624.726 940.373C572.578 941.304 520.632 921.795 470.961 904.795C429.535 890.223 388.109 883.747 344.246 877.676C291.853 869.986 240.68 849.343 207.863 807.289C200.39 798.182 193.486 788.548 187.232 778.43C180.165 767.258 173.504 755.804 167.29 744.066C161.076 732.368 155.268 720.468 149.867 708.406C143.815 696.264 138.698 683.595 134.961 670.643C118.025 618.996 141.987 568.806 167.574 523.068C199.253 465.593 182.602 401.236 177.728 339.713C176.916 331.213 176.509 322.713 179.962 314.699C182.926 303.447 187.272 292.518 192.633 282.035C203.396 261.069 218.301 241.964 235.359 225.531C304.85 151.096 409.634 118.715 511.982 143.001C585.899 160.405 653.319 177.405 728.049 188.738C794.656 198.453 855.983 233.262 893.795 288.228C909.472 311.178 915.848 337.365 917.067 364.322C917.676 377.801 916.985 391.441 915.361 404.96C913.452 418.398 910.203 431.512 905.898 444.019C902.283 456.243 898.709 469.316 895.663 483.807Z" stroke="black" stroke-miterlimit="10"/>
<path d="M880.311 480.326C878.768 489.878 878.362 499.592 878.768 509.306C886.078 623.043 861.304 733.947 796.321 833.112C758.144 891.397 697.223 928.23 629.925 930.254C610.674 930.618 591.464 927.987 572.335 923.697C534.076 915.075 496.183 899.695 459.224 887.754C421.047 875.207 383.276 871.159 343.474 865.088C295.55 858.207 248.437 841.207 216.677 804.293C208.676 795.186 201.244 785.513 194.502 775.272C186.988 763.818 180.043 751.877 173.667 739.654C166.478 725.892 159.939 711.766 154.01 697.397C138.779 663.559 128.22 622.274 147.714 589.084C191.984 512.18 207.011 427.181 186.826 343.841C184.47 326.396 189.953 309.397 197.507 293.49C202.056 283.33 207.58 273.576 213.915 264.307C220.251 255.038 227.359 246.295 235.075 238.24C300.423 164.534 404.802 124.463 501.463 154.415C572.538 176.677 642.394 187.2 716.312 197.724C782.513 207.033 848.307 236.176 885.835 292.842C899.806 315.347 905.045 340.725 905.33 366.589C905.492 379.501 904.395 392.534 902.324 405.365C899.969 418.114 896.191 430.46 891.44 442.197C887.378 453.814 883.479 466.361 880.311 480.326Z" stroke="black" stroke-miterlimit="10"/>
<path d="M865.486 477.209C864.592 484.252 863.78 491.133 864.186 498.014C874.746 591.513 856.876 684.202 820.729 770.011C804.077 808.867 782.958 845.296 750.06 873.629C713.102 905.604 665.989 923.819 617.78 920.338C595.321 919.245 572.983 914.307 551.864 906.414C471.854 876.867 392.656 860.272 306.961 844.891C276.5 839.629 249.289 824.653 227.966 802.675C221.427 795.915 215.295 788.63 209.568 781.02C203.842 773.411 198.521 765.437 193.607 757.18C187.312 746.697 181.423 735.93 175.94 725.002C167.736 708.609 160.466 691.731 154.82 674.205C129.883 609.322 179.026 550.632 200.958 492.347C206.644 477.371 211.111 462.395 209.893 446.205C205.019 397.229 186.337 347.039 205.75 299.318C209.609 289.199 214.361 279.445 220.209 270.176C226.057 260.907 233.002 252.164 241.288 244.028C275.688 208.207 315.49 176.231 366.663 164.493C446.267 145.875 520.185 171.779 594.102 195.255C603.85 198.493 614.003 200.922 624.157 201.326C721.224 207.803 851.596 215.898 888.555 323.158C893.591 342.142 894.484 362.379 892.819 382.577C891.804 402.896 885.712 422.324 877.426 440.619C873.04 451.831 868.857 463.852 865.486 477.209Z" stroke="black" stroke-miterlimit="10"/>
<path d="M851.434 474.7C849.119 481.783 847.088 488.664 847.901 495.949C864.553 617.781 839.372 740.018 765.048 842.826C737.024 881.683 695.192 904.35 649.257 910.826C631.834 913.254 614.776 911.635 598.084 907.952C581.351 904.228 564.983 898.44 548.859 892.531C529.324 885.366 510.032 877.474 489.725 870.795C440.582 854.605 391.439 849.748 339.859 842.462C292.747 835.986 247.259 816.558 218.626 777.984C210.341 767.541 202.827 756.451 196.126 744.794C188.612 731.842 181.749 718.485 175.494 704.845C140.038 644.131 165.219 577.346 198.928 520.275C215.58 491.537 223.297 459.966 217.205 426.776C209.488 382.658 195.273 337.73 216.068 296.647C220.048 288.147 224.718 279.93 229.998 272.078C235.278 264.226 241.086 256.778 247.422 249.735C298.88 193.636 376.453 149.113 454.838 171.374C545.813 197.279 633.946 218.731 726.952 224.398C790.716 228.04 864.634 260.016 878.971 328.38C882.91 346.715 883.194 365.941 881.001 385.046C878.93 404.069 872.513 422.486 863.984 439.486C859.354 450.293 854.968 461.869 851.434 474.7Z" stroke="black" stroke-miterlimit="10"/>
<path d="M838.396 472.878C836.528 479.354 833.279 485.426 834.497 491.902C851.555 593.091 823.937 688.614 790.634 780.494C776.013 819.755 750.02 851.326 714.685 876.826C656.607 918.111 588.376 900.707 531.313 876.34C517.91 871.078 504.629 865.614 491.308 860.636C465.112 850.719 438.428 844.769 411.258 840.195C384.087 835.622 356.469 832.505 328.446 828.255C283.364 821.779 241.125 801.136 215.823 762.887C209.324 753.901 203.476 744.308 198.48 734.068C192.754 723.342 187.474 712.333 182.6 701.161C150.15 642.026 174.518 577.67 207.416 522.623C224.067 495.504 230.159 465.147 225.692 433.576C220.412 391.886 207.822 350.601 220.534 309.72C223.905 299.48 228.332 289.563 233.977 280.173C239.622 270.783 246.486 261.838 254.893 253.581C308.951 191.126 398.302 156.317 477.093 189.103C561.164 223.912 649.703 235.65 739.46 236.864C792.665 237.269 852.367 267.626 866.988 322.794C871.7 340.765 872.431 360.032 870.4 379.136C868.613 397.998 862.521 416.617 853.504 433.495C848.103 445.597 842.782 458.509 838.396 472.878Z" stroke="black" stroke-miterlimit="10"/>
<path d="M826.09 471.381C823.978 477.371 822.354 483.847 822.76 490.323C834.944 602.036 817.074 714.559 760.214 814.129C728.129 870.39 661.928 910.866 596.945 888.2C550.239 871.605 506.782 849.748 458.695 839.305C438.916 834.529 418.893 830.643 398.627 827.243C378.36 823.884 357.81 821.05 337.015 818.541C304.93 814.898 272.439 805.993 247.664 784.703C234.505 772.844 223.133 758.799 213.589 743.216C206.563 731.761 200.268 719.456 194.419 706.949C174.559 669.185 168.873 624.257 186.337 584.186C206.238 539.258 239.135 497.164 235.48 445.759C232.231 400.831 214.361 355.498 228.819 311.461C232.028 301.949 236.211 292.721 241.491 283.978C246.771 275.195 253.107 266.897 260.783 259.126C313.865 194 408.09 165.262 484.85 205.333C567.297 248.238 657.054 247.428 745.593 247.023C803.671 246.619 864.592 290.737 860.856 353.596C861.018 367.317 859.394 381.241 856.347 394.841C852.977 408.319 847.778 421.312 841.361 433.252C835.919 444.95 830.517 457.457 826.09 471.381Z" stroke="black" stroke-miterlimit="10"/>
<path d="M814.515 470.207C813.378 473.688 811.347 476.926 811.754 480.569C812.566 535.211 822.719 589.853 806.88 644.495C796.726 679.709 787.385 712.09 779.668 748.518C760.986 837.969 673.666 914.064 581.878 872.779C544.107 855.374 505.117 842.017 465.397 831.129C450.613 827.122 435.748 823.479 420.721 820.322C390.667 814.008 360.125 809.515 328.852 807.208C296.767 804.779 265.494 791.018 242.425 767.825C233.815 758.839 226.098 748.801 219.478 737.832C212.614 726.863 206.482 714.923 200.918 702.78C191.211 680.519 181.463 657.043 183.9 631.948C187.556 584.996 216.392 546.949 234.262 504.449C253.757 457.093 237.105 407.307 231.013 358.332C229.388 345.38 230.606 332.427 234.181 320.082C238.364 305.268 245.512 291.264 255.178 278.837C298.391 216.667 382.463 177.405 456.786 207.762C512.021 230.833 566.038 259.976 626.959 262C654.577 263.214 681.788 260.381 709.812 255.928C777.232 245.404 857.241 283.452 850.621 358.777C850.378 371.689 848.428 384.722 845.138 397.431C841.524 410.019 836.203 422.122 829.867 433.252C824.466 444.626 819.105 456.809 814.515 470.207Z" stroke="black" stroke-miterlimit="10"/>
<path d="M804.079 469.681C802.007 473.688 799.977 477.735 800.383 482.188C804.85 526.306 807.693 569.21 800.383 613.734C786.574 699.138 774.796 791.018 706.158 850.517C672.855 879.255 626.961 881.278 587.565 865.088C547.357 848.898 508.368 831.493 466.901 819.391C451.142 814.939 435.018 811.539 418.285 809.879C404.72 807.815 391.033 806.155 377.265 804.536C363.497 802.917 349.688 801.339 335.758 799.517C299.205 794.256 263.871 780.899 239.868 752.566C232.192 743.823 225.328 734.19 219.398 723.666C213.834 713.547 208.717 703.023 204.371 692.338C187.922 656.233 182.236 614.139 206.605 578.52C256.56 506.068 254.936 427.545 238.284 345.784C234.629 328.38 242.751 312.594 251.524 298.468C257.86 287.54 265.495 277.178 274.024 267.666C317.928 215.048 392.658 191.572 458.047 219.5C501.098 237.714 539.275 264.428 587.199 272.523C637.561 281.023 684.673 270.499 733.816 264.833C762.652 261.392 791.488 270.823 812.039 288.552C832.59 306.32 844.815 332.427 840.428 362.339C840.266 387.434 832.143 412.124 819.106 433.536C813.664 444.667 808.384 456.526 804.079 469.681Z" stroke="black" stroke-miterlimit="10"/>
<path d="M794.169 469.316C789.417 481.823 788.605 495.585 789.823 508.942C792.666 540.513 802.007 571.275 794.697 602.846C776.42 681.369 766.673 756.654 718.342 824.248C696.817 854.605 661.889 875.248 624.93 865.129C563.603 848.534 508.367 821.01 447.609 807.734C433.922 804.617 420.113 801.906 406.142 799.598C392.171 797.291 378.077 795.389 363.781 793.891C321.949 789.439 277.273 780.13 247.462 747.709C235.928 735.323 226.262 721.278 218.667 705.776C193.608 662.75 194.014 610.941 219.601 566.822C239.908 531.608 263.058 496.799 259.809 455.919C256.154 403.705 234.222 348.658 261.515 299.278C266.754 289.28 273.049 279.849 280.522 271.107C324.792 215.898 405.614 200.517 468.566 236.135C522.582 267.302 579.036 295.23 641.988 287.944C689.1 282.683 736.619 264.469 783.731 281.064C803.023 287.742 816.222 301.828 823.777 318.787C831.331 335.746 833.199 355.701 829.828 374.077C827.31 395.124 820.365 415.605 808.79 434.102C803.51 444.909 798.352 456.485 794.169 469.316Z" stroke="black" stroke-miterlimit="10"/>
<path d="M784.909 469.276C782.106 475.307 780.076 481.783 780.482 488.259C782.106 536.425 795.103 584.996 778.857 632.757C766.673 669.185 758.144 705.209 748.397 743.256C736.619 787.779 714.281 832.707 670.418 852.136C645.237 863.064 618.838 855.374 594.469 846.874C539.64 828.255 487.248 806.803 431.038 793.648C415.483 790.208 399.806 787.294 383.926 784.987C368.046 782.679 352.003 781.02 335.758 780.089C299.205 778.065 263.871 759.042 242.142 729.211C233.857 718.525 226.831 706.787 221.591 693.957C201.731 662.709 207.011 623.853 219.601 591.067C236.659 547.353 263.058 506.878 266.714 459.521C269.557 425.117 256.966 392.736 253.717 358.736C252.499 347.403 253.717 336.475 256.763 325.506C260.012 314.294 265.455 303.689 272.278 293.935C302.86 250.262 354.034 216.262 411.3 227.595C456.788 236.905 490.497 264.833 531.111 282.642C596.5 310.975 665.95 296.809 735.4 283.047C756.113 278.999 775.608 283.452 792.666 295.594C806.069 305.309 813.989 318.585 818.091 333.075C822.193 347.565 822.517 363.351 820.69 378.124C818.619 398.322 810.821 417.952 799.043 434.952C793.925 445.557 788.93 456.85 784.909 469.276Z" stroke="black" stroke-miterlimit="10"/>
<path d="M776.176 469.681C772.805 479.759 771.18 490.283 771.992 501.211C774.835 531.568 782.552 561.115 775.648 592.282C760.62 662.709 750.061 729.494 717.163 793.041C698.075 829.874 657.054 861.445 614.004 846.469C554.707 825.827 499.472 795.874 437.292 786.565C421.777 783.853 405.856 782.032 389.976 780.21C342.295 774.706 294.899 768.796 258.752 736.132C248.517 725.892 239.826 714.194 232.881 701.283C214.361 667.607 209.487 626.322 225.733 590.298C239.948 558.727 260.255 531.608 267.972 495.99C278.531 447.824 268.378 403.705 260.255 356.348C257.412 337.73 265.941 320.73 274.632 305.066C293.152 274.587 321.176 250.302 356.104 239.374C412.558 221.969 463.731 253.945 510.438 284.302C580.7 329.634 655.024 308.182 730.16 292.802C757.371 287.54 787.02 293.611 802.047 318.706C812.606 336.515 814.231 357.158 811.875 377.032C808.911 397.958 802.29 418.398 789.822 436.369C784.826 446.65 780.034 457.619 776.176 469.681Z" stroke="black" stroke-miterlimit="10"/>
<path d="M767.93 470.49C765.087 476.966 763.056 484.252 763.056 491.133C763.056 521.49 771.585 551.037 768.742 581.798C762.244 653.036 735.033 718.202 711.477 785.391C693.2 837.605 631.061 853.795 583.136 829.105C538.054 806.034 492.973 783.772 443.22 776.932C426.812 774.099 410.039 771.953 393.103 770.011C376.167 768.068 359.068 766.368 341.929 764.344C309.844 760.296 278.977 747.749 257.98 723.261C249.816 714.154 242.709 703.873 237.145 692.216C225.773 665.624 216.025 635.267 227.397 607.339C239.988 574.148 260.295 546.22 269.636 511.006C283.445 459.602 277.759 409.412 269.23 357.603C267.199 343.032 270.042 328.865 276.5 316.075C281.82 305.187 288.643 295.068 296.563 286.083C335.431 239.414 405.287 230.105 458.085 263.7C503.573 292.437 547.842 321.175 601.453 322.794C640.036 323.604 676.183 311.866 714.766 302.961C739.135 296.89 765.94 296.485 784.622 314.294C796.401 325.425 801.802 339.794 803.386 354.972C805.742 383.912 797.619 413.864 781.008 438.231C776.175 448.188 771.585 458.874 767.93 470.49Z" stroke="black" stroke-miterlimit="10"/>
<path d="M760.133 471.583C758.183 476.116 756.559 480.569 756.559 485.426C754.934 522.663 767.931 558.687 758.996 596.734C739.907 678.09 733.409 765.518 666.396 822.588C642.433 843.231 609.536 831.898 583.949 819.755C533.587 796.684 483.632 770.375 428.031 767.46C401.267 764.182 373.974 762.077 346.357 757.423C318.333 752.97 292.746 742.851 271.789 724.678C261.514 715.571 252.457 705.168 245.187 693.309C227.398 667.162 228.616 633.162 238.77 603.615C254.609 557.472 283.039 516.187 286.694 467.212C289.537 430.379 278.166 394.76 276.135 358.332C275.323 344.975 276.947 331.618 282.349 319.273C286.166 310.773 291.406 302.88 297.538 295.635C335.025 245.769 404.069 239.293 457.68 272.888C484.891 289.887 509.666 306.482 538.502 319.03C600.641 346.149 664.405 322.673 728.576 309.316C751.726 304.459 776.906 312.958 788.278 334.006C798.838 353.434 795.954 375.696 791.365 396.298C787.101 411.557 780.156 426.169 772.561 440.295C767.931 450.131 763.585 460.452 760.133 471.583Z" stroke="black" stroke-miterlimit="10"/>
<path d="M752.66 472.919C749.208 480.609 750.426 489.514 750.426 497.609C751.644 530.799 758.955 562.775 752.051 596.774C738.242 665.583 717.935 727.106 689.099 789.034C675.696 817.367 640.768 830.724 610.713 821.415C547.356 800.772 489.684 763.13 421.777 760.377C402.566 758.273 383.275 756.654 363.374 753.82C345.91 751.189 328.649 747.142 312.647 740.544C296.645 733.947 281.861 724.84 269.393 712.09C239.095 684.971 230.566 638.829 245.187 601.186C256.965 570.829 274.429 544.115 283.77 512.14C299.203 459.116 289.862 406.498 282.552 353.07C280.927 340.927 284.582 329.189 290.918 318.665C319.104 260.785 392.616 242.166 448.663 276.975C490.902 303.689 529.485 331.618 579.847 339.713C622.898 346.594 662.7 333.642 703.314 321.499C727.276 314.213 755.706 313.404 773.982 332.427C791.852 350.641 786.938 378.165 782.349 400.548C778.368 415.241 771.951 429.367 764.438 442.805C760.133 452.316 755.99 462.273 752.66 472.919Z" stroke="black" stroke-miterlimit="10"/>
<path d="M745.797 474.497C744.741 477.735 743.117 480.973 743.117 484.616C743.117 531.163 752.458 578.115 739.055 624.662C728.089 662.304 714.687 696.709 704.939 735.161C691.537 788.589 641.175 836.755 583.503 807.612C531.111 780.898 476.688 755.399 417.392 752.322C403.136 750.784 388.799 749.449 374.706 747.587C346.561 743.863 319.552 738.035 296.118 723.787C286.736 718.08 277.963 711.037 269.881 702.254C242.71 673.638 239.867 629.924 254.489 594.305C273.983 547.353 305.662 503.235 301.195 450.212C298.352 414.998 286.574 380.998 291.326 345.946C293.641 328.622 300.382 312.189 312.973 298.509C342.621 264.023 394.201 257.547 433.191 278.999C499.798 316.237 566.811 365.617 647.227 345.784C685.81 336.07 730.486 308.547 765.414 338.903C780.441 351.856 780.847 373.712 777.923 391.886C774.593 408.643 766.876 425.076 759.322 440.012C754.489 450.9 749.737 462.314 745.797 474.497Z" stroke="black" stroke-miterlimit="10"/>
<path d="M739.38 476.238C736.212 483.402 734.993 491.092 736.212 498.783C752.863 606.043 722.809 712.899 654.983 797.494C641.987 813.684 618.025 812.065 600.967 803.97C535.984 774.018 468.971 750.542 398.465 742.325C381.529 739.897 364.39 737.792 347.129 735.97C333.32 734.554 320.12 730.182 308.058 723.625C295.996 717.028 285.07 708.245 275.851 697.883C224.474 634.781 282.552 559.496 303.672 495.14C307.733 482.997 309.764 470.45 308.951 457.497C306.921 433.414 300.626 408.319 298.27 383.629C295.914 358.939 297.458 334.694 311.145 312.27C340.63 264.833 404.801 265.642 449.476 294.38C508.773 332.832 568.882 370.07 642.393 353.879C674.072 346.594 701.69 332.832 733.369 334.046C749.208 334.654 759.768 344.084 765.698 356.632C778.856 385.451 765.86 417.022 752.011 443.088C747.381 453.612 742.872 464.581 739.38 476.238Z" stroke="black" stroke-miterlimit="10"/>
<path d="M733.247 477.978C731.379 481.378 730.566 485.426 730.566 489.068C730.566 519.425 742.344 548.163 735.44 578.924C719.601 650.971 704.573 717.352 661.116 779.684C646.901 799.922 620.502 804.779 598.977 795.47C536.837 768.351 473.885 740.423 405.247 737.994C380.879 736.578 355.495 733.137 332.467 724.88C320.933 720.752 310.007 715.449 300.098 708.568C257.006 682.947 250.102 627.495 273.252 586.21C312.241 516.592 320.364 441.712 302.9 362.784C298.432 342.546 309.804 322.713 323.573 308.061C356.511 269.285 412.558 278.999 452.766 303.689C497.848 330.808 540.086 360.355 592.478 363.998C632.686 366.832 669.239 352.26 709.041 343.76C726.505 339.713 747.624 342.951 756.559 359.951C770.774 388.284 758.59 420.26 745.066 446.245C740.639 456.364 736.455 466.888 733.247 477.978Z" stroke="black" stroke-miterlimit="10"/>
<path d="M727.439 479.759C726.505 483.402 724.068 486.64 724.88 490.283C741.532 596.329 713.508 708.042 638.372 784.137C625.376 797.494 603.038 792.636 586.386 784.541C523.028 754.185 456.015 734.351 386.28 730.344C362.034 726.742 338.559 721.278 317.318 710.025C308.829 705.533 300.706 700.109 293.152 693.511C261.108 669.995 264.357 625.067 277.353 591.877C296.442 544.925 326.496 499.997 319.186 446.974C316.343 424.307 311.144 400.022 310.616 376.586C310.048 353.151 314.109 330.606 329.705 311.461C358.622 278.19 408.171 286.285 443.506 305.713C501.584 338.094 557.631 382.617 629.112 369.26C648.404 365.617 668.305 357.198 687.799 353.232C707.294 349.265 726.383 349.629 744.05 363.594C768.825 387.474 751.361 424.307 738.526 449.443C734.262 459.157 730.322 469.235 727.439 479.759Z" stroke="black" stroke-miterlimit="10"/>
<path d="M721.957 481.58C715.134 507.323 727.724 533.632 725.287 559.941C718.383 636.036 691.172 707.273 644.059 771.629C633.906 785.391 614.817 785.796 600.196 780.534C525.466 752.606 450.33 726.297 370.726 721.44C357.527 720.428 344.408 717.271 332.102 712.171C319.796 707.071 308.262 699.987 298.352 691.083C272.44 665.988 266.754 625.107 283.812 594.346C324.426 521.489 328.894 443.776 316.304 363.634C314.679 351.087 317.928 338.539 324.548 327.894C382.504 250.302 472.262 332.873 535.213 362.825C590.449 389.134 646.496 372.134 703.762 359.991C713.103 357.967 722.851 357.967 731.38 361.61C764.683 382.253 743.158 425.157 732.151 452.681C728.212 461.95 724.597 471.542 721.957 481.58Z" stroke="black" stroke-miterlimit="10"/>
<path d="M716.635 483.321C713.873 489.473 713.061 496.354 714.28 503.235C734.18 600.377 693.972 688.614 636.707 764.708C627.772 777.256 611.12 778.065 598.529 773.208C524.206 744.47 448.257 723.423 369.466 715.328C355.86 713.709 342.864 709.863 330.842 704.035C306.108 692.661 284.176 670.804 282.146 642.067C279.303 601.996 302.859 568.806 316.668 533.187C333.319 489.473 332.913 443.331 323.572 396.379C319.105 372.498 318.292 346.998 332.832 326.68C365.811 285.071 424.701 302.88 464.503 328.38C490.09 344.57 512.834 360.355 540.045 371.284C566.038 381.808 592.437 383.022 619.04 380.512C645.642 378.003 672.447 371.689 699.252 367.236C728.901 362.379 749.33 391.481 741.572 417.871C738.526 430.864 731.947 443.857 726.179 455.797C722.524 464.661 719.153 473.809 716.635 483.321Z" stroke="black" stroke-miterlimit="10"/>
<path d="M711.803 485.102C711.072 488.259 709.854 491.497 710.26 495.14C715.946 535.615 720.007 576.496 705.792 614.948C687.516 665.543 671.27 718.566 632.687 757.422C618.472 771.184 596.54 766.732 579.076 759.851C511.657 732.328 440.989 718.161 369.102 709.661C356.917 708.042 344.936 704.885 333.93 699.906C297.621 685.376 279.344 642.471 292.747 606.448C303.713 576.496 317.928 549.377 326.457 517.806C333.361 490.687 334.498 463.973 333.564 437.34C332.63 410.707 329.706 384.196 328.488 357.482C328.488 329.958 354.887 307.292 381.286 307.292C432.053 307.292 472.668 341.696 516.125 365.172C529.121 372.255 542.605 377.517 556.373 381.16C570.141 384.803 584.194 386.827 598.368 387.474C633.093 390.267 665.178 378.934 699.294 373.267C713.915 370.839 729.349 379.339 733.816 393.91C740.314 416.576 728.13 438.028 720.535 458.833C717.124 467.333 714.037 476.035 711.803 485.102Z" stroke="black" stroke-miterlimit="10"/>
<path d="M707.212 486.842C706.197 489.068 705.384 491.497 705.791 493.926C707.821 526.306 719.193 559.496 707.009 591.067C686.702 644.495 674.924 701.161 635.528 744.875C619.283 762.28 592.883 762.28 572.576 752.97C515.717 727.471 455.202 718.566 394.93 709.783C381.568 707.314 368.491 704.237 355.778 699.826C314.23 690.638 280.114 646.114 300.015 606.043C332.182 540.958 341.198 472.19 338.152 402.369C337.543 388.405 336.446 374.401 334.943 360.356C333.319 339.308 350.377 320.285 370.684 315.428C392.615 310.57 414.141 316.237 433.636 325.142C477.214 345.784 518.478 375.777 564.657 387.92C580.049 391.967 596.011 394.031 612.744 393.141C637.112 391.927 660.262 384.641 685.037 380.998C698.846 379.379 714.279 379.379 723.783 391.481C738.363 413.136 722.645 439.526 715.172 461.828C712.004 469.883 709.202 478.18 707.212 486.842Z" stroke="black" stroke-miterlimit="10"/>
<path d="M702.868 488.583C701.325 493.561 700.919 498.418 701.325 503.68C703.356 521.49 710.666 538.085 707.823 555.894C697.67 616.607 682.236 675.702 641.622 724.273C625.783 742.892 603.851 759.892 579.076 748.963C515.718 721.44 448.299 711.725 381.001 702.254C371.66 700.149 362.603 697.518 353.952 694.119C313.054 682.583 291.529 637.25 306.962 597.989C319.146 567.227 335.798 540.108 341.89 506.109C349.607 462.8 343.921 422.729 339.453 380.634C336.61 356.349 348.388 329.716 372.676 321.944C423.118 311.016 466.575 349.063 509.22 371.325C522.826 378.61 536.675 384.155 550.768 388.162C564.861 392.17 579.117 394.598 593.494 395.731C625.377 398.848 656.649 391.967 688.735 387.11C701.731 385.491 716.758 391.562 721.226 404.11C728.536 424.753 717.571 445.8 710.098 464.743C707.173 472.392 704.655 480.285 702.868 488.583Z" stroke="black" stroke-miterlimit="10"/>
<path d="M698.766 490.242C697.222 492.306 698.035 494.735 698.441 497.164C702.908 527.925 708.594 558.687 698.035 587.829C678.946 639.233 672.042 698.733 622.086 733.137C612.745 740.018 601.373 742.042 590.001 740.423C540.452 733.542 496.995 717.352 447.039 708.042C428.763 704.804 411.705 702.376 393.429 699.542C385.306 698.733 377.183 696.709 369.304 694.564C346.316 687.804 323.166 674.043 313.825 650.971C295.549 605.234 332.102 563.949 344.286 520.235C352.002 492.307 352.815 464.378 350.378 436.045C348.956 418.034 344.286 396.258 345.057 376.505C344.286 354.689 356.876 332.832 378.808 326.356C394.241 322.308 409.268 325.951 423.483 332.023C463.407 349.346 499.635 373.024 540.452 388.203C554.058 393.262 568.191 397.391 583.097 400.022C618.431 407.712 652.953 393.95 687.881 393.141C698.035 393.141 708.594 397.998 713.468 406.903C724.434 426.736 713.062 448.997 705.264 467.414C702.583 474.74 700.309 482.309 698.766 490.242Z" stroke="black" stroke-miterlimit="10"/>
<path d="M694.907 491.861C693.973 494.33 693.567 496.354 693.973 498.783C712.249 583.782 679.352 667.162 619.649 726.256C607.465 737.994 589.189 737.994 573.755 733.542C508.773 713.709 443.384 704.804 377.995 690.638C358.5 686.59 338.193 680.519 326.009 662.305C310.982 640.043 312.607 612.924 323.572 590.663C347.657 541.161 355.495 488.299 354.805 434.709C354.602 416.86 353.424 398.929 351.596 380.998C349.565 364.808 354.845 346.189 369.872 337.689C396.678 321.904 426.732 336.07 451.913 349.427C480.546 364.403 509.179 380.593 539.193 391.927C554.179 397.593 569.531 402.046 585.371 404.515C616.4 410.545 647.267 402.046 678.133 399.617C693.161 398.403 708.594 406.498 711.437 422.283C714.28 439.283 706.563 454.664 700.674 470.045C698.278 477.007 696.207 484.252 694.907 491.861Z" stroke="black" stroke-miterlimit="10"/>
<path d="M691.211 493.44C690.724 495.14 689.912 497.164 690.318 498.783C709.812 572.044 676.509 638.424 635.895 699.947C619.243 725.447 589.189 735.566 561.165 725.851C509.991 707.637 458.411 697.923 404.394 693.066C396.678 692.661 388.961 690.233 381.651 688.128C358.907 684.323 340.427 670.157 330.274 651.659C320.12 633.162 318.293 610.293 328.852 589.043C359.719 527.52 364.593 459.926 356.876 392.331C354.845 374.927 356.064 354.284 372.553 344.651C393.023 330.808 419.422 336.475 439.323 347.808C457.518 357.725 475.957 367.56 494.761 376.424C513.565 385.289 532.694 393.141 552.189 399.131C590.001 411.395 628.584 413.419 668.386 406.134C675.29 404.919 681.789 404.11 688.287 406.538C714.28 416.657 706.157 452.276 696.369 472.554C694.135 479.192 692.308 486.114 691.211 493.44Z" stroke="black" stroke-miterlimit="10"/>
<path d="M687.676 494.978C687.473 496.759 686.661 497.973 686.661 499.592C691.535 525.092 697.221 549.782 689.504 574.067C669.603 634.781 648.484 735.97 564.413 719.375C512.427 709.256 466.127 697.114 414.953 690.233C404.393 688.614 394.24 685.78 384.086 683.757C364.794 680.923 347.736 669.185 337.583 653.44C327.429 637.695 324.18 617.984 332.506 599.162C356.875 544.803 363.657 487.085 364.307 428.8C364.51 409.372 364.063 389.903 363.373 370.475C362.561 355.094 377.588 344.165 391.397 342.951C432.417 340.118 466.939 366.022 502.679 383.832C519.534 392.129 536.795 399.334 554.503 404.636C587.969 416.617 623.303 414.593 658.231 410.545C675.289 408.117 696.815 413.379 700.47 432.807C703.313 447.783 697.627 461.545 692.225 474.902C690.235 481.257 688.61 487.895 687.676 494.978Z" stroke="black" stroke-miterlimit="10"/>
<path d="M684.47 496.556C684.267 497.609 683.861 498.823 683.861 500.037C690.766 530.799 691.578 560.346 682.237 589.894C667.616 635.631 642.841 676.107 607.913 709.702C599.79 717.392 588.824 719.416 578.265 716.987C521.811 702.821 469.013 696.749 411.341 685.821C400.781 683.797 391.034 680.559 381.042 677.159C362.482 670.966 347.901 657.326 340.225 640.812C332.549 624.298 331.737 604.87 340.672 587.06C365.65 537.558 370.077 484.454 369.346 431.269C369.102 413.541 368.29 395.812 367.477 378.205C366.259 360.396 384.129 347.849 400.375 347.039C426.774 345.42 449.112 361.206 471.856 372.943C487.005 380.836 502.438 388 518.196 394.193C533.955 400.386 549.997 405.567 566.324 409.534C601.008 419.086 636.749 418.276 672.083 417.062C683.455 416.657 693.609 425.967 696.452 437.705C698.888 450.252 696.045 461.99 689.872 472.554C687.516 480.042 685.567 487.935 684.47 496.556Z" stroke="black" stroke-miterlimit="10"/>
<path d="M681.3 497.973C680.976 500.402 680.163 502.425 680.976 504.854C692.754 550.187 680.976 593.901 659.856 634.376C643.611 665.947 622.085 706.828 585.939 708.042C524.205 710.066 463.69 689.828 402.688 679.304C382.056 676.066 361.749 667.971 349.971 648.948C338.599 630.329 337.38 608.067 345.909 589.043C368.775 538.934 372.877 485.911 373.649 432.645C373.933 414.876 373.811 397.107 373.933 379.379C373.527 367.641 382.462 359.141 393.022 355.903C412.923 350.236 432.823 355.498 450.287 364.808C466.858 373.631 483.55 382.01 500.527 389.538C517.504 397.067 534.684 403.705 552.188 408.967C588.375 420.26 626.553 423.093 664.324 420.664C675.29 420.26 687.068 426.736 690.723 437.664C695.19 450.212 692.348 463.569 685.931 474.861C683.859 482.066 682.153 489.675 681.3 497.973Z" stroke="black" stroke-miterlimit="10"/>
<path d="M678.296 499.39C677.727 500.402 677.321 501.616 677.727 502.83C696.409 570.425 663.106 635.995 618.837 685.781C595.28 712.899 559.134 706.423 527.049 700.757C492.933 694.685 461.66 688.614 427.544 683.352C412.111 681.328 397.896 674.852 384.209 668.052C359.719 657.852 339.005 631.948 347.94 605.234C366.542 550.592 375.72 494.573 378.32 437.907C379.173 419.005 379.295 400.022 378.807 380.998C378.401 373.308 382.869 367.236 388.961 363.189C403.988 353.879 422.264 354.689 436.885 363.189C455.69 373.834 474.819 383.062 494.273 390.955C513.727 398.848 533.506 405.486 553.57 410.829C566.932 414.391 580.375 417.426 593.859 419.895C620.786 424.591 647.673 424.51 674.681 429.65C695.354 433.171 688.571 461.1 682.276 477.047C680.367 484.009 678.905 491.335 678.296 499.39Z" stroke="black" stroke-miterlimit="10"/>
<path d="M675.371 500.644C691.941 570.87 658.232 643.322 604.215 690.273C595.28 697.964 583.908 701.202 572.13 700.797C511.209 697.154 451.506 684.202 393.022 668.417C365.81 661.536 345.503 633.607 353.22 605.679C366.623 557.513 380.025 510.966 381.244 461.585C381.65 438.109 377.588 415.038 380.025 391.158C383.681 362.42 420.639 358.372 441.759 368.896C458.329 376.789 474.981 384.803 491.795 392.291C508.609 399.779 525.667 406.741 542.928 412.529C583.096 429.164 624.928 423.093 667.979 431.593C688.286 435.64 687.068 463.569 678.701 479.192C677.077 485.83 675.777 492.914 675.371 500.644Z" stroke="black" stroke-miterlimit="10"/>
<path d="M672.449 501.94C672.043 504.894 672.449 508.132 672.855 510.966C685.039 567.632 663.514 623.084 625.336 663.559C607.872 682.583 585.128 699.178 558.323 695.535C500.651 687.44 444.197 682.583 390.303 662.709C367.437 652.226 350.379 626.322 358.908 602.036C383.276 533.227 386.932 461.99 386.525 390.753C386.119 382.658 392.618 375.372 399.928 372.134C420.235 363.229 442.979 370.515 462.027 379.42C470.515 383.427 478.882 388.081 487.208 392.655C495.534 397.229 503.9 401.681 512.429 405.324C530.868 413.217 549.632 418.56 568.598 422.405C584.397 425.562 600.115 427.343 615.914 429.002C631.713 430.662 647.674 432.2 663.92 434.952C685.689 438.878 680.896 466.766 674.682 483.685C673.505 489.352 672.611 495.383 672.449 501.94Z" stroke="black" stroke-miterlimit="10"/>
<path d="M669.726 503.194C687.88 571.275 650.515 646.964 591.219 685.011C580.253 691.892 567.663 693.916 554.666 691.892C501.868 682.988 449.882 680.964 400.942 661.94C377.183 653.44 358.094 628.345 364.998 602.036C380.838 541.727 394.241 483.847 387.336 421.514C385.712 407.348 390.179 393.181 400.333 382.658C413.735 368.491 434.855 370.11 450.694 379.015C461.173 384.196 471.732 389.215 482.332 393.991C504.467 403.907 526.886 412.691 549.711 419.653C584.68 431.674 621.233 432.483 658.191 437.745C678.905 440.983 679.311 469.316 671.513 485.547C670.498 490.971 669.767 496.84 669.726 503.194Z" stroke="black" stroke-miterlimit="10"/>
<path d="M667.087 504.409C682.195 565.163 658.233 635.186 602.998 669.185C536.797 709.661 463.285 676.066 398.059 655.828C375.965 646.924 363.781 621.019 369.467 597.948C384.9 539.663 401.146 483.402 393.429 423.093C391.805 410.95 392.617 397.593 401.958 388.284C420.641 370.474 448.258 380.189 468.159 390.308C477.622 394.638 487.126 398.848 496.711 402.936C514.622 410.545 532.736 417.548 551.134 423.295C583.909 434.831 618.837 434.831 653.765 440.093C674.073 443.331 676.509 470.854 668.549 487.206C667.655 492.549 667.046 498.256 667.087 504.409Z" stroke="black" stroke-miterlimit="10"/>
<path d="M664.609 505.583C682.195 570.425 643.206 643.281 585.534 676.471C578.629 680.519 570.913 682.542 563.196 682.138C512.022 679.304 460.848 676.066 412.112 658.257C399.927 653.805 389.368 644.495 382.544 633.283C372.594 617.7 369.67 597.948 377.59 578.52C401.146 522.259 395.866 462.355 401.552 403.665C404.801 372.903 447.04 382.213 468.565 392.332C481.846 397.998 494.761 405.081 507.961 410.546C524.572 417.669 541.508 423.457 558.647 428.031C589.189 436.855 620.056 436.855 652.141 444.14C670.417 447.783 673.666 471.664 666.031 486.68C665.137 492.509 664.528 498.742 664.609 505.583Z" stroke="black" stroke-miterlimit="10"/>
<path d="M662.132 506.797C680.165 574.472 637.114 652.591 570.913 674.852C517.303 692.662 464.504 666.757 413.493 653.724C388.556 646.519 371.498 618.186 379.621 593.496C399.522 532.378 401.552 470.045 406.832 406.903C409.269 378.165 448.259 387.07 468.322 395.529C482.09 400.953 495.371 408.117 508.774 413.784C526.441 420.907 544.27 426.452 562.222 431.026C594.063 439.283 627.773 438.069 657.827 452.64C670.011 458.307 665.544 476.116 663.188 488.34C662.417 494.007 661.97 500.078 662.132 506.797Z" stroke="black" stroke-miterlimit="10"/>
<path d="M659.695 507.849C676.549 573.663 634.717 652.591 568.922 670.805C520.591 684.162 471.448 667.162 423.117 654.614C414.995 652.186 408.09 648.138 401.592 642.876C388.189 631.138 383.722 613.734 384.453 596.774C384.94 572.772 394.078 546.139 401.186 524.687C404.841 513.759 406.872 502.425 407.684 491.092C410.527 461.14 394.688 427.95 415.401 402.045C428.803 385.046 452.766 390.307 469.418 398.807C478.637 402.976 487.856 407.024 497.198 410.829C514.662 417.952 532.288 424.388 550.158 429.812C581.919 440.093 614.816 440.902 646.901 450.212C664.365 455.069 665.584 477.735 660.101 492.752C659.613 497.447 659.41 502.425 659.695 507.849Z" stroke="black" stroke-miterlimit="10"/>
<path d="M657.42 509.023C672.082 563.949 645.277 627.495 594.509 655.019C538.868 685.376 472.261 674.852 417.838 647.329C398.749 637.614 384.941 617.377 387.784 595.115C390.22 577.71 396.313 561.52 399.074 543.954C401.674 529.504 403.664 515.094 405.451 500.644C409.025 471.745 411.746 442.724 417.026 412.974C423.524 377.76 469.418 403.26 493.461 412.326C503.818 416.091 514.175 419.572 524.612 422.85C563.236 436.49 603.038 442.562 642.84 453.895C662.335 459.562 661.929 479.395 657.542 494.249C657.136 498.783 657.055 503.64 657.42 509.023Z" stroke="black" stroke-miterlimit="10"/>
</g>
</g>
<defs>
<clipPath id="clip0">
<rect width="1082" height="1072" fill="white"/>
</clipPath>
</defs>
</svg>
